<svg xmlns="http://www.w3.org/2000/svg" xmlns:xlink="http://www.w3.org/1999/xlink" width="254" height="254" viewBox="0 0 254 254">
  <defs>
    <clipPath id="clip-path">
      <circle id="Ellipse_98" data-name="Ellipse 98" cx="127" cy="127" r="127" transform="translate(456 1269)" fill="#fff" stroke="#707070" stroke-width="1"/>
    </clipPath>
  </defs>
  <g id="Mask_Group_1" data-name="Mask Group 1" transform="translate(-456 -1269)" clip-path="url(#clip-path)">
    <g id="boy" transform="translate(501.518 1294.59)">
      <path id="Path_888" data-name="Path 888" d="M182.518,215.5l-4.035-.266V207.62a11.42,11.42,0,0,0-11.421-11.42H90.926a11.42,11.42,0,0,0-11.421,11.42v7.614l-4.035.457a30.455,30.455,0,0,0-26.419,30v41.875H208.938V245.689A30.456,30.456,0,0,0,182.518,215.5Z" transform="translate(-45.244 -59.154)" fill="#e56b2e"/>
      <path id="Path_889" data-name="Path 889" d="M152,250.744a34.607,34.607,0,0,1-26.648-12.525v62.013h53.3V238.219A34.61,34.61,0,0,1,152,250.744Z" transform="translate(-68.248 -71.823)" fill="#ebebeb"/>
      <path id="Path_890" data-name="Path 890" d="M177.732,204.011a7.615,7.615,0,0,1-6.7-7.614V168.95H132.963v27.486a7.615,7.615,0,0,1-6.7,7.614h-.914v13.21a34.6,34.6,0,0,0,53.3,0V204.125Z" transform="translate(-68.248 -50.938)" fill="#fedac6"/>
      <path id="Path_891" data-name="Path 891" d="M140.577,248.8a34.225,34.225,0,0,1-15.227-10.583v62.013h15.227Z" transform="translate(-68.248 -71.823)" fill="#dbdbdb"/>
      <path id="Path_892" data-name="Path 892" d="M49.05,255.7v41.875H64.277v-68.18A30.447,30.447,0,0,0,49.05,255.7Z" transform="translate(-45.243 -69.161)" fill="#d65b25"/>
      <path id="Path_893" data-name="Path 893" d="M218,115.491h7.614a11.42,11.42,0,0,0,11.421-11.421h0A11.42,11.42,0,0,0,225.614,92.65h-3.807" transform="translate(-96.181 -27.934)" fill="#fedac6"/>
      <path id="Path_894" data-name="Path 894" d="M100.784,115.491H93.171A11.42,11.42,0,0,1,81.75,104.071h0A11.42,11.42,0,0,1,93.171,92.65h3.807" transform="translate(-55.102 -27.934)" fill="#f5c4b0"/>
      <path id="Path_895" data-name="Path 895" d="M180.728,43.518H104.591A22.84,22.84,0,0,1,81.75,20.677H96.977A11.42,11.42,0,0,1,85.557,9.257V5.45h57.1A38.068,38.068,0,0,1,180.728,43.518Z" transform="translate(-55.102 -1.643)" fill="#fecb66"/>
      <path id="Path_896" data-name="Path 896" d="M103.55,59.95V98.018l.914,11.877a41.154,41.154,0,0,0,44.517,37.486q1.85-.16,3.677-.484A41.877,41.877,0,0,0,186.5,108.335l.8-10.316V59.95Z" transform="translate(-61.675 -18.075)" fill="#fedac6"/>
      <path id="Path_897" data-name="Path 897" d="M118.778,101.514V54.5H103.55V96.375l.914,11.877a40.845,40.845,0,0,0,27.6,35.327l-7.081-15.722A59.005,59.005,0,0,1,118.778,101.514Z" transform="translate(-61.675 -16.432)" fill="#f5c4b0"/>
      <path id="Path_898" data-name="Path 898" d="M118.778,54.5A30.219,30.219,0,0,1,103.55,81.147V54.5Z" transform="translate(-61.675 -16.432)" fill="#f5ad76"/>
      <path id="Path_899" data-name="Path 899" d="M216.878,82.791S201.65,75.177,201.65,59.95h15.227Z" transform="translate(-91.252 -18.075)" fill="#fecb66"/>
      <path id="Path_900" data-name="Path 900" d="M174.319,191.271V179.85H136.25v11.421C150.526,198.884,160.043,198.884,174.319,191.271Z" transform="translate(-71.534 -54.224)" fill="#f5c4b0"/>
      <path id="Path_901" data-name="Path 901" d="M81.75,27.25a24.669,24.669,0,0,0,22.841,22.841h72.33A528.756,528.756,0,0,1,81.75,27.25Z" transform="translate(-55.102 -8.216)" fill="#f5ad76"/>
      <path id="Path_902" data-name="Path 902" d="M116.53,212.836a8.167,8.167,0,0,1,2.741-2.855,8.072,8.072,0,0,0,3.807-6.852V196.2H107.241a14.657,14.657,0,0,0-12.182,22.841L99.7,225.97A27.683,27.683,0,0,1,116.53,212.836Z" transform="translate(-58.362 -59.154)" fill="#d65b25"/>
      <path id="Path_903" data-name="Path 903" d="M179.085,45.682H102.948A26.677,26.677,0,0,1,76.3,19.034a3.808,3.808,0,0,1,3.807-3.807h2.044a15.115,15.115,0,0,1-2.044-7.614V3.807A3.808,3.808,0,0,1,83.914,0h57.1a41.925,41.925,0,0,1,41.875,41.875A3.806,3.806,0,0,1,179.085,45.682ZM84.3,22.841a19.067,19.067,0,0,0,18.65,15.227h72.116A34.307,34.307,0,0,0,141.016,7.614h-53.3a7.621,7.621,0,0,0,7.614,7.614,3.807,3.807,0,1,1,0,7.613Z" transform="translate(-53.459)"/>
      <path id="Path_904" data-name="Path 904" d="M104.512,86.2l-3.407-6.81,1.705,3.4-1.713-3.4c.129-.069,13.134-6.818,13.134-19.442h7.613C121.845,77.328,105.22,85.84,104.512,86.2Z" transform="translate(-60.936 -18.075)"/>
      <path id="Path_905" data-name="Path 905" d="M213.532,86.2c-.708-.358-17.332-8.87-17.332-26.248h7.614c0,12.624,13,19.373,13.134,19.442Z" transform="translate(-89.609 -18.075)"/>
      <circle id="Ellipse_99" data-name="Ellipse 99" cx="7.614" cy="7.614" r="7.614" transform="translate(53.295 64.716)"/>
      <circle id="Ellipse_100" data-name="Ellipse 100" cx="7.614" cy="7.614" r="7.614" transform="translate(98.977 64.716)"/>
      <path id="Path_906" data-name="Path 906" d="M162.377,120.331H150.956a3.808,3.808,0,0,1-3.537-5.219l7.614-19.034,7.069,2.828-5.524,13.811h5.8v7.614Z" transform="translate(-74.82 -28.967)"/>
      <path id="Path_907" data-name="Path 907" d="M153.247,146.507H152.6v-7.614h.647a22.082,22.082,0,0,0,15.7-6.5l5.383,5.387A29.639,29.639,0,0,1,153.247,146.507Z" transform="translate(-76.463 -39.916)"/>
      <path id="Path_908" data-name="Path 908" d="M227.257,117.654H223.45v-7.614h3.807a7.614,7.614,0,1,0,0-15.228H223.45V87.2h3.807a15.228,15.228,0,0,1,0,30.455Z" transform="translate(-97.825 -26.29)"/>
      <path id="Path_909" data-name="Path 909" d="M95.334,117.655H91.527a15.227,15.227,0,1,1,0-30.454h3.807v7.613H91.527a7.614,7.614,0,1,0,0,15.228h3.807v7.613Z" transform="translate(-53.459 -26.291)"/>
      <path id="Path_910" data-name="Path 910" d="M143.824,151.337a45.028,45.028,0,0,1-44.27-37.1c-.236-1.333-.415-2.676-.529-4.024l-.918-11.9L98.1,59.95h7.614V98.018l.9,11.584c.091,1.089.24,2.2.434,3.3a37.384,37.384,0,0,0,43.3,30.242A38.044,38.044,0,0,0,181.055,108.1l.8-10.377-.008-37.772h7.613V98.018l-.811,10.609a44.889,44.889,0,0,1-44.829,42.709Z" transform="translate(-60.032 -18.075)"/>
      <path id="Path_911" data-name="Path 911" d="M127.514,282.635H119.9v-75.3a3.806,3.806,0,0,1,3.807-3.807h.647a3.807,3.807,0,0,0,3.16-3.78v-19.9h7.614v19.872a11.407,11.407,0,0,1-7.614,10.827v72.086Z" transform="translate(-66.604 -54.224)"/>
      <path id="Path_912" data-name="Path 912" d="M51.214,294.14H43.6V252.265A34.375,34.375,0,0,1,73.324,218.3l4.287-.293.506,7.6-4.035.266a26.685,26.685,0,0,0-22.868,26.389V294.14Z" transform="translate(-43.6 -65.73)"/>
      <path id="Path_913" data-name="Path 913" d="M150.733,253.5a38.3,38.3,0,0,1-29.579-13.9l5.862-4.854a30.8,30.8,0,0,0,47.433-.008l5.859,4.861A38.3,38.3,0,0,1,150.733,253.5Z" transform="translate(-66.982 -70.773)"/>
      <path id="Path_914" data-name="Path 914" d="M110.682,249.973l-20.4-30.455a18.531,18.531,0,0,1,15.341-28.768h15.84v7.614H105.622a10.919,10.919,0,0,0-9.011,16.926l20.4,30.443Z" transform="translate(-56.743 -57.511)"/>
      <path id="Path_915" data-name="Path 915" d="M107.357,302.955a3.806,3.806,0,0,1-3.807-3.807V276.307a3.807,3.807,0,1,1,7.613,0v22.841A3.806,3.806,0,0,1,107.357,302.955Z" transform="translate(-61.675 -82.158)"/>
      <path id="Path_916" data-name="Path 916" d="M200.527,282.635h-7.614v-72.09a11.411,11.411,0,0,1-7.614-10.857V179.85h7.614v19.872a3.811,3.811,0,0,0,3.16,3.807h.647a3.8,3.8,0,0,1,3.807,3.807Z" transform="translate(-86.322 -54.224)"/>
      <path id="Path_917" data-name="Path 917" d="M268.5,294.141h-7.614V252.266a26.727,26.727,0,0,0-23.119-26.412l-3.78-.24.506-7.6,4.035.266A34.418,34.418,0,0,1,268.5,252.266v41.876Z" transform="translate(-101.002 -65.731)"/>
      <path id="Path_918" data-name="Path 918" d="M201.527,249.973l-6.327-4.237,20.4-30.455a10.922,10.922,0,0,0-9.019-16.917H190.75V190.75h15.837a18.536,18.536,0,0,1,15.353,28.756Z" transform="translate(-87.966 -57.511)"/>
      <path id="Path_919" data-name="Path 919" d="M216.357,302.955a3.8,3.8,0,0,1-3.807-3.807V276.307a3.807,3.807,0,1,1,7.613,0v22.841A3.8,3.8,0,0,1,216.357,302.955Z" transform="translate(-94.538 -82.158)"/>
    </g>
  </g>
</svg>
