<svg xmlns="http://www.w3.org/2000/svg" xmlns:xlink="http://www.w3.org/1999/xlink" width="254" height="254" viewBox="0 0 254 254">
  <defs>
    <clipPath id="clip-path">
      <circle id="Ellipse_103" data-name="Ellipse 103" cx="127" cy="127" r="127" transform="translate(1070 3230)" fill="#fff" stroke="#707070" stroke-width="1"/>
    </clipPath>
  </defs>
  <g id="Mask_Group_2" data-name="Mask Group 2" transform="translate(-1070 -3230)" clip-path="url(#clip-path)">
    <g id="woman" transform="translate(1070 3230)">
      <path id="Path_920" data-name="Path 920" d="M186.267,169.841,168.191,167.6l-7.959-.974L127,241.3,93.811,166.624l-7.959.974-18.119,2.244A33.867,33.867,0,0,0,38.1,203.455V254H215.9V203.454A33.867,33.867,0,0,0,186.267,169.841Z" fill="#215280"/>
      <g id="Group_73" data-name="Group 73">
        <path id="Path_921" data-name="Path 921" d="M97.367,207.433l-4.234,16.934L127,241.3,93.811,166.582,85.852,167.6,67.733,207.433Z" fill="#3e76a3"/>
        <path id="Path_922" data-name="Path 922" d="M156.633,207.433h29.634L168.148,167.6l-7.959-1.016L127,241.3l33.867-16.933Z" fill="#3e76a3"/>
      </g>
      <path id="Path_923" data-name="Path 923" d="M127,241.3l16.933-38.1H110.067Z" fill="#ebebeb"/>
      <path id="Path_924" data-name="Path 924" d="M155.575,166.031a8.466,8.466,0,0,1-7.408-8.467V139.7H105.834v17.907a8.467,8.467,0,0,1-7.408,8.467l-4.614.593L110.067,203.2h33.867l16.256-36.576Z" fill="#fedac6"/>
      <path id="Path_925" data-name="Path 925" d="M148.167,158.919V139.7H105.834v19.219C121.708,167.174,132.292,167.174,148.167,158.919Z" fill="#f5c4b0"/>
      <path id="Path_926" data-name="Path 926" d="M186.267,80.433V48.218A33.872,33.872,0,0,0,165.1,16.934a43.4,43.4,0,0,0-30.649-12.7h-7.239C99.949,4.233,59.267,25.4,63.5,84.667A123.827,123.827,0,0,0,88.9,152.4l4.233-21.167h67.733L165.1,152.4C190.5,127,186.267,80.433,186.267,80.433Z" fill="#d65b25"/>
      <path id="Path_927" data-name="Path 927" d="M84.667,101.6H80.434a12.7,12.7,0,0,1-12.7-12.7h0a12.7,12.7,0,0,1,12.7-12.7h4.233Z" fill="#f5c4b0"/>
      <g id="Group_74" data-name="Group 74">
        <path id="Path_928" data-name="Path 928" d="M177.8,71.967h-8.467v25.4H177.8a12.7,12.7,0,1,0,0-25.4Z" fill="#fedac6"/>
        <path id="Path_929" data-name="Path 929" d="M173.567,67.733l-2.328,38.1A44.279,44.279,0,0,1,127,148.166h0a44.279,44.279,0,0,1-44.238-42.333L80.434,76.2l76.2-47.286Z" fill="#fedac6"/>
      </g>
      <path id="Path_930" data-name="Path 930" d="M173.863,71.967c-16.933-25.4-16.933-42.333-16.933-42.333S110.363,71.967,63.8,84.667C59.563,25.4,100.245,4.233,127.55,4.233h7.2a43.3,43.3,0,0,1,30.649,12.7h0a33.872,33.872,0,0,1,21.167,31.284V76.2" fill="#e56b2e"/>
      <path id="Path_931" data-name="Path 931" d="M63.8,84.667s71.67-29.633,88.6-55.033c0,0-50.8,29.633-88.9,29.633A43.224,43.224,0,0,0,63.8,84.667Z" fill="#d65b25"/>
      <path id="Path_932" data-name="Path 932" d="M38.1,202.861V254H55.033V173.567A33.867,33.867,0,0,0,38.1,202.861Z" fill="#1c496e"/>
      <circle id="Ellipse_104" data-name="Ellipse 104" cx="8.467" cy="8.467" r="8.467" transform="translate(143.933 71.966)"/>
      <path id="Path_933" data-name="Path 933" d="M124.651,109.355l-12.7-8.467a4.234,4.234,0,0,1-.643-6.515l12.7-12.7,5.986,5.986-9.047,9.051,8.4,5.6Z"/>
      <path id="Path_934" data-name="Path 934" d="M177.8,101.6h-4.233V93.133H177.8a8.467,8.467,0,0,0,0-16.934h-4.233V67.733H177.8a16.934,16.934,0,0,1,0,33.867Z"/>
      <path id="Path_935" data-name="Path 935" d="M127,152.4a48.426,48.426,0,0,1-48.467-46.38L76.213,76.53l8.441-.66L86.982,105.5a40.049,40.049,0,0,0,80.027.144l2.333-38.172,8.45.516-2.328,38.1A48.4,48.4,0,0,1,127,152.4Z"/>
      <path id="Path_936" data-name="Path 936" d="M121.776,122.767h-3.243V114.3h3.239a36,36,0,0,0,16.036-3.789l3.789,7.573A44.516,44.516,0,0,1,121.776,122.767Z"/>
      <path id="Path_937" data-name="Path 937" d="M63.5,88.9a4.23,4.23,0,0,1-4.22-3.933c-1.867-26.141,4.724-48.1,19.063-63.5A67.764,67.764,0,0,1,127,0h7.239a48.51,48.51,0,0,1,33.244,13.339A37.95,37.95,0,0,1,190.5,48.2v28h-8.467V48.218a29.522,29.522,0,0,0-18.521-27.36,4.233,4.233,0,0,1-1.405-.931A40.087,40.087,0,0,0,134.26,8.463H127A59.176,59.176,0,0,0,84.535,27.234C72.8,39.845,66.937,57.684,67.467,79.075,110.833,65.24,153.348,26.9,153.784,26.5a4.234,4.234,0,0,1,7.082,3.133c0,.135.351,16.18,16.222,39.984l-7.044,4.695c-10.575-15.862-14.812-28.638-16.51-36.407C139.4,49.737,102.354,78.456,64.618,88.747A4.208,4.208,0,0,1,63.5,88.9Z"/>
      <circle id="Ellipse_105" data-name="Ellipse 105" cx="8.467" cy="8.467" r="8.467" transform="translate(93.133 71.966)"/>
      <path id="Path_938" data-name="Path 938" d="M165.1,156.633a4.23,4.23,0,0,1-4.149-3.4l-4.233-21.167,8.3-1.664,2.51,12.543c14.279-20.2,14.5-49.483,14.5-49.809H190.5c0,1.626-.258,40.111-22.407,62.26A4.229,4.229,0,0,1,165.1,156.633Z"/>
      <path id="Path_939" data-name="Path 939" d="M88.9,156.633a4.227,4.227,0,0,1-3.357-1.655A127.593,127.593,0,0,1,59.275,84.929l8.45-.529a119.1,119.1,0,0,0,18.953,57.523l2.3-11.523,8.3,1.664-4.233,21.167a4.23,4.23,0,0,1-3.188,3.289A4.133,4.133,0,0,1,88.9,156.633Z"/>
      <path id="Path_940" data-name="Path 940" d="M80.433,101.6H76.2A16.95,16.95,0,0,1,59.267,84.667h8.467A8.475,8.475,0,0,0,76.2,93.134h4.233V101.6Z"/>
      <path id="Path_941" data-name="Path 941" d="M127,245.533a4.231,4.231,0,0,1-3.869-2.515l-33.867-76.2L97,163.377l30,67.5,30-67.5,7.739,3.442-33.867,76.2A4.234,4.234,0,0,1,127,245.533Z"/>
      <path id="Path_942" data-name="Path 942" d="M42.333,254H33.867V203.458A38.171,38.171,0,0,1,67.2,165.642l30.658-3.81a4.239,4.239,0,0,0,3.7-4.233V139.7h8.467v17.865a12.685,12.685,0,0,1-11.113,12.666l-30.654,3.81a29.682,29.682,0,0,0-25.925,29.413V254Z"/>
      <path id="Path_943" data-name="Path 943" d="M220.133,254h-8.467V203.458a29.682,29.682,0,0,0-25.929-29.413l-30.641-3.81a12.7,12.7,0,0,1-11.121-12.7V139.7h8.467v17.865a4.241,4.241,0,0,0,3.7,4.267l30.645,3.81a38.168,38.168,0,0,1,33.346,37.816V254Z"/>
      <path id="Path_944" data-name="Path 944" d="M125.108,245.089,91.241,228.156a4.236,4.236,0,0,1-2.214-4.813l2.917-11.676H67.733a4.232,4.232,0,0,1-3.865-5.952l16.933-38.1,7.734,3.442L74.248,203.2H97.366a4.234,4.234,0,0,1,4.106,5.258L98.06,222.1l30.831,15.418Z"/>
      <rect id="Rectangle_141" data-name="Rectangle 141" width="8.467" height="12.7" transform="translate(122.767 241.3)"/>
      <path id="Path_945" data-name="Path 945" d="M128.892,245.089l-3.789-7.573L155.931,222.1l-3.408-13.64a4.234,4.234,0,0,1,4.111-5.258h23.118l-14.287-32.148,7.739-3.442,16.933,38.1a4.236,4.236,0,0,1-3.869,5.956h-24.21l2.913,11.676a4.238,4.238,0,0,1-2.21,4.813Z"/>
      <rect id="Rectangle_142" data-name="Rectangle 142" width="33.867" height="8.467" transform="translate(110.067 198.967)"/>
    </g>
  </g>
</svg>
