<svg xmlns="http://www.w3.org/2000/svg" xmlns:xlink="http://www.w3.org/1999/xlink" width="1144.41" height="798.882" viewBox="0 0 1144.41 798.882">
  <defs>
    <linearGradient id="linear-gradient" x1="2024.027" y1="1" x2="2024.027" gradientUnits="objectBoundingBox">
      <stop offset="0" stop-color="gray" stop-opacity="0.251"/>
      <stop offset="0.54" stop-color="gray" stop-opacity="0.122"/>
      <stop offset="1" stop-color="gray" stop-opacity="0.102"/>
    </linearGradient>
    <linearGradient id="linear-gradient-2" x1="-0.328" y1="1" x2="-0.328" y2="0" xlink:href="#linear-gradient"/>
    <linearGradient id="linear-gradient-3" x1="-1.465" y1="1" x2="-1.465" y2="0" xlink:href="#linear-gradient"/>
    <linearGradient id="linear-gradient-4" x1="13.984" y1="1" x2="13.984" y2="0" xlink:href="#linear-gradient"/>
    <linearGradient id="linear-gradient-5" x1="14.718" y1="1" x2="14.718" y2="0" xlink:href="#linear-gradient"/>
  </defs>
  <g id="undraw_goal_0v5v_1_" data-name="undraw_goal_0v5v (1)" transform="translate(0.005 0.004)">
    <path id="Path_690" data-name="Path 690" d="M28.19,119.74c3.72,31.61,29.81,56.64,36,87.86A85.189,85.189,0,0,1,65.61,220c.89,17.93-2.66,36.23-.83,54.19,3.41,33.68,23.88,60,49.87,82.81,19.66,17.21,42.48,32.35,63.47,47,53.44,37.33,103.56,84.46,125.51,145.84,14.63,40.93,15.75,85.41,26.49,127.53s35.2,85.22,76.54,98.65c44.37,14.42,93.26-9.62,138.92-.12,49,10.2,83.75,56.51,132.1,69.59,61.43,16.62,122.65-24.22,185.71-32.73,30.28-4.09,61.1-.62,91.54-3.24A230.08,230.08,0,0,0,1051,779c10-5.87,20.11-13.08,24.76-23.74,4-9.21,3.39-19.71,2.16-29.68-4.6-37-16.24-77.22,2.07-109.74,16.89-30,57.82-51.46,51.75-85.33-3.65-20.39-23.69-33.12-42.27-42.25-38.32-18.83-79.14-33.57-113.39-59-24.5-18.22-45.6-43.64-54.6-72.23A96.31,96.31,0,0,1,917,321.59c1.26-18.9,7.8-40.12-3.6-55.25-4.94-6.56-12.51-10.59-20.12-13.67-28.7-11.6-60.58-12.27-90.42-20.51A124.731,124.731,0,0,1,773.6,220c-18.2-10.54-32.85-26.07-36.39-46.34-2.07-11.88-.23-24.85-6.16-35.35-10-17.8-29.77-25.24-51.85-27.66-27.33-3-58.28,1.69-79,4l-2.07.22c-26.61,2.77-53-3.12-78.93-12-28-9.51-55.37-22.45-82-31.65q-3.75-1.3-7.48-2.49A383,383,0,0,0,370.2,54.88a389.121,389.121,0,0,0-86-3.32,381.525,381.525,0,0,0-43.38,5.64q-6.32,1.2-12.62,2.57c-24.42,5.23-48.71,11.62-73.62,12H149.2c-29.71-.51-60.09-8.06-88.28,1.06C48.1,77,35.81,85.2,30.65,97.64,27.78,104.57,27.32,112.3,28.19,119.74Z" transform="translate(-27.8 -50.55)" fill="#f44336"/>
    <path id="Path_691" data-name="Path 691" d="M65.61,220H91.28a34,34,0,0,1,22.34-30,24,24,0,1,1,23.15,0,34,34,0,0,1,22.34,30h.22a34,34,0,0,1,22.28-29,24,24,0,1,1,35.17-25.41,33.93,33.93,0,0,1,9.83-5.59,24,24,0,1,1,23.15,0,34,34,0,0,1,22.42,32v28h11V198a34,34,0,0,1,22.42-32,24,24,0,1,1,23.15,0,34.1,34.1,0,0,1,19.6,18.44A34.09,34.09,0,0,1,364.63,172a24,24,0,1,1,23.15,0,34.11,34.11,0,0,1,17.42,14.23V182a34,34,0,0,1,22.42-32,24,24,0,1,1,23.15,0,34,34,0,0,1,22.42,32v38h12a34.09,34.09,0,0,1,19.39-18,24,24,0,1,1,23.15,0,33.87,33.87,0,0,1,6.76,3.35A34,34,0,0,1,556.63,178a24,24,0,1,1,23.15,0,34.07,34.07,0,0,1,21,22.4A34,34,0,0,1,614.6,191a24,24,0,1,1,23.15,0,33.93,33.93,0,0,1,10.08,5.8,34.1,34.1,0,0,1,19.8-18.8,24,24,0,1,1,23.15,0,34,34,0,0,1,22.42,32v10h60.4a124.732,124.732,0,0,0,29.25,12.15c29.84,8.24,61.72,8.91,90.42,20.51,7.61,3.08,15.18,7.11,20.12,13.67,11.4,15.13,4.86,36.35,3.6,55.25A96.308,96.308,0,0,0,921.44,357H114.65c-26-22.76-46.46-49.13-49.87-82.81C63,256.24,66.5,237.94,65.61,220Z" transform="translate(-27.8 -50.55)" opacity="0.2"/>
    <path id="Path_692" data-name="Path 692" d="M993.9,76.97V464.96l-20-13V76.97h-12l-5,361.99-19-14,13-352.99" fill="none" stroke="#e0e0e0" stroke-miterlimit="10" stroke-width="1"/>
    <line id="Line_1" data-name="Line 1" x1="81" y2="4.5" transform="translate(937.91 104.97)" fill="none" stroke="#e0e0e0" stroke-miterlimit="10" stroke-width="1"/>
    <line id="Line_2" data-name="Line 2" x1="76" y2="3" transform="translate(937.91 124.97)" fill="none" stroke="#e0e0e0" stroke-miterlimit="10" stroke-width="1"/>
    <line id="Line_3" data-name="Line 3" x1="76" y2="2" transform="translate(937.91 148.97)" fill="none" stroke="#e0e0e0" stroke-miterlimit="10" stroke-width="1"/>
    <line id="Line_4" data-name="Line 4" x1="76" y2="3" transform="translate(937.91 170.97)" fill="none" stroke="#e0e0e0" stroke-miterlimit="10" stroke-width="1"/>
    <line id="Line_5" data-name="Line 5" x1="79" transform="translate(934.91 195.97)" fill="none" stroke="#e0e0e0" stroke-miterlimit="10" stroke-width="1"/>
    <line id="Line_6" data-name="Line 6" x1="81" y1="3" transform="translate(932.91 217.97)" fill="none" stroke="#e0e0e0" stroke-miterlimit="10" stroke-width="1"/>
    <line id="Line_7" data-name="Line 7" x1="81" y1="4" transform="translate(932.91 239.97)" fill="none" stroke="#e0e0e0" stroke-miterlimit="10" stroke-width="1"/>
    <line id="Line_8" data-name="Line 8" x1="81" y1="6" transform="translate(932.91 262.97)" fill="none" stroke="#e0e0e0" stroke-miterlimit="10" stroke-width="1"/>
    <line id="Line_9" data-name="Line 9" x1="86" y1="8" transform="translate(929.91 282.97)" fill="none" stroke="#e0e0e0" stroke-miterlimit="10" stroke-width="1"/>
    <line id="Line_10" data-name="Line 10" x1="86" y1="13" transform="translate(929.91 302.97)" fill="none" stroke="#e0e0e0" stroke-miterlimit="10" stroke-width="1"/>
    <line id="Line_11" data-name="Line 11" x1="89" y1="16" transform="translate(926.91 328.97)" fill="none" stroke="#e0e0e0" stroke-miterlimit="10" stroke-width="1"/>
    <line id="Line_12" data-name="Line 12" x1="89" y1="26" transform="translate(926.91 351.97)" fill="none" stroke="#e0e0e0" stroke-miterlimit="10" stroke-width="1"/>
    <line id="Line_13" data-name="Line 13" x1="94" y1="37" transform="translate(923.91 374.97)" fill="none" stroke="#e0e0e0" stroke-miterlimit="10" stroke-width="1"/>
    <line id="Line_14" data-name="Line 14" x1="94" y1="46" transform="translate(923.91 396.97)" fill="none" stroke="#e0e0e0" stroke-miterlimit="10" stroke-width="1"/>
    <path id="Path_693" data-name="Path 693" d="M915.9,75.97l-16,340.99h-21l13-340.99h-23l-15,340.99h-23l13-340.99h-28l-10,340.99h-25l11-337.99h-26l-6,337.99h-23l7-340.99h-23l-5,340.99h-22l5-340.99h-26V416.96h-26V75.97h-24l4,340.99h-21l-6-340.99h-24l8,340.99h-21l-10-340.99h-21l8,340.99h-19l-15-340.99h-20l16,340.99h-20l-22-340.99h-24l28,340.99h-19l-27-340.99h-19l28,340.99h-21l-27-344.99h-19l31,344.99h-20l-32-344.99" fill="none" stroke="#e0e0e0" stroke-miterlimit="10" stroke-width="1"/>
    <path id="Path_694" data-name="Path 694" d="M293.9,76.97l30,345.99-15,12-23-357.99h-16l16,370.99-23,15L253.91,71.97" fill="none" stroke="#e0e0e0" stroke-miterlimit="10" stroke-width="1"/>
    <line id="Line_15" data-name="Line 15" x2="92" transform="translate(231.91 115.97)" fill="none" stroke="#e0e0e0" stroke-miterlimit="10" stroke-width="1"/>
    <line id="Line_16" data-name="Line 16" x2="92" transform="translate(231.91 140.97)" fill="none" stroke="#e0e0e0" stroke-miterlimit="10" stroke-width="1"/>
    <line id="Line_17" data-name="Line 17" y1="3" x2="92" transform="translate(231.91 165.97)" fill="none" stroke="#e0e0e0" stroke-miterlimit="10" stroke-width="1"/>
    <line id="Line_18" data-name="Line 18" y1="5" x2="96" transform="translate(231.91 187.97)" fill="none" stroke="#e0e0e0" stroke-miterlimit="10" stroke-width="1"/>
    <line id="Line_19" data-name="Line 19" y1="4" x2="96" transform="translate(231.91 215.97)" fill="none" stroke="#e0e0e0" stroke-miterlimit="10" stroke-width="1"/>
    <line id="Line_20" data-name="Line 20" y1="5" x2="100" transform="translate(231.91 243.97)" fill="none" stroke="#e0e0e0" stroke-miterlimit="10" stroke-width="1"/>
    <line id="Line_21" data-name="Line 21" y1="10" x2="100" transform="translate(231.91 266.97)" fill="none" stroke="#e0e0e0" stroke-miterlimit="10" stroke-width="1"/>
    <line id="Line_22" data-name="Line 22" y1="24" x2="100" transform="translate(231.91 284.97)" fill="none" stroke="#e0e0e0" stroke-miterlimit="10" stroke-width="1"/>
    <line id="Line_23" data-name="Line 23" y1="35" x2="104" transform="translate(231.91 301.97)" fill="none" stroke="#e0e0e0" stroke-miterlimit="10" stroke-width="1"/>
    <line id="Line_24" data-name="Line 24" y1="40" x2="104" transform="translate(231.91 325.97)" fill="none" stroke="#e0e0e0" stroke-miterlimit="10" stroke-width="1"/>
    <line id="Line_25" data-name="Line 25" y1="43.45" x2="103.53" transform="translate(228.91 350.52)" fill="none" stroke="#e0e0e0" stroke-miterlimit="10" stroke-width="1"/>
    <line id="Line_26" data-name="Line 26" y1="54" x2="107" transform="translate(228.91 371.97)" fill="none" stroke="#e0e0e0" stroke-miterlimit="10" stroke-width="1"/>
    <line id="Line_27" data-name="Line 27" y1="61" x2="110" transform="translate(228.91 393.97)" fill="none" stroke="#e0e0e0" stroke-miterlimit="10" stroke-width="1"/>
    <line id="Line_28" data-name="Line 28" x1="614" y2="5" transform="translate(323.91 104.97)" fill="none" stroke="#e0e0e0" stroke-miterlimit="10" stroke-width="1"/>
    <line id="Line_29" data-name="Line 29" x1="614" y2="5" transform="translate(323.41 122.97)" fill="none" stroke="#e0e0e0" stroke-miterlimit="10" stroke-width="1"/>
    <line id="Line_30" data-name="Line 30" x1="614" y2="5" transform="translate(322.91 140.97)" fill="none" stroke="#e0e0e0" stroke-miterlimit="10" stroke-width="1"/>
    <line id="Line_31" data-name="Line 31" x1="614" y2="5" transform="translate(322.41 158.97)" fill="none" stroke="#e0e0e0" stroke-miterlimit="10" stroke-width="1"/>
    <line id="Line_32" data-name="Line 32" x1="614" y2="5" transform="translate(321.91 176.97)" fill="none" stroke="#e0e0e0" stroke-miterlimit="10" stroke-width="1"/>
    <line id="Line_33" data-name="Line 33" x1="606" y2="5" transform="translate(329.41 194.97)" fill="none" stroke="#e0e0e0" stroke-miterlimit="10" stroke-width="1"/>
    <line id="Line_34" data-name="Line 34" x1="606" y2="5" transform="translate(328.91 212.97)" fill="none" stroke="#e0e0e0" stroke-miterlimit="10" stroke-width="1"/>
    <line id="Line_35" data-name="Line 35" x1="606" y2="5" transform="translate(328.41 230.97)" fill="none" stroke="#e0e0e0" stroke-miterlimit="10" stroke-width="1"/>
    <line id="Line_36" data-name="Line 36" x1="606" y2="5" transform="translate(327.91 248.97)" fill="none" stroke="#e0e0e0" stroke-miterlimit="10" stroke-width="1"/>
    <line id="Line_37" data-name="Line 37" x1="600" y2="5" transform="translate(333.41 266.97)" fill="none" stroke="#e0e0e0" stroke-miterlimit="10" stroke-width="1"/>
    <line id="Line_38" data-name="Line 38" x1="600" y2="5" transform="translate(332.91 284.97)" fill="none" stroke="#e0e0e0" stroke-miterlimit="10" stroke-width="1"/>
    <line id="Line_39" data-name="Line 39" x1="600" y2="5" transform="translate(332.41 302.97)" fill="none" stroke="#e0e0e0" stroke-miterlimit="10" stroke-width="1"/>
    <line id="Line_40" data-name="Line 40" x1="596" y2="5" transform="translate(335.91 320.97)" fill="none" stroke="#e0e0e0" stroke-miterlimit="10" stroke-width="1"/>
    <line id="Line_41" data-name="Line 41" x1="596" y2="5" transform="translate(335.41 338.97)" fill="none" stroke="#e0e0e0" stroke-miterlimit="10" stroke-width="1"/>
    <line id="Line_42" data-name="Line 42" x1="593" y2="5" transform="translate(337.91 356.97)" fill="none" stroke="#e0e0e0" stroke-miterlimit="10" stroke-width="1"/>
    <line id="Line_43" data-name="Line 43" x1="593" y2="5" transform="translate(337.41 374.97)" fill="none" stroke="#e0e0e0" stroke-miterlimit="10" stroke-width="1"/>
    <line id="Line_44" data-name="Line 44" x1="593" y2="5" transform="translate(336.91 392.97)" fill="none" stroke="#e0e0e0" stroke-miterlimit="10" stroke-width="1"/>
    <path id="Path_695" data-name="Path 695" d="M1017.9,481.96l-91-65h-591l-103.99,65" fill="none" stroke="#e0e0e0" stroke-miterlimit="10" stroke-width="3"/>
    <path id="Path_696" data-name="Path 696" d="M1051.35,462.18s2.31-68.26,39.23-106.81a103.48,103.48,0,0,0,28.38-59,174,174,0,0,0,.87-31.81" transform="translate(-27.8 -50.55)" fill="none" stroke="#535461" stroke-miterlimit="10" stroke-width="2"/>
    <path id="Path_697" data-name="Path 697" d="M1142.95,240.13c-2.53,7.62-23.65,25.14-23.65,25.14s-6.47-26.68-3.94-34.3a14.539,14.539,0,1,1,27.6,9.15Z" transform="translate(-27.8 -50.55)" fill="#f44336"/>
    <path id="Path_698" data-name="Path 698" d="M1151.76,289.91c-6.26,5-33.52,8.25-33.52,8.25s9.07-25.91,15.33-30.93a14.538,14.538,0,1,1,18.192,22.683Z" transform="translate(-27.8 -50.55)" fill="#f44336"/>
    <path id="Path_699" data-name="Path 699" d="M1126.84,361.72c-7.94,1.17-33.1-9.8-33.1-9.8s20.91-17.79,28.85-19a14.54,14.54,0,0,1,4.25,28.76Z" transform="translate(-27.8 -50.55)" fill="#f44336"/>
    <path id="Path_700" data-name="Path 700" d="M1095.75,411.8c-7.63,2.5-34.28-4.07-34.28-4.07s17.6-21.06,25.23-23.57a14.539,14.539,0,1,1,9.051,27.633Z" transform="translate(-27.8 -50.55)" fill="#f44336"/>
    <path id="Path_701" data-name="Path 701" d="M1088.77,290c3.71,7.12,27.35,21.07,27.35,21.07s2.15-27.36-1.55-34.49a14.541,14.541,0,0,0-25.8,13.42Z" transform="translate(-27.8 -50.55)" fill="#f44336"/>
    <path id="Path_702" data-name="Path 702" d="M1053.16,349.06c5.67,5.69,32.4,11.92,32.4,11.92s-6.13-26.75-11.8-32.44a14.539,14.539,0,1,0-20.6,20.521Z" transform="translate(-27.8 -50.55)" fill="#f44336"/>
    <path id="Path_703" data-name="Path 703" d="M1026.42,411.19c4.62,6.56,29.92,17.22,29.92,17.22s-1.52-27.41-6.15-34a14.54,14.54,0,1,0-23.771,16.75Z" transform="translate(-27.8 -50.55)" fill="#f44336"/>
    <path id="Path_704" data-name="Path 704" d="M1066.35,523.18s2.31-68.26,39.23-106.81a103.48,103.48,0,0,0,28.38-59,174,174,0,0,0,.87-31.81" transform="translate(-27.8 -50.55)" fill="none" stroke="#535461" stroke-miterlimit="10" stroke-width="2"/>
    <path id="Path_705" data-name="Path 705" d="M1157.95,301.13c-2.53,7.62-23.65,25.14-23.65,25.14s-6.47-26.68-3.94-34.3a14.539,14.539,0,1,1,27.6,9.15Z" transform="translate(-27.8 -50.55)" fill="#f44336"/>
    <path id="Path_706" data-name="Path 706" d="M1166.76,350.91c-6.26,5-33.52,8.25-33.52,8.25s9.07-25.91,15.33-30.93a14.538,14.538,0,1,1,18.192,22.683Z" transform="translate(-27.8 -50.55)" fill="#f44336"/>
    <path id="Path_707" data-name="Path 707" d="M1141.84,422.72c-7.94,1.17-33.1-9.8-33.1-9.8s20.91-17.79,28.85-19a14.54,14.54,0,0,1,4.25,28.76Z" transform="translate(-27.8 -50.55)" fill="#f44336"/>
    <path id="Path_708" data-name="Path 708" d="M1110.75,472.8c-7.63,2.5-34.28-4.07-34.28-4.07s17.6-21.06,25.23-23.57a14.539,14.539,0,1,1,9.051,27.633Z" transform="translate(-27.8 -50.55)" fill="#f44336"/>
    <path id="Path_709" data-name="Path 709" d="M1103.77,351c3.71,7.12,27.35,21.07,27.35,21.07s2.15-27.36-1.55-34.49a14.541,14.541,0,0,0-25.8,13.42Z" transform="translate(-27.8 -50.55)" fill="#f44336"/>
    <path id="Path_710" data-name="Path 710" d="M1068.16,410.06c5.67,5.69,32.4,11.92,32.4,11.92s-6.13-26.75-11.8-32.44a14.539,14.539,0,1,0-20.6,20.521Z" transform="translate(-27.8 -50.55)" fill="#f44336"/>
    <path id="Path_711" data-name="Path 711" d="M1041.42,472.19c4.62,6.56,29.92,17.22,29.92,17.22s-1.52-27.41-6.15-34a14.54,14.54,0,1,0-23.771,16.75Z" transform="translate(-27.8 -50.55)" fill="#f44336"/>
    <path id="Path_712" data-name="Path 712" d="M245.2,158.35c.49-19.35,13.89-36.35,32.8-40.5l.54-.11a11.42,11.42,0,0,1,2.32-.22h748.4a32,32,0,0,1,27.57,15.32l.19.33a13.12,13.12,0,0,1,1.72,6.33l6.95,393h-24l-8-384s0-11-10-12c-1.53-.15-20.09-.26-50.41-.33L955.7,468.51h-10l19.55-332.35c-133.3-.26-459.57.07-611,.25l19.42,330.1h-10L346.23,136.42l-57.64.07a24.21,24.21,0,0,0-20.89,12l-8,384h-24Z" transform="translate(-27.8 -50.55)" fill="#e0e0e0"/>
    <path id="Path_713" data-name="Path 713" d="M235.57,540.6s-3.24-52.86,22.43-85.34a80.24,80.24,0,0,0,17.57-47.62A135,135,0,0,0,273.89,383" transform="translate(-27.8 -50.55)" fill="none" stroke="#535461" stroke-miterlimit="10" stroke-width="2"/>
    <path id="Path_714" data-name="Path 714" d="M289.95,362.46c-1.39,6.07-16.41,21.15-16.41,21.15s-7-20.12-5.57-26.18a11.281,11.281,0,1,1,22,5Z" transform="translate(-27.8 -50.55)" fill="#f44336"/>
    <path id="Path_715" data-name="Path 715" d="M300.41,400.24c-4.47,4.34-25.27,8.84-25.27,8.84s5.09-20.67,9.56-25a11.272,11.272,0,1,1,15.71,16.17Z" transform="translate(-27.8 -50.55)" fill="#f44336"/>
    <path id="Path_716" data-name="Path 716" d="M286.46,457.5c-6,1.49-26.27-5.13-26.27-5.13S275,437.1,281.06,435.61a11.273,11.273,0,0,1,5.4,21.89Z" transform="translate(-27.8 -50.55)" fill="#f44336"/>
    <path id="Path_717" data-name="Path 717" d="M266.14,498.45c-5.71,2.49-26.76-.62-26.76-.62s12-17.56,17.74-20a11.269,11.269,0,1,1,9,20.662Z" transform="translate(-27.8 -50.55)" fill="#f44336"/>
    <path id="Path_718" data-name="Path 718" d="M251.8,405c3.38,5.23,22.66,14.25,22.66,14.25s-.35-21.28-3.74-26.51A11.272,11.272,0,1,0,251.8,405Z" transform="translate(-27.8 -50.55)" fill="#f44336"/>
    <path id="Path_719" data-name="Path 719" d="M228.65,453.15c4.79,4,25.89,6.82,25.89,6.82s-6.7-20.2-11.5-24.18a11.274,11.274,0,1,0-14.39,17.36Z" transform="translate(-27.8 -50.55)" fill="#f44336"/>
    <path id="Path_720" data-name="Path 720" d="M212.58,503.08c4.05,4.73,24.36,11.1,24.36,11.1s-3.19-21-7.25-25.77a11.276,11.276,0,1,0-17.12,14.68Z" transform="translate(-27.8 -50.55)" fill="#f44336"/>
    <path id="Path_721" data-name="Path 721" d="M289.95,362.46c-1.39,6.07-16.41,21.15-16.41,21.15s-7-20.12-5.57-26.18a11.281,11.281,0,1,1,22,5Z" transform="translate(-27.8 -50.55)" fill="#fff" opacity="0.5"/>
    <path id="Path_722" data-name="Path 722" d="M300.41,400.24c-4.47,4.34-25.27,8.84-25.27,8.84s5.09-20.67,9.56-25a11.272,11.272,0,1,1,15.71,16.17Z" transform="translate(-27.8 -50.55)" fill="#fff" opacity="0.5"/>
    <path id="Path_723" data-name="Path 723" d="M286.46,457.5c-6,1.49-26.27-5.13-26.27-5.13S275,437.1,281.06,435.61a11.273,11.273,0,0,1,5.4,21.89Z" transform="translate(-27.8 -50.55)" fill="#fff" opacity="0.5"/>
    <path id="Path_724" data-name="Path 724" d="M266.14,498.45c-5.71,2.49-26.76-.62-26.76-.62s12-17.56,17.74-20a11.269,11.269,0,1,1,9,20.662Z" transform="translate(-27.8 -50.55)" fill="#fff" opacity="0.5"/>
    <path id="Path_725" data-name="Path 725" d="M251.8,405c3.38,5.23,22.66,14.25,22.66,14.25s-.35-21.28-3.74-26.51A11.272,11.272,0,1,0,251.8,405Z" transform="translate(-27.8 -50.55)" fill="#fff" opacity="0.5"/>
    <path id="Path_726" data-name="Path 726" d="M228.65,453.15c4.79,4,25.89,6.82,25.89,6.82s-6.7-20.2-11.5-24.18a11.274,11.274,0,1,0-14.39,17.36Z" transform="translate(-27.8 -50.55)" fill="#fff" opacity="0.5"/>
    <path id="Path_727" data-name="Path 727" d="M212.58,503.08c4.05,4.73,24.36,11.1,24.36,11.1s-3.19-21-7.25-25.77a11.276,11.276,0,1,0-17.12,14.68Z" transform="translate(-27.8 -50.55)" fill="#fff" opacity="0.5"/>
    <g id="Group_62" data-name="Group 62" opacity="0.1">
      <path id="Path_728" data-name="Path 728" d="M410,337.35a2.542,2.542,0,0,1-.18-.25Z" transform="translate(-27.8 -50.55)" fill="url(#linear-gradient)"/>
    </g>
    <path id="Path_729" data-name="Path 729" d="M575.34,351c-.19,6.37,3.76,8.76,3.76,8.76L616,392.44c14.24,5.16,16,32.23,16,32.23,1.4,2.5,2,6.84,2,12-.17,16-4.69,38.3-4.69,38.3l.13.21-.13.65.13.21-.13.65A39.529,39.529,0,0,0,631.6,480c-4,8.19-11.45,21.37-14.67,24.18-4.45,3.87-13.35,32.66-13.35,32.66l.29-.07-.29.93h.19c-2.16,4.17-4.36,9.55-4.83,14.86a45.061,45.061,0,0,1-2.15,10.23,20.15,20.15,0,0,0-.33,11.93,51.641,51.641,0,0,1,1.74,9.59,60,60,0,0,0,4.55,18.15c4.07,9.67,9.46,22.88,9.74,25.54.15,1.44.5,3.56.9,5.75l-.23.06-9.57,21.7s-2.67,6-8,6a3.67,3.67,0,0,0-3.67,4.09,3.71,3.71,0,0,0,.23,1.78h0v.06c0,.1.09.2.13.3l.09.17a2.285,2.285,0,0,0,.18.29l.12.17.22.27.15.17.26.26.18.17.3.24.22.16.35.22.26.16.39.2.3.15.43.18.34.14.48.16.38.12.54.13.43.1.59.1.47.08.65.07.51.06h4.11a10.152,10.152,0,0,0,1.59-.13c17.36-1.72,30.26-15,30.26-15v-.5h0v-.25l.06-.07s-1.12-17.29-7.47-21.2a53.236,53.236,0,0,1-1-9.75c0-12,3.56-24.07-6.23-43.84,0,0-.45-5.16,3.12-12.89a127.994,127.994,0,0,1,6.94-12.06l.44-.05-.71.94s11.57-.86,12.46-8.6a9.365,9.365,0,0,1,.45-1.89c2.68-7.78,15.62-18.81,21.36-19.6,6.23-.86,18.69,13.75,23.59,24.07.28.59.57,1.15.86,1.66,4.78,8.41,10.71,6.51,10.71,6.51-.21-.25-.39-.49-.58-.74a3.905,3.905,0,0,0,.58-.12,19.82,19.82,0,0,1-1.45-2c4.45,4.82,9.18,9.26,11.24,11.85,4.45,5.59,2.23,9.45,2.23,11.17,0,7.75-10.24,30.51-7.57,43,1.32,6.17-.19,13.39-2.06,19.11h-.39c-7.57,2.86-8.45,13.12-8.39,18.28v.47h0v2.16h0v1.2s21.36,9.45,39.61,12c.64.09,1.25.16,1.84.21h.54l1.15.07h2.06a4.1,4.1,0,0,0,1-.08h.32q.62-.08,1.17-.2l.24-.06c.28-.07.54-.13.79-.21l.33-.11.59-.23.3-.14c.18-.09.35-.18.52-.28L745,674a5.821,5.821,0,0,0,.58-.43h0a5,5,0,0,0,.51-.51l.13-.16a4.527,4.527,0,0,0,.28-.38l.12-.2a3.373,3.373,0,0,0,.19-.38l.09-.2a4.275,4.275,0,0,0,.14-.44v-.15a4.435,4.435,0,0,0,.09-.59v-.11a4.682,4.682,0,0,0,0-.48c0-.06,0-.13,0-.19h0c.26-2.64-1.83-5.27-3.92-4.87-4.45.86-10.24-4.3-10.24-4.3L720.8,640.73c-.19-4.65.33-10.56,3.27-15.36,5.79-9.45,12.91-29.65,12.91-29.65s-.89-12.46,2.67-18.48,0-15.47,0-15.47l-10.89-21h2l-.39-.86h.39s-13.35-29.65-18.69-33.09c-3.81-2.45-9.19-16.25-12-24,1.12-.59,1.74-1,1.74-1s3.12-37.39,3.12-61,16-33.09,16-33.09L758,365.79c9.79-3.87,11.13-13.75,11.13-13.75l-.11-.28c.08-.37.11-.58.11-.58l-.11-.28c.08-.37.11-.58.11-.58l-17.8-45.55c0,.14-.11.26-.16.39-1.26-7.85-5.15-20.14-17.2-21-17.8-1.29-24,7.74-20.47,8.6s18.69,6.88,18.69,6.88l6,9.67c-.39-.13-.61-.22-.61-.22a2.1,2.1,0,0,1,.87.63l.4.64c-.78-.22-1.26-.41-1.26-.41a1.653,1.653,0,0,1,.31.17,1.909,1.909,0,0,1,.25.16,2.874,2.874,0,0,1,.23.23,3.388,3.388,0,0,1,.23.25c.08.1.15.21.23.32l.12.18a14.251,14.251,0,0,1-1.36-.44c4.66,1.5,6.61,29.77,7,37l-23.05,10.27s-23.14,0-32.93,5.59c-8.59,4.9-12.73.87-13.61-.19q.9,1.15,1.59,2.22h0l-.25-.17-.23-.16-.19-.15-.21-.18-.07-.06a36.249,36.249,0,0,1-3.94-12.16,20.27,20.27,0,0,0-.32-16.4,5,5,0,0,0,1.22.63,18.818,18.818,0,0,1-2-6c-.22-2.35.45-4.85-.55-7a5.4,5.4,0,0,0-.36-.63.284.284,0,0,0-.08-.23c-1-2.18-3.45-3.38-5-5.28-1-1.28-1.57-2.84-2.53-4.16a9.24,9.24,0,0,0-10.57-2.94c-1.46.59-2.82,1.58-4.4,1.61a9.889,9.889,0,0,1-2.41-.42,19,19,0,0,0-14.2,2.66,25.7,25.7,0,0,0-9.32,11,22,22,0,0,0-2.08,7,62.3,62.3,0,0,0,.12,7.65c.09,4.19-.53,8.59,1.26,12.4.11.24.25.45.37.68a.2.2,0,0,0,.07.18c1.7,3.63,5.26,6,8.67,8.29l4.41,2.91.5.33a24.14,24.14,0,0,0-3.8-.08c-6.68.43-20-6-20-6l-13.9-12.58,6.78-27.82-.26.19.26-1.05-.26.19.26-1.05c-.13.1-.25.19-.38.28l7.05-11.46s15.13-6,18.69-6.88-2.67-9.88-20.47-8.6c-13.1.95-16.56,15.39-17.47,23-.77-.85-1.22-1.47-1.22-1.47L577.31,341.3a21.059,21.059,0,0,0-2,8.86C575.33,350.45,575.33,350.74,575.34,351ZM676.2,366l.36.54h0Zm-35.67.12a5.92,5.92,0,0,0,2.57-1.7,22.2,22.2,0,0,0,3.44,1,14.359,14.359,0,0,1-1.33,3.13c-.17-.67-.25-1.08-.25-1.08a42.213,42.213,0,0,0-4.43-1.36ZM633,553.22c1-1.61,2-3.18,3-4.66A43.266,43.266,0,0,1,633,553.22Z" transform="translate(-27.8 -50.55)" fill="url(#linear-gradient-2)"/>
    <path id="Path_730" data-name="Path 730" d="M723.88,535.33l12.75,25.5s3.4,9.35,0,15.3-2.55,18.28-2.55,18.28-6.8,20-12.33,29.33-2.13,23-2.13,23l-22.1,2.55s8.5-16.58,6-28.91,7.23-34.84,7.23-42.51c0-1.7,2.13-5.53-2.13-11.05s-20.4-19.55-20-27.63Z" transform="translate(-27.8 -50.55)" fill="#f7bbc3"/>
    <path id="Path_731" data-name="Path 731" d="M611.24,529.38s-8.16,11.3-9.11,22.3a46,46,0,0,1-2,10.11,20.6,20.6,0,0,0-.32,11.8,52.737,52.737,0,0,1,1.66,9.49,61.119,61.119,0,0,0,4.34,18c3.89,9.57,9,22.63,9.3,25.26.43,4.25,2.55,14.45,2.55,14.45l17,6.38s-5.1-12.33-5.1-24.23,3.4-23.8-6-43.36c0,0-.43-5.1,3-12.75s16.58-27.63,16.58-27.63Z" transform="translate(-27.8 -50.55)" fill="#f7bbc3"/>
    <path id="Path_732" data-name="Path 732" d="M638.72,544.54c1.4,1.52-5.81,11.2-5.81,11.2s11.05-.85,11.9-8.5a9.542,9.542,0,0,1,.43-1.87c2.56-7.69,14.92-18.6,20.4-19.38,6-.85,17.85,13.6,22.53,23.8.27.59.54,1.13.82,1.64,4.57,8.32,10.23,6.44,10.23,6.44-3-3.7-3.62-6.63-2.68-9,3.72-9.17,31.58-8.9,31.58-8.9s-12.75-29.33-17.85-32.73-13.18-28.91-13.18-28.91-60.79-6.8-61.21-3.83-12.33,26.36-16.58,30.18S606.56,537,606.56,537c14.45-4.25,30.39,6.16,32.09,7.44Z" transform="translate(-27.8 -50.55)" opacity="0.1"/>
    <path id="Path_733" data-name="Path 733" d="M638.72,543.69c1.4,1.52-5.81,11.2-5.81,11.2s11.05-.85,11.9-8.5a9.542,9.542,0,0,1,.43-1.87c2.56-7.69,14.92-18.6,20.4-19.38,6-.85,17.85,13.6,22.53,23.8.27.59.54,1.13.82,1.64,4.57,8.32,10.23,6.44,10.23,6.44-3-3.7-3.62-6.63-2.68-9,3.72-9.17,31.58-8.9,31.58-8.9s-12.75-29.33-17.85-32.73-13.18-28.91-13.18-28.91-60.79-6.8-61.21-3.83-12.33,26.36-16.58,30.18-12.75,32.31-12.75,32.31c14.45-4.25,30.39,6.16,32.09,7.44Z" transform="translate(-27.8 -50.55)" fill="#565171"/>
    <path id="Path_734" data-name="Path 734" d="M718.57,638.84l11.69,19.77s5.53,5.1,9.78,4.25,8.5,11.9-8.93,9.35-37.83-11.9-37.83-11.9-1.91-17.22,7.86-21Z" transform="translate(-27.8 -50.55)" opacity="0.1"/>
    <path id="Path_735" data-name="Path 735" d="M615.7,632l-9.14,21.47s-2.55,6-7.65,6-6.8,10.63,9.78,8.93,28.91-14.88,28.91-14.88-1.28-20.4-8.93-21.68A32.611,32.611,0,0,0,615.7,632Z" transform="translate(-27.8 -50.55)" opacity="0.1"/>
    <path id="Path_736" data-name="Path 736" d="M718.57,639.69l11.69,19.77s5.53,5.1,9.78,4.25,8.5,11.9-8.93,9.35-37.83-11.9-37.83-11.9-1.91-17.22,7.86-21Z" transform="translate(-27.8 -50.55)" fill="#b77983"/>
    <path id="Path_737" data-name="Path 737" d="M615.7,632.89l-9.14,21.47s-2.55,6-7.65,6-6.8,10.63,9.78,8.93,28.91-14.88,28.91-14.88-1.28-20.4-8.93-21.68A32.609,32.609,0,0,0,615.7,632.89Z" transform="translate(-27.8 -50.55)" fill="#b77983"/>
    <g id="Group_63" data-name="Group 63" opacity="0.1">
      <path id="Path_738" data-name="Path 738" d="M638,473.7c-.43,3-12.33,26.36-16.58,30.18-3.9,3.51-11.39,27.82-12.59,31.76-.77.15-1.53.32-2.29.54,0,0,8.5-28.48,12.75-32.31s16.15-27.21,16.58-30.18c.08-.59,2.57-.8,6.48-.74C639.71,473,638.08,473.22,638,473.7Z" transform="translate(-27.8 -50.55)"/>
      <path id="Path_739" data-name="Path 739" d="M667.77,525.13c6-.85,17.85,13.6,22.53,23.8.27.59.54,1.13.82,1.64,2.64,4.8,5.63,6.2,7.7,6.53-1.37.25-6,.46-9.83-6.53-.28-.51-.55-1.05-.82-1.64-4.29-9.36-14.65-22.28-20.93-23.7Z" transform="translate(-27.8 -50.55)"/>
      <path id="Path_740" data-name="Path 740" d="M638.72,543.69l-.07-.07c-1.37-1-12-8-23.65-8.43,12.45-.43,24.32,7.34,25.78,8.43l.07.07c1.23,1.34-4.19,9-5.52,10.8a19.374,19.374,0,0,1-2.41.39S640.12,545.21,638.72,543.69Z" transform="translate(-27.8 -50.55)"/>
    </g>
    <path id="Path_741" data-name="Path 741" d="M748.11,313.44s0-25.93-17-27.21-23,7.65-19.55,8.5,17.85,6.8,17.85,6.8l9.35,15.73Z" transform="translate(-27.8 -50.55)" fill="#f7bbc3"/>
    <path id="Path_742" data-name="Path 742" d="M594.23,319.39s0-25.93,17-27.21,23,7.65,19.55,8.5-17.85,6.8-17.85,6.8l-9.35,15.73Z" transform="translate(-27.8 -50.55)" fill="#f7bbc3"/>
    <path id="Path_743" data-name="Path 743" d="M671.17,346.17s-1.28,17,9.35,26.78-24.65,22.1-24.65,22.1l-15.73-18.7s12.75-7.65,6-20.83Z" transform="translate(-27.8 -50.55)" fill="#f7bbc3"/>
    <path id="Path_744" data-name="Path 744" d="M674.57,366.15s3.83,6,13.18.43S719.21,361,719.21,361l22.1-10.2s-1.7-36.56-6.8-38.26c0,0,10.2,4.25,13.18-4.25l17,45.06s-1.28,9.78-10.63,13.6l-35.28,21.68s-15.3,9.35-15.3,32.73-3,60.36-3,60.36-49.31,29.76-69.29-5.1c0,0,8.08-41.23,2.55-51.44,0,0-1.7-26.78-15.3-31.88L583.18,361s-6.8-4.25-1.7-16.58l11.9-29.33s7.23,10.2,13.18,5.1l-6.8,28.91,13.6,12.75s12.75,6.38,19.13,6,13.6,2.55,13.6,2.55,3,17,16.58,15.3C662.67,385.7,688.6,384.43,674.57,366.15Z" transform="translate(-27.8 -50.55)" opacity="0.1"/>
    <path id="Path_745" data-name="Path 745" d="M674.57,364.45s3.83,6,13.18.43,31.46-5.53,31.46-5.53l22.1-10.2s-1.7-36.56-6.8-38.26c0,0,10.2,4.25,13.18-4.25l17,45.06s-1.28,9.78-10.63,13.6L718.78,387s-15.3,9.35-15.3,32.73-3,60.36-3,60.36-49.31,29.76-69.29-5.1c0,0,8.08-41.23,2.55-51.44,0,0-1.7-26.78-15.3-31.88l-35.28-32.31s-6.8-4.25-1.7-16.58l11.9-29.33s7.23,10.2,13.18,5.1l-6.8,28.91,13.6,12.75s12.75,6.38,19.13,6,13.6,2.55,13.6,2.55,3,17,16.58,15.3C662.67,384,688.6,382.73,674.57,364.45Z" transform="translate(-27.8 -50.55)" opacity="0.1"/>
    <path id="Path_746" data-name="Path 746" d="M674.59,365.33l.17.23Z" transform="translate(-27.8 -50.55)" fill="#d39999"/>
    <path id="Path_747" data-name="Path 747" d="M583.18,360.2l35.28,32.31c13.6,5.1,15.3,31.88,15.3,31.88,5.53,10.2-2.55,51.44-2.55,51.44,20,34.86,69.29,5.1,69.29,5.1s.1-1.22.26-3.37c.14-1.88.33-4.48.54-7.57.28-4,.6-8.83.9-14.07.67-11.45,1.28-24.79,1.28-35.35,0-23.38,15.3-32.73,15.3-32.73l26.47-16.26,8.82-5.42c9.35-3.83,10.63-13.6,10.63-13.6l-17-45.06c-2.78,7.94-11.87,4.75-13.05,4.3,5,2.26,6.67,38.21,6.67,38.21l-22.1,10.2s-22.1,0-31.46,5.53c-8,4.7-11.91,1.1-12.91-.09,13.44,18-12.17,19.21-12.17,19.21-13.6,1.7-16.58-15.3-16.58-15.3s-7.23-3-13.6-2.55-19.13-6-19.13-6l-13.6-12.75,6.8-28.91c-6,5.1-13.18-5.1-13.18-5.1l-11.9,29.33C576.38,355.95,583.18,360.2,583.18,360.2Z" transform="translate(-27.8 -50.55)" fill="#b45181"/>
    <path id="Path_748" data-name="Path 748" d="M671.17,347.87a40.884,40.884,0,0,0,.41,8,20.82,20.82,0,0,1-24,12.53,15,15,0,0,0-1.51-11.16Z" transform="translate(-27.8 -50.55)" opacity="0.1"/>
    <circle id="Ellipse_92" data-name="Ellipse 92" cx="20.83" cy="20.83" r="20.83" transform="translate(603.63 275.01)" fill="#f7bbc3"/>
    <path id="Path_749" data-name="Path 749" d="M652.59,334.54c.18,2.11.33,4.36-.64,6.24a11.3,11.3,0,0,1-2,2.56l-4.36,4.49a11.49,11.49,0,0,0-3.11,4.43c-1.26,4.2,2.46,8.37,2.34,12.76a5.68,5.68,0,0,1-6.44,2.38,11,11,0,0,1-2.69-1.49L631.42,363c-3.25-2.22-6.65-4.62-8.28-8.2-1.71-3.77-1.13-8.13-1.21-12.27a63.8,63.8,0,0,1-.11-7.57,22.3,22.3,0,0,1,2-6.94,25.21,25.21,0,0,1,8.9-10.83,17.65,17.65,0,0,1,13.56-2.63,9.146,9.146,0,0,0,2.3.41c1.51,0,2.81-1,4.2-1.59a8.64,8.64,0,0,1,10.09,2.91c.92,1.3,1.45,2.85,2.41,4.11,1.43,1.88,3.76,3.07,4.73,5.22s.32,4.61.53,6.93a19.079,19.079,0,0,0,1.89,5.95c-2.36-.82-3.51-3.4-5-5.38a13.25,13.25,0,0,0-9.75-4.94c-1.3-.06-3.71-.16-4.74.83C651.63,330.28,652.46,333,652.59,334.54Z" transform="translate(-27.8 -50.55)" opacity="0.1"/>
    <path id="Path_750" data-name="Path 750" d="M652.17,333.69c.18,2.11.33,4.36-.64,6.24a11.3,11.3,0,0,1-2,2.56L645.11,347a11.491,11.491,0,0,0-3.11,4.4c-1.26,4.2,2.46,8.37,2.34,12.76a5.68,5.68,0,0,1-6.44,2.38,11,11,0,0,1-2.69-1.49L631,362.18c-3.25-2.22-6.65-4.62-8.28-8.2-1.71-3.77-1.13-8.13-1.21-12.27a63.815,63.815,0,0,1-.11-7.57,22.3,22.3,0,0,1,2-6.94,25.21,25.21,0,0,1,8.9-10.83,17.65,17.65,0,0,1,13.56-2.63,9.151,9.151,0,0,0,2.3.41c1.51,0,2.81-1,4.2-1.59a8.64,8.64,0,0,1,10.09,2.91c.92,1.3,1.45,2.85,2.41,4.11,1.43,1.88,3.76,3.07,4.73,5.22s.32,4.61.53,6.93a19.079,19.079,0,0,0,1.89,5.95c-2.36-.82-3.51-3.4-5-5.38a13.25,13.25,0,0,0-9.75-4.94c-1.3-.06-3.71-.16-4.74.83C651.2,329.43,652,332.14,652.17,333.69Z" transform="translate(-27.8 -50.55)" fill="#74585e"/>
    <g id="Group_64" data-name="Group 64" opacity="0.1">
      <path id="Path_751" data-name="Path 751" d="M674.75,365.54c-.12-.15-.18-.24-.18-.24Z" transform="translate(-27.8 -50.55)"/>
      <path id="Path_752" data-name="Path 752" d="M602.77,320.81a5.47,5.47,0,0,0,3.79-1.42l-.41,1.72a6,6,0,0,1-3.38-.3Z" transform="translate(-27.8 -50.55)"/>
      <path id="Path_753" data-name="Path 753" d="M678.13,367.74c10.65,16.35-13.33,17.54-13.33,17.54a13.23,13.23,0,0,1-5.46-.39,14.207,14.207,0,0,0,3.33,0s25.7-1.27,12.08-19.32a6.92,6.92,0,0,0,3.38,2.17Z" transform="translate(-27.8 -50.55)"/>
      <path id="Path_754" data-name="Path 754" d="M634.62,367.43a17.929,17.929,0,0,1-5.11-.61,13.839,13.839,0,0,0,3,.19,27.881,27.881,0,0,1,7.87.79A25,25,0,0,0,634.62,367.43Z" transform="translate(-27.8 -50.55)"/>
      <path id="Path_755" data-name="Path 755" d="M581.48,343.62l11.9-29.33a21.717,21.717,0,0,0,1.54,1.87L583.61,344c-5.1,12.33,1.7,16.58,1.7,16.58l35.28,32.31c13.6,5.1,15.3,31.88,15.3,31.88,5.53,10.2-2.55,51.44-2.55,51.44,5.36,9.35,12.83,14,20.9,15.92-8.87-1.51-17.19-6.18-23-16.35,0,0,8.08-41.23,2.55-51.44,0,0-1.7-26.78-15.3-31.88L583.18,360.2S576.38,355.95,581.48,343.62Z" transform="translate(-27.8 -50.55)"/>
      <path id="Path_756" data-name="Path 756" d="M734.51,311.74a15.762,15.762,0,0,0,2.69.77c4.66,4.09,6.23,37.91,6.23,37.91l-22.1,10.2s-22.1,0-31.46,5.53c-4.58,2.71-7.83,2.66-10,1.91,2,.12,4.57-.41,7.83-2.33,9.35-5.53,31.46-5.53,31.46-5.53l22.1-10.2S739.61,313.44,734.51,311.74Z" transform="translate(-27.8 -50.55)"/>
      <path id="Path_757" data-name="Path 757" d="M738.22,312.68c3.23.42,7.67-.05,9.47-5.19l1,2.65C745.9,314.1,740.8,313.37,738.22,312.68Z" transform="translate(-27.8 -50.55)"/>
    </g>
    <path id="Path_758" data-name="Path 758" d="M702.2,455.91c.67-11.45,1.28-24.79,1.28-35.35,0-23.38,15.3-32.73,15.3-32.73l26.47-16.26c-15.4,4-35.89,10.89-37.73,19-3,13.18-8.5,14.45-6.38,37a254.891,254.891,0,0,1,1.06,28.34Z" transform="translate(-27.8 -50.55)" opacity="0.1"/>
    <path id="Path_759" data-name="Path 759" d="M698.16,488.36s-3.83,11.9,6.8,19.55" transform="translate(-27.8 -50.55)" opacity="0.1"/>
    <path id="Path_760" data-name="Path 760" d="M638.65,488.36s-1.28,8.93-6.38,12.33" transform="translate(-27.8 -50.55)" opacity="0.1"/>
    <path id="Path_761" data-name="Path 761" d="M693.28,659.46s20.4,9.35,37.83,11.9c8.84,1.29,12.1-1.35,12.61-4.15.58,3.27-2,7.41-12.61,5.85-17.43-2.55-37.83-11.9-37.83-11.9a35.988,35.988,0,0,1-.14-4.25C693.17,658.46,693.28,659.46,693.28,659.46Z" transform="translate(-27.8 -50.55)" opacity="0.1"/>
    <path id="Path_762" data-name="Path 762" d="M608.26,668.38c16.58-1.7,28.91-14.88,28.91-14.88s-.63-10.06-3.65-16.49c3.39,6.35,4.08,17.34,4.08,17.34s-12.33,13.18-28.91,14.88c-8.47.87-12.17-1.48-13.08-4C597,667.4,600.76,669.15,608.26,668.38Z" transform="translate(-27.8 -50.55)" opacity="0.1"/>
    <path id="Path_763" data-name="Path 763" d="M628.2,232.51a37.5,37.5,0,1,0,7.8-22.88,37.5,37.5,0,0,0-7.8,22.88Z" transform="translate(-27.8 -50.55)" fill="url(#linear-gradient-3)"/>
    <path id="Path_764" data-name="Path 764" d="M629.58,232.51a36.13,36.13,0,1,0,7.51-22,36.13,36.13,0,0,0-7.51,22Z" transform="translate(-27.8 -50.55)" fill="#e0e0e0"/>
    <line id="Line_45" data-name="Line 45" y2="14.02" transform="translate(617.66 164.21)" fill="none" stroke="#535461" stroke-miterlimit="10" stroke-width="1"/>
    <line id="Line_46" data-name="Line 46" x1="14.63" y2="9.66" transform="translate(629.81 176.98)" fill="none" stroke="#535461" stroke-miterlimit="10" stroke-width="1"/>
    <line id="Line_47" data-name="Line 47" x2="17.13" y2="7.16" transform="translate(629.81 155.5)" fill="none" stroke="#535461" stroke-miterlimit="10" stroke-width="1"/>
    <line id="Line_48" data-name="Line 48" x1="0.94" y2="21.8" transform="translate(657.52 179.47)" fill="none" stroke="#535461" stroke-miterlimit="10" stroke-width="1"/>
    <line id="Line_49" data-name="Line 49" x1="19.31" y1="9.65" transform="translate(627.63 198.16)" fill="none" stroke="#535461" stroke-miterlimit="10" stroke-width="1"/>
    <line id="Line_50" data-name="Line 50" y2="12.17" transform="translate(617.66 199.72)" fill="none" stroke="#535461" stroke-miterlimit="10" stroke-width="1"/>
    <line id="Line_51" data-name="Line 51" x1="8.42" y1="3.73" transform="translate(602.08 186.64)" fill="none" stroke="#535461" stroke-miterlimit="10" stroke-width="1"/>
    <line id="Line_52" data-name="Line 52" x1="0.64" y1="10.19" transform="translate(656.88 151.22)" fill="none" stroke="#535461" stroke-miterlimit="10" stroke-width="1"/>
    <line id="Line_53" data-name="Line 53" x2="10.44" y2="2.98" transform="translate(663.13 173.25)" fill="none" stroke="#535461" stroke-miterlimit="10" stroke-width="1"/>
    <path id="Path_765" data-name="Path 765" d="M665.93,173.25l-8.09-14.02-13.39,2.18v15.57l14.32,7.48Z" fill="#f44336"/>
    <path id="Path_766" data-name="Path 766" d="M637.09,210.47l8.38,4.29c2.8-3.74,14.32-8.1,14.32-8.1l-1.2-9.57a36.08,36.08,0,0,0-21.5,13.38Z" transform="translate(-27.8 -50.55)" fill="#f44336"/>
    <path id="Path_767" data-name="Path 767" d="M631.99,185.08l-14.64-6.85-8.1,11.52,8.41,13.39,14.33-2.18Z" fill="#f44336"/>
    <path id="Path_768" data-name="Path 768" d="M672.24,256.49V268a36.12,36.12,0,0,0,23.29-15.15l-10.21-4.19Z" transform="translate(-27.8 -50.55)" fill="#f44336"/>
    <path id="Path_769" data-name="Path 769" d="M136.3,498.11a31.46,31.46,0,1,0,6.53-19.19,31.46,31.46,0,0,0-6.53,19.19Z" transform="translate(-27.8 -50.55)" fill="url(#linear-gradient-4)"/>
    <path id="Path_770" data-name="Path 770" d="M137.46,498.11a30.3,30.3,0,1,0,6.29-18.49,30.3,30.3,0,0,0-6.29,18.49Z" transform="translate(-27.8 -50.55)" fill="#e0e0e0"/>
    <line id="Line_54" data-name="Line 54" y2="11.76" transform="translate(122.98 432.67)" fill="none" stroke="#535461" stroke-miterlimit="10" stroke-width="1"/>
    <line id="Line_55" data-name="Line 55" x1="12.28" y2="8.1" transform="translate(133.16 443.38)" fill="none" stroke="#535461" stroke-miterlimit="10" stroke-width="1"/>
    <line id="Line_56" data-name="Line 56" x2="14.37" y2="6.01" transform="translate(133.16 425.36)" fill="none" stroke="#535461" stroke-miterlimit="10" stroke-width="1"/>
    <line id="Line_57" data-name="Line 57" x1="0.78" y2="18.29" transform="translate(156.41 445.47)" fill="none" stroke="#535461" stroke-miterlimit="10" stroke-width="1"/>
    <line id="Line_58" data-name="Line 58" x1="16.2" y1="8.1" transform="translate(131.33 461.14)" fill="none" stroke="#535461" stroke-miterlimit="10" stroke-width="1"/>
    <line id="Line_59" data-name="Line 59" y2="10.21" transform="translate(122.98 462.45)" fill="none" stroke="#535461" stroke-miterlimit="10" stroke-width="1"/>
    <line id="Line_60" data-name="Line 60" x1="7.06" y1="3.13" transform="translate(109.91 451.48)" fill="none" stroke="#535461" stroke-miterlimit="10" stroke-width="1"/>
    <line id="Line_61" data-name="Line 61" x1="0.54" y1="8.54" transform="translate(155.87 421.78)" fill="none" stroke="#535461" stroke-miterlimit="10" stroke-width="1"/>
    <line id="Line_62" data-name="Line 62" x2="8.76" y2="2.5" transform="translate(161.11 440.25)" fill="none" stroke="#535461" stroke-miterlimit="10" stroke-width="1"/>
    <path id="Path_771" data-name="Path 771" d="M163.46,440.25l-6.79-11.75-11.23,1.82v13.06l12.01,6.27Z" fill="#f44336"/>
    <path id="Path_772" data-name="Path 772" d="M143.75,479.62l7,3.6c2.35-3.13,12-6.79,12-6.79l-1-8A30.26,30.26,0,0,0,143.75,479.62Z" transform="translate(-27.8 -50.55)" fill="#f44336"/>
    <path id="Path_773" data-name="Path 773" d="M134.99,450.17l-12.27-5.74-6.8,9.66,7.06,11.23,12.01-1.83Z" fill="#f44336"/>
    <path id="Path_774" data-name="Path 774" d="M173.24,518.22v9.69a30.29,30.29,0,0,0,19.53-12.71l-8.56-3.51Z" transform="translate(-27.8 -50.55)" fill="#f44336"/>
    <path id="Path_775" data-name="Path 775" d="M113.2,535.92a31.46,31.46,0,1,0,6.53-19.19A31.46,31.46,0,0,0,113.2,535.92Z" transform="translate(-27.8 -50.55)" fill="url(#linear-gradient-5)"/>
    <path id="Path_776" data-name="Path 776" d="M114.36,535.92a30.3,30.3,0,1,0,6.29-18.49A30.3,30.3,0,0,0,114.36,535.92Z" transform="translate(-27.8 -50.55)" fill="#e0e0e0"/>
    <line id="Line_63" data-name="Line 63" y2="11.75" transform="translate(99.88 470.48)" fill="none" stroke="#535461" stroke-miterlimit="10" stroke-width="1"/>
    <line id="Line_64" data-name="Line 64" x1="12.27" y2="8.1" transform="translate(110.07 481.19)" fill="none" stroke="#535461" stroke-miterlimit="10" stroke-width="1"/>
    <line id="Line_65" data-name="Line 65" x2="14.36" y2="6.01" transform="translate(110.07 463.17)" fill="none" stroke="#535461" stroke-miterlimit="10" stroke-width="1"/>
    <line id="Line_66" data-name="Line 66" x1="0.78" y2="18.28" transform="translate(133.31 483.28)" fill="none" stroke="#535461" stroke-miterlimit="10" stroke-width="1"/>
    <line id="Line_67" data-name="Line 67" x1="16.19" y1="8.1" transform="translate(108.24 498.95)" fill="none" stroke="#535461" stroke-miterlimit="10" stroke-width="1"/>
    <line id="Line_68" data-name="Line 68" y2="10.21" transform="translate(99.88 500.26)" fill="none" stroke="#535461" stroke-miterlimit="10" stroke-width="1"/>
    <line id="Line_69" data-name="Line 69" x1="7.06" y1="3.13" transform="translate(86.81 489.29)" fill="none" stroke="#535461" stroke-miterlimit="10" stroke-width="1"/>
    <line id="Line_70" data-name="Line 70" x1="0.54" y1="8.54" transform="translate(132.77 459.59)" fill="none" stroke="#535461" stroke-miterlimit="10" stroke-width="1"/>
    <line id="Line_71" data-name="Line 71" x2="8.76" y2="2.5" transform="translate(138.01 478.06)" fill="none" stroke="#535461" stroke-miterlimit="10" stroke-width="1"/>
    <path id="Path_777" data-name="Path 777" d="M140.36,478.06l-6.79-11.76-11.23,1.83v13.06l12.02,6.27Z" fill="#f44336"/>
    <path id="Path_778" data-name="Path 778" d="M120.65,517.43l7,3.6c2.35-3.13,12-6.79,12-6.79l-1-8a30.26,30.26,0,0,0-18,11.19Z" transform="translate(-27.8 -50.55)" fill="#f44336"/>
    <path id="Path_779" data-name="Path 779" d="M111.89,487.98l-12.27-5.75-6.79,9.67,7.05,11.23,12.01-1.83Z" fill="#f44336"/>
    <path id="Path_780" data-name="Path 780" d="M150.14,556v9.69A30.29,30.29,0,0,0,169.67,553l-8.56-3.51Z" transform="translate(-27.8 -50.55)" fill="#f44336"/>
  </g>
</svg>
