<svg xmlns="http://www.w3.org/2000/svg" xmlns:xlink="http://www.w3.org/1999/xlink" width="1022.587" height="684.403" viewBox="0 0 1022.587 684.403">
  <defs>
    <linearGradient id="linear-gradient" x1="0.5" y1="1" x2="0.5" gradientUnits="objectBoundingBox">
      <stop offset="0" stop-color="gray" stop-opacity="0.251"/>
      <stop offset="0.54" stop-color="gray" stop-opacity="0.122"/>
      <stop offset="1" stop-color="gray" stop-opacity="0.102"/>
    </linearGradient>
  </defs>
  <g id="undraw_personal_trainer_ote3_1_" data-name="undraw_personal_trainer_ote3 (1)" transform="translate(-0.001)">
    <path id="Path_974" data-name="Path 974" d="M618.07,177.287C552.514,175,490.083,153.855,430.5,130.7S311.823,81.882,247.838,69.616c-41.2-7.89-88.269-9-121.428,13.074C94.5,103.92,84.188,140.577,78.65,174.58c-4.172,25.589-6.621,52.526,4.8,76.473,7.935,16.633,22.021,30.612,31.766,46.544,33.923,55.42,9.959,123.772-26.8,177.9C71.185,500.877,51.2,525.1,37.9,552.125s-19.447,57.994-7.811,85.562c11.538,27.319,39.009,47.849,68.778,62.281,60.461,29.29,131.706,37.713,201.177,42.47,153.789,10.518,308.395,5.964,462.592,1.4,57.062-1.686,114.381-3.4,170.511-12.222,31.18-4.9,63.364-12.675,86-31.456,28.731-23.831,35.849-64.189,16.6-94.082-32.29-50.13-121.6-62.574-144.15-116.378-12.426-29.609.337-62.6,18.39-90.062,38.734-58.917,103.65-110.6,107.076-177.949,2.343-46.251-28.864-92.565-77.121-114.5-50.591-22.935-120.709-20.05-158.032,17.92C743.484,164.257,675.958,179.3,618.07,177.287Z" transform="translate(-23.94 -64.45)" fill="#f44336" opacity="0.1"/>
    <g id="Group_95" data-name="Group 95" transform="translate(409.906 357.291)" opacity="0.5">
      <path id="Path_975" data-name="Path 975" d="M496.383,402.58l-29.7.612-4.855,6.666v23.032l6.062,4.243h28.491l6.062-6.666V408.642Z" transform="translate(-461.83 -402.553)" fill="#f44336"/>
      <path id="Path_976" data-name="Path 976" d="M520.238,470.666s-27.275,4.243-29.7,0l.612-3.027L520.238,467Z" transform="translate(-486.306 -467)" fill="#fff" opacity="0.2"/>
      <path id="Path_977" data-name="Path 977" d="M523.053,542.141,527.9,547v23.077l-4.846,4.775s-17.574,6.062-29.095,1.207l-5.459-5.45V547.529l4.855-5.459Z" transform="translate(-486.077 -475.44)" fill="#f44336"/>
      <path id="Path_978" data-name="Path 978" d="M522.452,547.609s-21.213,4.846-28.482,0V542.15h29.7Z" transform="translate(-486.692 -475.449)" fill="#fff" opacity="0.2"/>
      <path id="Path_979" data-name="Path 979" d="M513.146,505.19v32.787A4.917,4.917,0,0,1,508,542.628h0a4.917,4.917,0,0,1-5.148-4.651V505.19c0-2.787,2.663-4.944,5.751-4.624h0a4.846,4.846,0,0,1,4.544,4.624Z" transform="translate(-487.69 -470.77)" fill="#f44336"/>
      <path id="Path_980" data-name="Path 980" d="M549.973,403.64l-29.7.6-4.855,6.666v23.032l6.062,4.243h28.491l6.062-6.666V409.693Z" transform="translate(-467.855 -402.673)" fill="#f44336"/>
      <path id="Path_981" data-name="Path 981" d="M573.838,471.72s-27.275,4.243-29.7,0l.6-3.027,29.095-.6Z" transform="translate(-492.333 -467.123)" fill="#fff" opacity="0.2"/>
      <path id="Path_982" data-name="Path 982" d="M576.623,543.2l4.846,4.855v23.077l-4.846,4.8S559.04,582,547.529,577.141l-5.459-5.45V548.659l4.855-5.459Z" transform="translate(-492.1 -475.567)" fill="#f44336"/>
      <path id="Path_983" data-name="Path 983" d="M576.042,548.659s-21.213,4.846-28.482,0V543.2h29.68Z" transform="translate(-492.717 -475.567)" fill="#fff" opacity="0.2"/>
      <path id="Path_984" data-name="Path 984" d="M566.695,506.24v32.787a4.926,4.926,0,0,1-5.148,4.651h0a4.926,4.926,0,0,1-5.157-4.651V506.24c0-2.787,2.663-4.944,5.76-4.624h0a4.846,4.846,0,0,1,4.544,4.624Z" transform="translate(-493.71 -470.888)" fill="#f44336"/>
      <path id="Path_985" data-name="Path 985" d="M618.967,423.39l-24.453.506-3.994,5.485V448.34l4.988,3.5h23.458l4.988-5.494V428.378Z" transform="translate(-476.299 -404.893)" fill="#f44336"/>
      <path id="Path_986" data-name="Path 986" d="M642.844,490.84s-22.447,3.488-24.444,0l.5-2.494,23.964-.506Z" transform="translate(-500.682 -469.343)" fill="#fff" opacity="0.2"/>
      <path id="Path_987" data-name="Path 987" d="M645.146,549.68l3.994,3.994v18.958l-3.994,3.994s-14.467,4.988-23.964.994l-4.491-4.491V554.171l3.994-4.491Z" transform="translate(-500.489 -476.296)" fill="#f44336"/>
      <path id="Path_988" data-name="Path 988" d="M644.66,554.171s-17.467,3.994-23.45,0V549.68h24.444Z" transform="translate(-500.998 -476.296)" fill="#fff" opacity="0.2"/>
      <path id="Path_989" data-name="Path 989" d="M637,519.251v26.991a4.047,4.047,0,0,1-4.243,3.826h0a4.038,4.038,0,0,1-4.234-3.826V519.251a4.1,4.1,0,0,1,4.731-3.808h0A3.994,3.994,0,0,1,637,519.251Z" transform="translate(-501.819 -472.441)" fill="#f44336"/>
      <path id="Path_990" data-name="Path 990" d="M663.078,424.26l-24.453.5-3.985,5.485V449.21l4.988,3.488h23.45l4.988-5.485V429.248Z" transform="translate(-481.259 -404.991)" fill="#f44336"/>
      <path id="Path_991" data-name="Path 991" d="M686.963,491.7s-22.456,3.5-24.453,0l.5-2.494,23.964-.5Z" transform="translate(-505.641 -469.441)" fill="#fff" opacity="0.2"/>
      <path id="Path_992" data-name="Path 992" d="M689.267,550.55l3.985,3.985v18.959l-3.985,3.994s-14.476,4.988-23.964,1l-4.482-4.465V555.041l3.994-4.491Z" transform="translate(-505.451 -476.394)" fill="#f44336"/>
      <path id="Path_993" data-name="Path 993" d="M688.77,555.041s-17.458,3.985-23.45,0V550.55h24.453Z" transform="translate(-505.957 -476.394)" fill="#fff" opacity="0.2"/>
      <path id="Path_994" data-name="Path 994" d="M681.115,520.115V547.1a4.047,4.047,0,0,1-4.243,3.825h0a4.047,4.047,0,0,1-4.243-3.825V520.115a4.109,4.109,0,0,1,4.74-3.8h0A3.985,3.985,0,0,1,681.115,520.115Z" transform="translate(-506.779 -472.542)" fill="#f44336"/>
    </g>
    <path id="Path_995" data-name="Path 995" d="M961.138,550.094a14.981,14.981,0,0,0-9.231-6.772,33.728,33.728,0,0,0-11.609-.728,102.069,102.069,0,0,0-18.577,3.062c-3.772.994-7.686,2.326-10.234,5.326-.071.089-.151.2-.231.284-3.9,1.021-7.766,2.592-11.538,3.87a108.288,108.288,0,0,1-11.539,3.133c5.1-2.9,10.074-5.973,14.281-10.074a40.377,40.377,0,0,0,5.325-6.355,21.135,21.135,0,0,0,8.876.595c6.009-1.03,10.864-5.325,15.381-9.515l14.53-13.367a29.463,29.463,0,0,0,6.213-7.1c2.086-3.879,2.272-8.494,2.326-12.923.071-6.089,0-12.177-.177-18.257l4.6,3.55a40.711,40.711,0,0,1,4.03-21.8c1.6-3.222,3.692-6.426,3.737-10.038.071-5.574-4.722-9.959-9.63-12.426s-10.429-4.047-14.45-7.837c-5.982-5.636-7.1-14.627-10.056-22.349a88.818,88.818,0,0,0-6.213-12.222l-5.752-10.03a142.18,142.18,0,0,0-9.657-15.257c-5.982-7.89-13.518-14.4-21-20.831l-38.911-33.524c-9.461-8.157-18.958-16.322-29.192-23.458-20.76-14.476-44.183-24.417-67.455-34.26-5.858-2.485-11.956-5.006-18.293-4.7a20.92,20.92,0,0,0-12.817,5.485,76.545,76.545,0,0,1-9.763-3.71l-.249-.115c.071-.524.151-1.038.2-1.562.08-.692.124-1.385.178-2.086a16.287,16.287,0,0,0,5.024-1.642,6.027,6.027,0,0,0,2.068-1.607,7.359,7.359,0,0,0,1.056-3.932c.71-9.275,1.42-18.639.657-27.87s-3.08-18.577-7.988-26.423c-1.518-2.432-3.417-4.8-6.053-5.858-3.55-1.42-7.66-.1-11.45-.737-6.559-1.109-10.651-7.527-15.4-12.257C670.148,161.8,649.61,160,635.746,169.69c-5.254,3.683-9.461,8.68-14.148,13.083s-10.18,8.388-16.509,9.248a8.042,8.042,0,0,0-3.346.888c-1.3.817-1.882,2.388-2.379,3.843-1.775,5.024-3.479,10.18-4.021,15.435-.062-.32-.115-.639-.169-.959a30.1,30.1,0,0,0-.151,5.867,17.121,17.121,0,0,0,2.112,7.1,9.63,9.63,0,0,0,4.855,4.633,13.224,13.224,0,0,0,4.677.754h.7c-.257.683-.506,1.367-.737,2.059a56.8,56.8,0,0,0-2.973,18.2c0,31.065,24.79,56.236,55.393,56.236a55.2,55.2,0,0,0,10.961-1.154c1.2.382,2.4.772,3.55,1.189a66.578,66.578,0,0,1,6.941,2.734c.958.453,4.837,2.716,9.523,5.636h0l-.32.666a35.272,35.272,0,0,0-10.2,34.109c3.39,13.2,14.512,24.515,13.393,38.1a23.265,23.265,0,0,0-.24,5.814c.453,2.663,2.254,4.828,4.056,6.8,1.562,1.722,3.186,3.391,4.837,5.024-.133,8.672-.888,17.334-1.7,25.979-.071.754-.089,1.518-.1,2.29a15.976,15.976,0,0,0,3.834,10.18c2.574,3.133,3.6,7.828,3.115,12.018-.7,6-3.657,11.441-5.636,17.13-8.929,25.589,2.041,54.444-4.136,80.867-1.518,6.506-4.074,12.834-4.438,19.526-.2,4.18.453,8.565-1.154,12.426-1.393,3.355-4.3,5.778-7.038,8.13q-5.814,4.979-11.325,10.3a156.767,156.767,0,0,0-17.166-8.077,30.832,30.832,0,0,0-2.929-1.012c-6.941-6.5-15.692-10.651-23.911-15.426-6.817-3.95-13.314-8.388-19.846-12.825-6.213-4.26-12.559-8.556-17.814-14.033-2.663-2.769-5.032-5.822-7.9-8.352a67.187,67.187,0,0,0-7.988-5.716A320.977,320.977,0,0,1,539.5,511.378c-8.636-7.491-15.7-17.139-24.932-23.858-5.654-4.118-12.231-7.873-19.154-7.1a18.275,18.275,0,0,0-6.311,1.944,16.5,16.5,0,0,0-5.787-1.3c-5.627-.178-10.793,2.876-15.621,5.814q-42.6,25.89-86.538,49.473c-5.911,3.178-11.858,6.328-17.5,9.967a118.871,118.871,0,0,0-28.882,26.334c-1.491,1.891-3.373,4.039-5.743,3.754a5.13,5.13,0,0,1-1.837-.657c-3.648-1.979-5.885-5.8-7.988-9.435a30.01,30.01,0,0,0-5.414-7.464h0a15.761,15.761,0,0,0-1.9-3.55c3.151-7.775,5.867-15.737,8.388-23.751,1.314-4.207,2.583-8.441,4.26-12.524,4.136-10.1,10.731-19.251,13.065-29.938.559-2.583.888-5.237,1.322-7.846,25.518-5.024,44.778-27.816,44.778-55.189,0-31.065-24.8-56.236-55.393-56.236s-55.384,25.171-55.384,56.236A56.378,56.378,0,0,0,298.753,473.6v.311a39.257,39.257,0,0,1-.524,5.325c-1.021,5.947-3.55,11.538-6.1,16.961-1.686,3.63-3.373,7.278-5.121,10.9a10.114,10.114,0,0,1-2.423-.817c-1.5-.834-2.157-2.663-2.725-4.278a153.088,153.088,0,0,0-9.2-21.532,37.278,37.278,0,0,0-5.325-8.175c-3.746-4.1-8.876-6.532-13.837-8.991-.888-.426-1.713-.888-2.565-1.3a21.924,21.924,0,0,0-2.308-1.5c-4.127-2.334-8.707-4.012-12.151-7.278-2.583-2.45-4.358-5.636-6.772-8.237-4.021-4.322-9.568-6.79-14.956-9.142-2.8-1.225-5.751-2.476-8.814-2.308a10.568,10.568,0,0,0-1.287.142,20.421,20.421,0,0,0-2.183.5,11.878,11.878,0,0,1-1.97-1.314c-3.293-2.538-4.571-6.9-5.645-10.953-1.775-6.781-3.648-13.8-2.547-20.742a31.414,31.414,0,0,1,.781-3.55c.275-.453.541-.888.781-1.376a46.3,46.3,0,0,0,24.24-71.414c-.453-.621-.888-1.225-1.393-1.828l.533-.293c4.908-3,6.027-10.172,3.754-15.515s-7.1-9.115-11.991-12.08c-.71-.435-1.429-.843-2.157-1.251l-.621-.337c-.55-.3-1.092-.595-1.642-.888l-.648-.328c-.648-.328-1.3-.639-1.944-.941l-.293-.142c-.808-.364-1.615-.719-2.432-1.056h0c-.79-.328-1.58-.63-2.379-.888l-.328-.124c-.754-.275-1.518-.533-2.281-.781l-.169-.053a59.669,59.669,0,0,0-17.272-2.911,82.616,82.616,0,0,0-17.086,1.891,82.783,82.783,0,0,0-15.976,4.589,56.964,56.964,0,0,0-21.9,16.42,21.1,21.1,0,0,0-3.657.6c-4.8,1.216-9.124,3.9-13.074,6.932a41.714,41.714,0,0,0-8.7,8.627,37.225,37.225,0,0,0-5.867,14c-3.364,15.737.772,31.952,3.817,47.769s4.8,33.053-2.663,47.245c-2.814,5.325-6.808,9.95-9.763,15.177s-5.006,11.538-3.3,17.334c2.068,7.038,8.876,11.467,12.426,17.858,4.154,7.447,3.009,17.45-2.423,23.964-.24.284-.479.568-.737.888a8.887,8.887,0,0,1-.959.959c5.6,1.97,11.84-.151,16.864-3.311a29.937,29.937,0,0,0,9.95-9.577c6.346-10.42,3.5-23.893,5.734-35.938,2.938-15.772,14.8-29.84,13.163-45.807-1.1-10.713-8.095-19.669-13.589-28.882a114.246,114.246,0,0,1-9.142-19.456c-.1-.284-.2-.577-.3-.888h0c-1.606-4.571-2.84-9.417-2.015-14.2a19.864,19.864,0,0,1,1.385-4.5c0,.169,0,.346,0,.515a34.837,34.837,0,0,0,3.027,13.411c5.547,11.538,18.9,16.864,27.373,26.219.355.391.692.79,1.03,1.2.1.106.186.222.275.337l.719.888.3.417c.222.311.444.621.648.941l.275.4c.284.453.568.888.834,1.376,2.157-2.388,4.385-4.9,5.254-7.988.08-.266.133-.541.186-.817.071.071.133.151.2.231.169.95.3,1.9.426,2.858h0a19.29,19.29,0,0,0,.435,4.075c.674,8.519.133,17.271-.435,25.818-.3,4.571.888,11.361-2.024,14.769l-.089.1a4.689,4.689,0,0,1-.559.55h0c-.5.515-1,1.021-1.473,1.553-9.763,11.006-14.2,26.627-13.97,41.591.231,17.032,5.672,33.532,11.84,49.376a138.651,138.651,0,0,0,7.6,16.864,29.45,29.45,0,0,0,5.867,7.891,35.354,35.354,0,0,0,8.521,5.086c.746.355,1.5.7,2.246,1.065l1.908.888,14.53,6.905c2.663,3.914,5.237,7.935,7.837,11.964.373.568.737,1.154,1.118,1.722,2.84,4.438,5.7,8.876,8.609,13.189l24.488,36.266a30.559,30.559,0,0,0,6.124,7.3,12.508,12.508,0,0,0,2.29,1.429,11.951,11.951,0,0,0,1.269.523,4.047,4.047,0,0,0-.648,2.743,4.642,4.642,0,0,0,1.775,2.317c5.538,4.58,11.689,9.408,13.429,16.447,1.234,5.015,0,10.385,1.109,15.426,2.033,9.089,11.024,14.6,19.527,18.1,19.056,7.828,40.225,10.837,60.47,7.2s39.479-14.139,52.589-30.177c4.03-4.953,7.464-10.358,11.29-15.47a129.519,129.519,0,0,1,8.618-10.349,71.128,71.128,0,0,0,9.417-5.2c6.4-4.251,11.911-9.71,17.751-14.769,4.358-3.8,8.92-7.385,12.923-11.538a135.243,135.243,0,0,0,10.056-12.426q10.651-14.112,22-27.666c4.047-4.837,8.334-9.763,13.988-12.426l.257-.107c.675,3.976,3.825,7.349,6.035,10.784,9.142,14.2,18.71,28.819,32.84,37.873,7.74,4.953,16.491,7.988,25.225,10.757,22.189,7.012,44.734,12.515,67.3,18.026.746-1.42,1.473-2.734,2.29-4.012a12.182,12.182,0,0,1,.976,1.172c.1.142.178.293.275.435a3.218,3.218,0,0,0-.479.133,6.31,6.31,0,0,0-3.186,3.355c-2.432,4.873-2.663,10.527-2.778,15.976-.08,5.325,0,10.651,0,15.976a13.785,13.785,0,0,0,.888,5.84c1.722,3.55,6.1,4.873,10.012,5.325,6.8.754,13.651.115,20.414-.8a15.732,15.732,0,0,0,1.891,4.518c3.8,6.213,10.358,10.314,17.183,12.719s14.059,3.364,21.151,4.775c12.595,2.5,25.482,6.506,38.006,3.683,5-1.127,9.763-3.311,14.76-4.269,11.441-2.166,23.3,2.219,34.819.462a54.723,54.723,0,0,0,15.87-5.654,21.765,21.765,0,0,0,6.79-4.686c1.846-2.077,2.956-5.024,2.192-7.713a31.158,31.158,0,0,0-2.095-4.314,22.933,22.933,0,0,1-1.5-7.278,199.83,199.83,0,0,0-4.775-27.976c-.062-.257-.133-.524-.2-.79,8.707-3.453,16.509-8.876,24.213-14.272l16.571-11.592c5.325-3.754,10.784-7.527,16.766-10.154,9.177-4.03,19.34-5.183,29.343-5.175,4.092,0,8.192.2,12.266.577a5.325,5.325,0,0,0-1.145,1.97c-.817,2.538.479,5.325,2.405,7.18s4.438,2.9,6.7,4.189a40.544,40.544,0,0,1,15.089,14.831c2.272,3.9,3.923,8.627,2.485,12.914-1.775,5.379-8.1,9.089-7.74,14.751.213,3.337,2.9,6.1,5.964,7.331s6.462,1.216,9.763,1.118c5.405-.169,10.97-.586,15.808-3.044a40.937,40.937,0,0,0,8.725-6.639c2.468-2.263,4.988-4.615,6.391-7.669,1.314-2.876,1.518-6.133,1.58-9.293.266-14.876-2.3-29.955.657-44.529.888-4.438,2.308-8.778,3.062-13.251,1.189-7.1.737-14.272.284-21.408C963.126,556.76,962.86,553.138,961.138,550.094Z" transform="translate(-30.024 -75.581)" fill="url(#linear-gradient)"/>
    <path id="Path_996" data-name="Path 996" d="M844.831,361.12c-3.488,2.352-4.7,6.9-5.148,11.086-1.891,17.814,5.458,35.45,4.97,53.352-.391,14.245-5.7,27.834-10.935,41.086-8.929,22.606-13.58,47.157-15.382,71.4s-4.438,49.482-17.45,69.985c-2.956,4.642-6.4,8.956-9.293,13.624-3.035,4.882-5.441,10.118-8.121,15.2A163.5,163.5,0,0,1,753.3,677.379c-3.55,3.462-7.314,6.817-11.84,8.814a23.841,23.841,0,0,1-18.515.2c-6.071-2.512-11.183-8.175-11.432-14.743-.222-5.876,3.284-11.175,6.8-15.879a260.635,260.635,0,0,1,40.828-43.278c2.76-2.325,5.672-4.731,7.1-8.05,1.607-3.825.95-8.166,1.154-12.311.328-6.612,2.9-12.888,4.438-19.331,6.213-26.174-4.828-54.754,4.154-80.112,2-5.636,4.962-11.024,5.663-16.961a16.12,16.12,0,0,0-3.133-11.911,15.657,15.657,0,0,1-3.843-10.083,19.138,19.138,0,0,1,.089-2.263c1.083-11.618,2.157-23.29,1.571-34.944s-2.9-23.37-8.281-33.728c-2.787-5.37-6.391-10.393-8.112-16.189-2.769-9.382-.213-19.527,3.914-28.4,3.222-6.941,7.518-13.553,13.518-18.311,11.148-8.831,27.834-9.852,40.038-2.547,9,5.379,15.16,14.423,20.157,23.645C841.147,347.727,844.884,353.434,844.831,361.12Z" transform="translate(-101.242 -92.338)" opacity="0.06"/>
    <path id="Path_997" data-name="Path 997" d="M817.943,283.473q-2.556,6.9-5.086,13.793c-1.118,3.018-2.228,6.062-3.382,9.08-5.325,13.908-11.281,27.595-20.6,39.106,1.393-1.722-11.716-10.385-21.382-16.3-4.713-2.9-8.618-5.139-9.577-5.583a70.032,70.032,0,0,0-6.985-2.716c-3.683-1.243-7.411-2.316-11.095-3.657-8.521-3.08-2.565-7.7,1.083-12.674,11.938-16.278,14.2-38.52,27.754-53.476a49.979,49.979,0,0,0,22.438,21.7c.186.1.382.186.577.266,8.05,3.763,16.944,5.388,25.269,8.538.453.169.976.408,1.127.888A1.775,1.775,0,0,1,817.943,283.473Z" transform="translate(-103.938 -85.429)" fill="#a1616a"/>
    <path id="Path_998" data-name="Path 998" d="M801.367,651.712a40.038,40.038,0,0,0-4.127,38.316,12.984,12.984,0,0,0,2.991,4.624,14,14,0,0,0,5.707,2.663c17.627,5.015,36.443,4.03,54.5.888a95.912,95.912,0,0,0,17.947-4.571c8.938-3.417,16.917-8.876,24.8-14.325l16.668-11.485c5.4-3.719,10.837-7.456,16.864-10.065,9.231-3.985,19.455-5.13,29.512-5.121a137.708,137.708,0,0,1,25.74,2.459c5.654,1.092,12.426,2.219,16.4-1.908,2.272-2.334,2.947-5.751,3.39-8.973a133.716,133.716,0,0,0-.1-37.784,4.908,4.908,0,0,0-1.092-2.885,4.438,4.438,0,0,0-2.2-1c-7.855-1.775-15.737,1.908-23.37,4.438-15.861,5.272-32.893,5.9-49.029,10.243-16.935,4.553-32.84,13.172-50.343,14.92-8.343.834-16.722.107-25.083.293-7.757.169-14.991,2.849-22.589,3.169C823.308,636.251,810.571,638.807,801.367,651.712Z" transform="translate(-110.536 -124.895)" fill="#a1616a"/>
    <path id="Path_999" data-name="Path 999" d="M801.367,651.712a40.038,40.038,0,0,0-4.127,38.316,12.984,12.984,0,0,0,2.991,4.624,14,14,0,0,0,5.707,2.663c17.627,5.015,36.443,4.03,54.5.888a95.912,95.912,0,0,0,17.947-4.571c8.938-3.417,16.917-8.876,24.8-14.325l16.668-11.485c5.4-3.719,10.837-7.456,16.864-10.065,9.231-3.985,19.455-5.13,29.512-5.121a137.708,137.708,0,0,1,25.74,2.459c5.654,1.092,12.426,2.219,16.4-1.908,2.272-2.334,2.947-5.751,3.39-8.973a133.716,133.716,0,0,0-.1-37.784,4.908,4.908,0,0,0-1.092-2.885,4.438,4.438,0,0,0-2.2-1c-7.855-1.775-15.737,1.908-23.37,4.438-15.861,5.272-32.893,5.9-49.029,10.243-16.935,4.553-32.84,13.172-50.343,14.92-8.343.834-16.722.107-25.083.293-7.757.169-14.991,2.849-22.589,3.169C823.308,636.251,810.571,638.807,801.367,651.712Z" transform="translate(-110.536 -124.895)" opacity="0.06"/>
    <path id="Path_1000" data-name="Path 1000" d="M818.356,621.209a12.014,12.014,0,0,0-.2,5.956,11.093,11.093,0,0,0,3.55,4.775c15.089,13.509,36.648,16.3,56.8,18.5,5.458.595,11.015,1.189,16.42.2,4.926-.888,9.524-3.062,14.059-5.21,9.763-4.624,19.58-9.3,27.949-16.1,8.21-6.657,14.8-15.177,23.3-21.453,9.666-7.1,21.55-11.166,30.177-19.527a40.57,40.57,0,0,0,11.831-22.42,63.984,63.984,0,0,0,0-17.663c-.7-6.754-1.828-13.624-5.041-19.606-3.719-6.923-9.968-12.151-16.562-16.447-13.953-9.071-30.381-14.7-47.041-14.556-23.077.2-44.379,13.633-60.941,28.713a179.359,179.359,0,0,0-41.716,56.742A173.264,173.264,0,0,0,818.356,621.209Z" transform="translate(-113.199 -113.156)" fill="#464353"/>
    <path id="Path_1001" data-name="Path 1001" d="M818.356,621.209a12.014,12.014,0,0,0-.2,5.956,11.093,11.093,0,0,0,3.55,4.775c15.089,13.509,36.648,16.3,56.8,18.5,5.458.595,11.015,1.189,16.42.2,4.926-.888,9.524-3.062,14.059-5.21,9.763-4.624,19.58-9.3,27.949-16.1,8.21-6.657,14.8-15.177,23.3-21.453,9.666-7.1,21.55-11.166,30.177-19.527a40.57,40.57,0,0,0,11.831-22.42,63.984,63.984,0,0,0,0-17.663c-.7-6.754-1.828-13.624-5.041-19.606-3.719-6.923-9.968-12.151-16.562-16.447-13.953-9.071-30.381-14.7-47.041-14.556-23.077.2-44.379,13.633-60.941,28.713a179.359,179.359,0,0,0-41.716,56.742A173.264,173.264,0,0,0,818.356,621.209Z" transform="translate(-113.199 -113.156)" opacity="0.06"/>
    <path id="Path_1002" data-name="Path 1002" d="M844.831,361.12c-3.488,2.352-4.7,6.9-5.148,11.086-1.891,17.814,5.458,35.45,4.97,53.352-.391,14.245-5.7,27.834-10.935,41.086-8.929,22.606-13.58,47.157-15.382,71.4s-4.438,49.482-17.45,69.985c-2.956,4.642-6.4,8.956-9.293,13.624-3.035,4.882-5.441,10.118-8.121,15.2A163.5,163.5,0,0,1,753.3,677.379c-3.55,3.462-7.314,6.817-11.84,8.814a23.841,23.841,0,0,1-18.515.2c-6.071-2.512-11.183-8.175-11.432-14.743-.222-5.876,3.284-11.175,6.8-15.879a260.635,260.635,0,0,1,40.828-43.278c2.76-2.325,5.672-4.731,7.1-8.05,1.607-3.825.95-8.166,1.154-12.311.328-6.612,2.9-12.888,4.438-19.331,6.213-26.174-4.828-54.754,4.154-80.112,2-5.636,4.962-11.024,5.663-16.961a16.12,16.12,0,0,0-3.133-11.911,15.657,15.657,0,0,1-3.843-10.083,19.138,19.138,0,0,1,.089-2.263c1.083-11.618,2.157-23.29,1.571-34.944s-2.9-23.37-8.281-33.728c-2.787-5.37-6.391-10.393-8.112-16.189-2.769-9.382-.213-19.527,3.914-28.4,3.222-6.941,7.518-13.553,13.518-18.311,11.148-8.831,27.834-9.852,40.038-2.547,9,5.379,15.16,14.423,20.157,23.645C841.147,347.727,844.884,353.434,844.831,361.12Z" transform="translate(-101.242 -92.338)" fill="#a1616a"/>
    <ellipse id="Ellipse_107" data-name="Ellipse 107" cx="33.595" cy="52.713" rx="33.595" ry="52.713" transform="translate(660.955 222.984)" fill="#a1616a"/>
    <path id="Path_1003" data-name="Path 1003" d="M708.992,681.594a11.716,11.716,0,0,1,1.775,9.763,17.067,17.067,0,0,0,10.908,3.177,33.728,33.728,0,0,0,11.228-2.583,37.1,37.1,0,0,0,8.734-4.58c4.633-3.426,7.988-8.326,10.651-13.4,1.5-2.8,2.778-6.435.888-8.956a8.591,8.591,0,0,0-2.663-2.059,158.126,158.126,0,0,0-21.3-10.127,15.658,15.658,0,0,0-6.426-1.438c-2.725.151-5.2,1.642-7.367,3.311a39.943,39.943,0,0,0-11.467,14.2c-.834,1.775-3.355,5.991-2.1,7.82.568.843,2.663,1.136,3.55,1.669a11.476,11.476,0,0,1,3.595,3.2Z" transform="translate(-100.119 -130.44)" fill="#fbbebe"/>
    <path id="Path_1004" data-name="Path 1004" d="M708.992,681.594a11.716,11.716,0,0,1,1.775,9.763,17.067,17.067,0,0,0,10.908,3.177,33.728,33.728,0,0,0,11.228-2.583,37.1,37.1,0,0,0,8.734-4.58c4.633-3.426,7.988-8.326,10.651-13.4,1.5-2.8,2.778-6.435.888-8.956a8.591,8.591,0,0,0-2.663-2.059,158.126,158.126,0,0,0-21.3-10.127,15.658,15.658,0,0,0-6.426-1.438c-2.725.151-5.2,1.642-7.367,3.311a39.943,39.943,0,0,0-11.467,14.2c-.834,1.775-3.355,5.991-2.1,7.82.568.843,2.663,1.136,3.55,1.669a11.476,11.476,0,0,1,3.595,3.2Z" transform="translate(-100.119 -130.44)" opacity="0.03"/>
    <path id="Path_1005" data-name="Path 1005" d="M745.412,662.248C760.429,665.035,774.24,672.3,789,676.209c5.973,1.58,12.124,2.663,17.831,4.988s11.086,6.3,13.544,11.964a34.272,34.272,0,0,1,2.05,8.45c.639,4.092,1.163,8.663-1.269,12.018-2.565,3.55-7.411,4.331-11.751,4.855-15.6,1.855-31.207,3.719-46.864,5.032a81.926,81.926,0,0,0-9.453,1.127c-2.574.515-5.086,1.3-7.642,1.9-3.311.772-6.675,1.26-10.03,1.775-8.583,1.234-17.263,2.467-25.882,1.527-3.932-.435-8.334-1.7-10.065-5.254a13.411,13.411,0,0,1-.888-5.787c-.044-5.272-.089-10.536,0-15.8.08-5.405.346-11.015,2.8-15.834a6.293,6.293,0,0,1,3.2-3.328,7.358,7.358,0,0,1,2.751-.248c4.615.16,9.391.355,13.518,2.414,3.275,1.624,5.938,4.331,9.275,5.8,6.32,2.8,13.944.79,20.343,3.426,1.491-4.6,1.154-9.248.044-13.962s-2.663-9.337-3.133-14.148a9.02,9.02,0,0,0-.6-3.089C746.3,663.056,746.459,662.1,745.412,662.248Z" transform="translate(-99.785 -131.659)" fill="#464353"/>
    <path id="Path_1006" data-name="Path 1006" d="M745.412,662.248C760.429,665.035,774.24,672.3,789,676.209c5.973,1.58,12.124,2.663,17.831,4.988s11.086,6.3,13.544,11.964a34.272,34.272,0,0,1,2.05,8.45c.639,4.092,1.163,8.663-1.269,12.018-2.565,3.55-7.411,4.331-11.751,4.855-15.6,1.855-31.207,3.719-46.864,5.032a81.926,81.926,0,0,0-9.453,1.127c-2.574.515-5.086,1.3-7.642,1.9-3.311.772-6.675,1.26-10.03,1.775-8.583,1.234-17.263,2.467-25.882,1.527-3.932-.435-8.334-1.7-10.065-5.254a13.411,13.411,0,0,1-.888-5.787c-.044-5.272-.089-10.536,0-15.8.08-5.405.346-11.015,2.8-15.834a6.293,6.293,0,0,1,3.2-3.328,7.358,7.358,0,0,1,2.751-.248c4.615.16,9.391.355,13.518,2.414,3.275,1.624,5.938,4.331,9.275,5.8,6.32,2.8,13.944.79,20.343,3.426,1.491-4.6,1.154-9.248.044-13.962s-2.663-9.337-3.133-14.148a9.02,9.02,0,0,0-.6-3.089C746.3,663.056,746.459,662.1,745.412,662.248Z" transform="translate(-99.785 -131.659)" opacity="0.06"/>
    <path id="Path_1007" data-name="Path 1007" d="M184.517,484.786c-3.027-.959-5.947,1.722-7.642,4.438-7.047,11.077-6.47,25.864-.834,37.722a28.635,28.635,0,0,0,5.467,8.139c3.053,3.009,6.985,4.935,10.651,7.1a80.138,80.138,0,0,1,25.526,23.964c4.34,6.4,7.757,13.438,12.683,19.393,12.124,14.663,32.05,21.3,43.81,36.213,2.814,3.55,5.192,7.669,8.947,10.251a15.213,15.213,0,0,0,23.813-11.787,170.988,170.988,0,0,0,11.867-21.453,255.3,255.3,0,0,0,13.314-34.5c1.322-4.172,2.6-8.37,4.287-12.426,4.163-10.012,10.793-19.074,13.136-29.654.941-4.243,1.172-8.654,2.538-12.772a24.31,24.31,0,0,1,6.107-9.763c9.231-8.973,14.2-22.047,21.541-32.609,2.982-4.269,6.08-8.53,8.05-13.358s2.725-10.358.888-15.24-6.639-8.822-11.84-8.547a17.981,17.981,0,0,0-6.648,2.041,74.069,74.069,0,0,0-19.473,13.42,94.268,94.268,0,0,0-7.1,7.633c-10.846,12.959-19.331,28.686-20.077,45.568-.249,5.787.213,12.2-3.462,16.686-10.136,12.382-13.393,29.405-22.038,42.878-4,6.213-8.592,12.648-15.435,15.479a6.587,6.587,0,0,1-3.249.639c-2.734-.311-4.3-3.186-5.459-5.689a220.183,220.183,0,0,0-15.612-28.18c-2.325-3.55-4.891-7.189-8.609-9.275-2.538-1.411-5.485-2.041-7.873-3.692-3.328-2.3-5.068-6.213-6.8-9.879a153.478,153.478,0,0,0-21.133-32.947c-3.852-4.589-8.929-9.328-14.876-8.645C193.321,476.6,189.86,482.558,184.517,484.786Z" transform="translate(-40.553 -105.536)" fill="#fbbebe"/>
    <path id="Path_1008" data-name="Path 1008" d="M184.517,484.786c-3.027-.959-5.947,1.722-7.642,4.438-7.047,11.077-6.47,25.864-.834,37.722a28.635,28.635,0,0,0,5.467,8.139c3.053,3.009,6.985,4.935,10.651,7.1a80.138,80.138,0,0,1,25.526,23.964c4.34,6.4,7.757,13.438,12.683,19.393,12.124,14.663,32.05,21.3,43.81,36.213,2.814,3.55,5.192,7.669,8.947,10.251a15.213,15.213,0,0,0,23.813-11.787,170.988,170.988,0,0,0,11.867-21.453,255.3,255.3,0,0,0,13.314-34.5c1.322-4.172,2.6-8.37,4.287-12.426,4.163-10.012,10.793-19.074,13.136-29.654.941-4.243,1.172-8.654,2.538-12.772a24.31,24.31,0,0,1,6.107-9.763c9.231-8.973,14.2-22.047,21.541-32.609,2.982-4.269,6.08-8.53,8.05-13.358s2.725-10.358.888-15.24-6.639-8.822-11.84-8.547a17.981,17.981,0,0,0-6.648,2.041,74.069,74.069,0,0,0-19.473,13.42,94.268,94.268,0,0,0-7.1,7.633c-10.846,12.959-19.331,28.686-20.077,45.568-.249,5.787.213,12.2-3.462,16.686-10.136,12.382-13.393,29.405-22.038,42.878-4,6.213-8.592,12.648-15.435,15.479a6.587,6.587,0,0,1-3.249.639c-2.734-.311-4.3-3.186-5.459-5.689a220.183,220.183,0,0,0-15.612-28.18c-2.325-3.55-4.891-7.189-8.609-9.275-2.538-1.411-5.485-2.041-7.873-3.692-3.328-2.3-5.068-6.213-6.8-9.879a153.478,153.478,0,0,0-21.133-32.947c-3.852-4.589-8.929-9.328-14.876-8.645C193.321,476.6,189.86,482.558,184.517,484.786Z" transform="translate(-40.553 -105.536)" opacity="0.03"/>
    <ellipse id="Ellipse_108" data-name="Ellipse 108" cx="23.396" cy="21.115" rx="23.396" ry="21.115" transform="translate(119.946 294.611)" fill="#fbbebe"/>
    <circle id="Ellipse_109" data-name="Ellipse 109" cx="8.423" cy="8.423" r="8.423" transform="translate(156.86 302.963)" fill="#fbbebe"/>
    <ellipse id="Ellipse_110" data-name="Ellipse 110" cx="32.228" cy="8.618" rx="32.228" ry="8.618" transform="translate(114.186 298.49)" fill="#fbbebe"/>
    <path id="Path_1009" data-name="Path 1009" d="M155.1,399.533a58.375,58.375,0,0,1,1.846,7.589,45.328,45.328,0,0,1-6.976-9.169A6.826,6.826,0,0,1,148.737,396c-2.876-6.692-4.837-13.464-4.837-20.8a45.586,45.586,0,1,1,57.568,43.979c1.393-4.491,3.3-8.876,3.55-13.535a9.763,9.763,0,0,0-.657-4.571,10.419,10.419,0,0,0-3.346-3.852,28.907,28.907,0,0,0-18-5.467,49.4,49.4,0,0,0-18.506,4.438c-1.837.79-4.038,1.855-6.213,2.583A16.171,16.171,0,0,1,155.1,399.533Z" transform="translate(-37.427 -94.262)" fill="#fbbebe"/>
    <path id="Path_1010" data-name="Path 1010" d="M272.073,509.1c-2.92,4.678-9.16,6.106-14.645,5.689C247.2,514.031,237.9,508.573,230,502s-14.8-14.2-22.882-20.521c-15.027-11.778-31.952-16.509-51.071-16.784,3.737-3.1,2.361-10.447,2.663-15.275.657-9.763,1.278-19.784,0-29.405-.133-1.039-.284-2.059-.462-3.08.3.32.621.63.95.95A45.639,45.639,0,0,0,202.772,429a35.5,35.5,0,0,0-1.145,4.722c-1.1,6.861.746,13.82,2.565,20.538,1.083,4.021,2.37,8.334,5.68,10.846,2.148,1.633,4.855,2.272,7.4,3.133a40.828,40.828,0,0,1,13.793,7.988c2.8,2.459,5.325,5.325,8.334,7.465a58.017,58.017,0,0,0,9.009,4.651,112.72,112.72,0,0,1,21.657,13.127,7.1,7.1,0,0,1,2.814,3.337A5.485,5.485,0,0,1,272.073,509.1Z" transform="translate(-38.793 -104.081)" fill="#fbbebe"/>
    <path id="Path_1011" data-name="Path 1011" d="M322.537,600.52c-.612,4.047-4.322,7.207-6.941,10.349-7.118,8.592-14.334,17.21-22.3,25.074-8.521,8.405-17.876,15.9-27.222,23.387l-12.124,9.7a15.266,15.266,0,0,1-5.157,3.107,9.418,9.418,0,0,1-6.639-.79,12.989,12.989,0,0,1-2.3-1.411,31.131,31.131,0,0,1-6.16-7.234q-12.3-17.955-24.63-35.92c-2.929-4.278-5.8-8.672-8.663-13.065-.382-.568-.746-1.145-1.127-1.713-2.609-3.994-5.21-7.988-7.882-11.849l-14.609-6.843-1.917-.888-2.263-1.056a35.851,35.851,0,0,1-8.565-5.033,29,29,0,0,1-5.9-7.819,136.863,136.863,0,0,1-7.651-16.748c-6.213-15.683-11.68-32.032-11.911-48.914-.2-14.849,4.18-30.293,14.05-41.192a44.224,44.224,0,0,1,4.34-4.207c1.9-1.589,3.861-2.521,6.3-2.175s4.757.7,7.1,1.1q9.692,1.669,19.234,4.083c5.734,1.464,11.672,3.133,17.467,1.97.932-.186,1.855-.453,2.778-.692.754-.2,1.5-.382,2.272-.506a10.506,10.506,0,0,1,1.3-.142c3.08-.16,6.035,1.074,8.876,2.29,5.423,2.326,11.006,4.775,15.089,9.053,2.432,2.574,4.216,5.734,6.808,8.157,3.461,3.24,8.077,4.9,12.231,7.216a21.913,21.913,0,0,1,2.317,1.482,26.319,26.319,0,0,1,4.438,4.216h0c5.379,6.346,8.574,14.911,14.512,21.222a86.629,86.629,0,0,1,12.3,16.66c.559,1,1.1,2.015,1.633,3.044q1.331,2.57,2.476,5.21c.2.453.391.888.568,1.358a81.418,81.418,0,0,1,2.92,8.139c2.015,6.7,3.355,13.935,7.828,19.313,3.124,3.737,7.456,6.213,11.1,9.435a19.643,19.643,0,0,1,5.4,7.34A10.491,10.491,0,0,1,322.537,600.52Z" transform="translate(-36.828 -109.507)" fill="#fbbebe"/>
    <path id="Path_1012" data-name="Path 1012" d="M299.612,547.469q-1.527,1.926-3.133,3.8c-.178.231-.373.453-.568.675A169.527,169.527,0,0,1,264.083,580.8c-7.3,5.095-14.991,9.612-22.669,14.121l-14.2,8.317c-5.938,3.488-11.956,7-18.541,9.009-2.112.63-4.322,1.136-6.479,1.731-.382-.568-.746-1.145-1.127-1.713-2.609-3.994-5.21-7.988-7.882-11.849l-14.609-6.843a85.561,85.561,0,0,0,21.177-18.976c8.876-10.944,15.7-23.423,22.429-35.822a26.93,26.93,0,0,0,2.76-6.391c.888-3.719.142-7.624-.95-11.281A59.467,59.467,0,0,0,200.2,489.031c-7.988-5.325-17.077-8.565-26.112-11.689-6.311-2.183-13.225-4.3-19.642-3.4a43.15,43.15,0,0,1,4.34-4.2c1.9-1.6,3.861-2.53,6.3-2.183s4.757.7,7.1,1.109c4.748,1.456,9.417,3.2,14.059,4.988a65.917,65.917,0,0,1,8.876,4.021A79.482,79.482,0,0,1,203.3,483.4a204.25,204.25,0,0,0,24.248,15.9c9.763,5.388,20.015,9.763,30.257,14.2a8.049,8.049,0,0,0,3.506.888,2.751,2.751,0,0,0,2.663-2.077,3.346,3.346,0,0,0-.426-1.855c-1.775-3.63-5.8-5.459-9.453-7.225-15.142-7.331-28.455-17.885-41.627-28.358a4.179,4.179,0,0,1-.834-.888l2.272-.506a338.619,338.619,0,0,0,46.553,28.065q1.287.657,2.583,1.278c.621.311,1.234.612,1.864.888h0c4.376,2.148,8.751,4.438,12.044,7.988a36.78,36.78,0,0,1,5.325,8.086,151.962,151.962,0,0,1,9.266,21.3,4.828,4.828,0,0,0,.169.462,8.2,8.2,0,0,0,1.633,3.044,3.455,3.455,0,0,0,.932.737C295.946,546.315,298.236,546.208,299.612,547.469Z" transform="translate(-38.613 -109.764)" opacity="0.06"/>
    <path id="Path_1013" data-name="Path 1013" d="M213.944,471.237A337.7,337.7,0,0,0,260.5,499.293l2.583,1.287c4.97,2.432,10.145,4.846,13.917,8.876a37.049,37.049,0,0,1,5.325,8.095,150.438,150.438,0,0,1,9.257,21.3c.568,1.624,1.234,3.408,2.743,4.243s3.905.772,5.245,2.033c-1.207,1.509-2.432,3-3.7,4.438a169.268,169.268,0,0,1-31.828,28.864c-7.3,5.095-14.991,9.612-22.669,14.121l-14.2,8.317c-5.938,3.479-11.956,6.994-18.541,9-2.476.754-5.095,1.323-7.606,2.05-2.609-3.994-5.21-7.988-7.882-11.849l-16.527-7.74a83.178,83.178,0,0,0,23.077-20.112c8.876-10.935,15.7-23.414,22.429-35.813a27.079,27.079,0,0,0,2.76-6.39c.888-3.719.142-7.633-.95-11.29A59.467,59.467,0,0,0,200.2,486.742c-7.988-5.326-17.077-8.556-26.112-11.689-6.311-2.175-13.225-4.3-19.642-3.391a44.216,44.216,0,0,1,4.34-4.207c1.9-1.589,3.861-2.521,6.3-2.175s4.757.7,7.1,1.1c4.748,1.465,9.417,3.2,14.059,5a64.784,64.784,0,0,1,8.876,4.021,79.47,79.47,0,0,1,8.175,5.725,204.146,204.146,0,0,0,24.284,15.852c9.763,5.4,20.015,9.808,30.257,14.2a8.033,8.033,0,0,0,3.506.888,2.734,2.734,0,0,0,2.663-2.077,3.329,3.329,0,0,0-.426-1.846c-1.775-3.63-5.8-5.467-9.453-7.225-15.142-7.331-28.455-17.893-41.627-28.4a3.931,3.931,0,0,1-.834-.888Z" transform="translate(-38.613 -109.507)" fill="#f44336"/>
    <circle id="Ellipse_111" data-name="Ellipse 111" cx="55.713" cy="55.713" r="55.713" transform="translate(243.975 298.49)" fill="#f44336"/>
    <path id="Path_1014" data-name="Path 1014" d="M419.953,692.066c10.429-3.275,21.018-6.612,30.177-12.6,6.435-4.207,11.982-9.621,17.822-14.627,4.393-3.763,8.973-7.314,13-11.467A135.439,135.439,0,0,0,491.074,641.1q10.686-13.988,22.074-27.444c4.074-4.784,8.379-9.657,14.068-12.319,10.109-4.749,21.976-1.544,32.645,1.713,15.976,4.882,31.872,10.056,46.819,17.485,8.5,4.234,16.74,8.956,25.322,13.012,15.692,7.411,32.352,12.5,48.95,17.556a6.213,6.213,0,0,0,3.905.32,5.742,5.742,0,0,0,2.316-1.935,33.061,33.061,0,0,0,5.139-8.876,1.7,1.7,0,0,0-.417-2.3c-7.1-6.914-16.314-11.166-24.923-16.092-6.852-3.914-13.411-8.308-19.961-12.7-6.293-4.216-12.639-8.476-17.92-13.9-2.663-2.743-5.059-5.769-7.944-8.272a66.545,66.545,0,0,0-8.077-5.663,324.564,324.564,0,0,1-36.142-26.778c-8.681-7.42-15.79-16.979-25.065-23.636-5.689-4.083-12.311-7.8-19.269-7.056-8.467.888-14.716,7.988-20.618,14.112-19.837,20.6-44.867,35.343-67,53.458C426.9,606.558,410.012,624.1,388,631.9c.985,3.266,1.331,6.533,2.325,9.763a102.012,102.012,0,0,0,4.624,13.172,103.578,103.578,0,0,0,6.151,11.006l8.822,14.405a36.416,36.416,0,0,0,6.169,8.228C417.423,689.75,419.953,690.211,419.953,692.066Z" transform="translate(-64.871 -116.131)" fill="#464353"/>
    <path id="Path_1015" data-name="Path 1015" d="M419.953,692.066c10.429-3.275,21.018-6.612,30.177-12.6,6.435-4.207,11.982-9.621,17.822-14.627,4.393-3.763,8.973-7.314,13-11.467A135.439,135.439,0,0,0,491.074,641.1q10.686-13.988,22.074-27.444c4.074-4.784,8.379-9.657,14.068-12.319,10.109-4.749,21.976-1.544,32.645,1.713,15.976,4.882,31.872,10.056,46.819,17.485,8.5,4.234,16.74,8.956,25.322,13.012,15.692,7.411,32.352,12.5,48.95,17.556a6.213,6.213,0,0,0,3.905.32,5.742,5.742,0,0,0,2.316-1.935,33.061,33.061,0,0,0,5.139-8.876,1.7,1.7,0,0,0-.417-2.3c-7.1-6.914-16.314-11.166-24.923-16.092-6.852-3.914-13.411-8.308-19.961-12.7-6.293-4.216-12.639-8.476-17.92-13.9-2.663-2.743-5.059-5.769-7.944-8.272a66.545,66.545,0,0,0-8.077-5.663,324.564,324.564,0,0,1-36.142-26.778c-8.681-7.42-15.79-16.979-25.065-23.636-5.689-4.083-12.311-7.8-19.269-7.056-8.467.888-14.716,7.988-20.618,14.112-19.837,20.6-44.867,35.343-67,53.458C426.9,606.558,410.012,624.1,388,631.9c.985,3.266,1.331,6.533,2.325,9.763a102.012,102.012,0,0,0,4.624,13.172,103.578,103.578,0,0,0,6.151,11.006l8.822,14.405a36.416,36.416,0,0,0,6.169,8.228C417.423,689.75,419.953,690.211,419.953,692.066Z" transform="translate(-64.871 -116.131)" opacity="0.06"/>
    <path id="Path_1016" data-name="Path 1016" d="M696.817,690.467a11.742,11.742,0,0,1,1.775,9.763,17.032,17.032,0,0,0,10.882,3.2,34.188,34.188,0,0,0,11.254-2.574,37.441,37.441,0,0,0,8.734-4.58c4.642-3.426,7.988-8.325,10.7-13.411,1.5-2.8,2.778-6.426.843-8.947a8.362,8.362,0,0,0-2.663-2.059,158.524,158.524,0,0,0-21.257-10.127,15.844,15.844,0,0,0-6.426-1.447c-2.734.151-5.21,1.651-7.376,3.319a39.942,39.942,0,0,0-11.458,14.2c-.834,1.775-3.355,6-2.112,7.828.568.843,2.663,1.136,3.55,1.66A11.487,11.487,0,0,1,696.817,690.467Z" transform="translate(-98.754 -131.441)" fill="#fbbebe"/>
    <path id="Path_1017" data-name="Path 1017" d="M737.615,670.628c15.018,2.8,28.828,10.047,43.589,13.961,5.973,1.58,12.124,2.663,17.831,4.988s11.086,6.3,13.544,11.964a34.376,34.376,0,0,1,2.05,8.45c.639,4.092,1.163,8.663-1.269,12.018-2.565,3.55-7.411,4.34-11.751,4.855-15.6,1.864-31.207,3.719-46.864,5.032a83.916,83.916,0,0,0-9.435,1.127c-2.574.524-5.086,1.3-7.642,1.9-3.3.781-6.674,1.26-10.029,1.775-8.583,1.225-17.263,2.467-25.882,1.518-3.932-.435-8.334-1.7-10.065-5.254a13.411,13.411,0,0,1-.888-5.787c0-5.263-.089-10.536,0-15.8.08-5.405.346-11.015,2.8-15.834a6.32,6.32,0,0,1,3.2-3.328,7.358,7.358,0,0,1,2.752-.249c4.615.16,9.39.355,13.518,2.414,3.275,1.624,5.636-3.231,8.973-1.775,6.328,2.8,2.041-5.681,8.432-3.044,1.491-4.6,7.828-1.864,6.728-6.577s2.849-2.663,2.4-7.509a9.062,9.062,0,0,0-.6-3.089C738.5,671.436,738.663,670.477,737.615,670.628Z" transform="translate(-98.911 -132.601)" fill="#464353"/>
    <path id="Path_1018" data-name="Path 1018" d="M226.274,348.313c-3.444,2.006-7.713,1.633-11.725,1.544a72.9,72.9,0,0,0-10.5.541,9.914,9.914,0,0,0-3.612.958,9.036,9.036,0,0,0-3.355,3.914,27.747,27.747,0,0,0-2.831,8.716c-.5,3.417-.444,7.154-2.574,9.861-2.9,3.683-7.429,3.115-11.538,3.843a31.067,31.067,0,0,0-10.127,3.87,25.021,25.021,0,0,0-11.734,17.228c-.115.808-.2,1.607-.231,2.414-.089,2.29.142,4.624-.16,6.87a11.963,11.963,0,0,1-.337,1.66,3.546,3.546,0,0,1-.151.47c-.133-1.038-.284-2.059-.462-3.08a45.326,45.326,0,0,1-6.976-9.169A6.826,6.826,0,0,1,148.727,396c-2.876-6.692-4.837-13.464-4.837-20.8a45.577,45.577,0,0,1,82.375-26.893Z" transform="translate(-37.426 -94.263)" opacity="0.06"/>
    <path id="Path_1019" data-name="Path 1019" d="M221.792,328.265c-2.281-5.281-7.1-9.027-12.053-11.964a65.622,65.622,0,0,0-32.4-9.63,83.586,83.586,0,0,0-17.112,1.775A83.725,83.725,0,0,0,144.192,313a57.133,57.133,0,0,0-22.021,16.26,22.131,22.131,0,0,0-3.683.595c-4.828,1.207-9.177,3.861-13.145,6.87a41.839,41.839,0,0,0-8.751,8.547,36.728,36.728,0,0,0-5.9,13.873c-3.382,15.586.781,31.668,3.834,47.316s4.837,32.742-2.663,46.8c-2.831,5.325-6.852,9.852-9.87,15.035s-5.024,11.423-3.311,17.174c2.041,6.994,8.911,11.432,12.5,17.725a21.3,21.3,0,0,1-4.145,25.491c5.636,1.953,11.911-.151,16.988-3.275a30.017,30.017,0,0,0,10-9.488c6.382-10.331,3.55-23.671,5.769-35.609,2.956-15.621,14.885-29.556,13.243-45.373-1.109-10.651-8.139-19.482-13.669-28.615a112.13,112.13,0,0,1-9.257-19.2c-1.775-4.766-3.213-9.888-2.334-14.893a20.049,20.049,0,0,1,1.393-4.438v.506a34,34,0,0,0,3.035,13.314c6.6,13.491,24.186,18.461,31.633,31.5,2.175-2.37,4.438-4.855,5.325-7.944.781-2.751.382-5.68.5-8.538.311-7.988,5.166-15.515,11.964-19.633a30.736,30.736,0,0,1,10.127-3.861c4.1-.737,8.627-.178,11.538-3.861,2.13-2.663,2.077-6.444,2.583-9.852A27.568,27.568,0,0,1,188.7,350.7a8.956,8.956,0,0,1,3.355-3.905,9.764,9.764,0,0,1,3.621-.959,72.7,72.7,0,0,1,10.491-.541c4.056.1,8.4.461,11.876-1.624C222.946,340.691,224.073,333.59,221.792,328.265Z" transform="translate(-30.024 -91.683)" fill="#464353"/>
    <path id="Path_1020" data-name="Path 1020" d="M791.689,273.014v.364c-1.607,13.846-14.92,13.207-18.027,35.024-1.225,8.547-14.2,10.127-22.731,12.426-3.683-1.243-7.411-2.317-11.095-3.657-8.521-3.08-2.565-7.7,1.083-12.674,11.938-16.278,14.2-38.521,27.754-53.476a49.979,49.979,0,0,0,22.438,21.7A3.2,3.2,0,0,0,791.689,273.014Z" transform="translate(-103.938 -85.426)" opacity="0.06"/>
    <path id="Path_1021" data-name="Path 1021" d="M785.045,259.793a56.382,56.382,0,0,1-.355,6.284,55.712,55.712,0,1,1,.355-6.284Z" transform="translate(-96.984 -80.149)" fill="#a1616a"/>
    <path id="Path_1022" data-name="Path 1022" d="M817,273.867c6.382-.311,12.515,2.192,18.408,4.651,23.37,9.763,46.935,19.606,67.819,33.941,10.3,7.1,19.837,15.16,29.361,23.245l39.133,33.248c7.518,6.382,15.089,12.825,21.124,20.636a140.151,140.151,0,0,1,9.7,15.089l5.8,9.9a88.819,88.819,0,0,1,6.213,12.115c2.982,7.642,4.092,16.553,10.109,22.136,4.039,3.754,9.6,5.281,14.538,7.757s9.763,6.825,9.684,12.346c0,3.55-2.148,6.746-3.763,9.941a39.853,39.853,0,0,0-4.047,21.595l-63.994-48.905c-2.547-1.944-5.21-3.95-8.343-4.607-4.065-.888-8.21.648-12.133,2.033a235.252,235.252,0,0,1-96.488,12.683c-14.459-1.136-29.139-3.737-41.8-10.811-7-3.905-13.2-9.08-19.349-14.2-7.678-6.426-15.382-12.87-22.189-20.219-1.775-1.961-3.621-4.118-4.074-6.746a22.364,22.364,0,0,1,.24-5.751c1.118-13.464-10.065-24.674-13.473-37.748a34.615,34.615,0,0,1,10.837-34.322c7.624,6.674,7.349,18.4,6.462,28.491-1.2,13.589,2.6,20.325,1.4,33.923,4.828-.177,3.95,2.929,6.009-1.447s2.459-9.311,2.849-14.13q2.139-26.148,5.192-52.207c1.012-8.689,2.166-17.361,3.275-26.041.674-5.281.586-10.216,3.373-14.9C802.752,279.068,809.329,274.231,817,273.867Z" transform="translate(-106.525 -87.992)" fill="#f44336"/>
    <path id="Path_1023" data-name="Path 1023" d="M829.774,291.64c4.065-1.278,8.441-.107,12.524,1.109q10.828,3.213,21.532,6.79c5.831,1.944,11.743,4.03,16.677,7.7,5.121,3.8,8.876,9.08,12.595,14.272a61.786,61.786,0,0,1,7.1,11.76c2.308,5.556,2.929,11.645,3.55,17.627a23.127,23.127,0,0,1-.1,7.784,18.9,18.9,0,0,1-4.287,7.482,51.188,51.188,0,0,1-10.527,9.435c-10.447,7.03-23.077,9.959-35.378,12.541-10.979,2.3-22.038,4.438-33.24,5.13-4.358.275-9.417,0-12.08-3.444a13.574,13.574,0,0,1-1.775-3.5,132.381,132.381,0,0,1-8.317-54.346,40.046,40.046,0,0,1,1.553-9.959,47.93,47.93,0,0,1,3.417-7.5c3.364-6.364,6.905-12.95,12.7-17.21,6.062-4.438,13.917-5.84,21.435-5.556" transform="translate(-110.949 -89.931)" fill="#a1616a"/>
    <path id="Path_1024" data-name="Path 1024" d="M863,359.71c-3.488,2.352-4.7,6.9-5.148,11.086-1.891,17.814,5.459,35.45,4.97,53.352-.391,14.2-5.7,27.834-10.935,41.086-8.929,22.606-13.58,47.157-15.382,71.4s-4.438,49.482-17.45,69.985c-2.956,4.642-6.4,8.956-9.293,13.624-3.035,4.882-5.441,10.118-8.121,15.2a163.5,163.5,0,0,1-30.177,40.535c-3.55,3.462-7.314,6.817-11.84,8.814a23.84,23.84,0,0,1-18.515.2c-6.071-2.512-11.183-8.175-11.432-14.743-.222-5.876,3.284-11.175,6.8-15.879a260.625,260.625,0,0,1,40.828-43.278c2.76-2.325,5.672-4.731,7.1-8.05,1.607-3.825.95-8.166,1.154-12.311.328-6.612,2.9-12.888,4.438-19.331,6.213-26.174-4.828-54.754,4.154-80.112,2-5.636,4.961-11.024,5.663-16.961a16.159,16.159,0,0,0-3.133-11.911,15.709,15.709,0,0,1-3.852-10.083,17.394,17.394,0,0,1,.1-2.263c1.083-11.618,2.157-23.29,1.571-34.944s-2.9-23.37-8.281-33.728c-2.787-5.37-6.391-10.393-8.112-16.189-2.769-9.382-.213-19.527,3.914-28.4,3.222-6.941,7.518-13.553,13.518-18.311,11.148-8.831,27.834-9.852,40.038-2.547,9,5.379,15.16,14.423,20.157,23.645C859.317,346.317,863.1,352.024,863,359.71Z" transform="translate(-103.285 -92.179)" opacity="0.06"/>
    <path id="Path_1025" data-name="Path 1025" d="M865.28,359.71c-3.488,2.352-4.7,6.9-5.148,11.086-1.891,17.813,5.458,35.449,4.97,53.352-.391,14.2-5.7,27.834-10.935,41.086-8.929,22.606-13.571,47.157-15.382,71.4s-4.438,49.482-17.45,69.985c-2.956,4.642-6.391,8.956-9.293,13.624-3.027,4.882-5.441,10.118-8.121,15.2a163.688,163.688,0,0,1-30.177,40.535c-3.55,3.461-7.323,6.816-11.849,8.814a23.84,23.84,0,0,1-18.515.2c-6.062-2.512-11.175-8.174-11.423-14.742-.231-5.876,3.275-11.174,6.8-15.879a260.57,260.57,0,0,1,40.828-43.278c2.76-2.325,5.681-4.731,7.1-8.05,1.615-3.825.95-8.166,1.154-12.311.328-6.612,2.9-12.888,4.438-19.331,6.213-26.174-4.828-54.754,4.154-80.112,2-5.636,4.97-11.024,5.672-16.961A16.2,16.2,0,0,0,798.97,462.4a15.621,15.621,0,0,1-3.958-10.083,17.426,17.426,0,0,1,.1-2.263c1.074-11.618,2.148-23.29,1.562-34.944s-2.9-23.37-8.281-33.728c-2.787-5.37-6.391-10.393-8.112-16.189-2.769-9.382-.213-19.527,3.914-28.4,3.231-6.941,7.518-13.553,13.518-18.311,11.148-8.831,27.834-9.852,40.038-2.547,9,5.379,15.16,14.423,20.157,23.645C861.579,346.317,865.343,352.024,865.28,359.71Z" transform="translate(-103.542 -92.179)" fill="#a1616a"/>
    <path id="Path_1026" data-name="Path 1026" d="M983.2,627l-.763.231" transform="translate(-131.704 -127.698)" fill="#464353"/>
    <path id="Path_1027" data-name="Path 1027" d="M808.15,671.508a6.571,6.571,0,0,1,.16-.888" transform="translate(-112.109 -132.602)" fill="#464353"/>
    <path id="Path_1028" data-name="Path 1028" d="M1020.052,601.923c2.556-2.956,6.5-4.278,10.287-5.263a103.3,103.3,0,0,1,18.639-3.035,34.844,34.844,0,0,1,11.68.719,15.049,15.049,0,0,1,9.284,6.71c1.7,3.018,1.962,6.6,2.183,10.056.462,7.1.888,14.2-.284,21.2-.754,4.438-2.166,8.734-3.08,13.136-2.964,14.432-.39,29.37-.657,44.1-.062,3.142-.267,6.364-1.589,9.213-1.411,3.027-3.95,5.325-6.426,7.6a40.745,40.745,0,0,1-8.778,6.577c-4.864,2.441-10.464,2.849-15.905,3.018-3.311.1-6.719.107-9.763-1.109s-5.787-3.95-6.009-7.26c-.355-5.618,5.982-9.293,7.793-14.618,1.438-4.243-.213-8.929-2.5-12.79a40.472,40.472,0,0,0-15.186-14.689c-2.325-1.278-4.8-2.352-6.737-4.154s-3.249-4.6-2.423-7.1c.985-3.027,4.509-4.438,7.677-4.74s6.515-.071,9.364-1.482a12.8,12.8,0,0,0,5.521-6.213,23.075,23.075,0,0,0,1-17.37,21.337,21.337,0,0,0-3.3-6.009c-1.331-1.7-4.065-3.142-5.015-5.006C1014.14,610.054,1017.788,604.586,1020.052,601.923Z" transform="translate(-133.715 -123.923)" fill="#f44336"/>
    <path id="Path_1029" data-name="Path 1029" d="M946.893,454.142c-14.663-12.959-35.1-16.482-54.275-20.414q-14.813-3.027-29.485-6.746c-6.426-1.633-12.87-3.373-19.526-3.825s-13.509.479-19.207,3.87-9.994,9.532-10.03,16.163c0,2.663.63,5.272.435,7.908-.311,4.243-2.663,7.988-4.269,11.956a31.419,31.419,0,0,0-1.074,19.669c2.84,10.358,11.024,19.482,10.314,30.177-1.18,17.9-.817,36.612,2.858,54.142s8.263,35.139,8.157,53.077-5.538,36.8-18.932,48.745A73.163,73.163,0,0,0,844.1,686.481c10.322,2.583,22.6,2.325,29.947-5.37,1.7-1.775,3.115-4.145,2.76-6.586a12.878,12.878,0,0,0-1.908-4.3c-5.05-9.044-4.438-20.192-2.2-30.293s6.062-19.917,7.03-30.231c.71-7.482-.089-15.089,1.34-22.473,1.1-5.654,3.479-10.979,4.908-16.562,4.216-16.562-.213-33.95-4.615-50.45,3.683,8.476,10.651,15.089,17.858,20.84,10.935,8.716,24.16,16.411,38.059,14.867,12.373-1.385,22.908-9.985,30.177-20.077.062-11.672,4.109-22.7,3.391-34.349a87.186,87.186,0,0,0-2.734-15.133c-1.358-5.538-2.751-11.13-5.325-16.216C959.39,463.39,952.556,459.139,946.893,454.142Z" transform="translate(-112.134 -104.767)" opacity="0.06"/>
    <path id="Path_1030" data-name="Path 1030" d="M950.315,454.142c-14.663-12.959-35.094-16.482-54.275-20.414q-14.814-3.027-29.476-6.746c-6.426-1.633-12.879-3.373-19.527-3.825s-13.5.479-19.2,3.87-10,9.532-10.03,16.163c0,2.663.621,5.272.426,7.908-.3,4.243-2.707,7.988-4.269,11.956a31.419,31.419,0,0,0-1.065,19.669c2.831,10.358,11.015,19.482,10.314,30.177-1.189,17.9-.825,36.612,2.849,54.142s8.263,35.139,8.157,53.077-5.574,36.737-18.976,48.666A73.206,73.206,0,0,0,847.49,686.4c10.322,2.583,22.606,2.325,29.947-5.37,1.7-1.775,3.115-4.145,2.76-6.586a12.877,12.877,0,0,0-1.908-4.3c-5.05-9.044-4.438-20.192-2.2-30.293s6.062-19.917,7.038-30.231c.7-7.482-.1-15.089,1.34-22.473,1.092-5.654,3.479-10.979,4.9-16.562,4.216-16.562-.2-33.95-4.615-50.45,3.683,8.476,10.651,15.089,17.867,20.84,10.935,8.716,24.151,16.411,38.05,14.867,12.373-1.385,22.908-9.985,30.177-20.077.053-11.672,4.1-22.7,3.382-34.349a87.209,87.209,0,0,0-2.734-15.133c-1.349-5.538-2.751-11.13-5.326-16.216C962.865,463.39,955.978,459.139,950.315,454.142Z" transform="translate(-112.52 -104.767)" fill="#a1616a"/>
    <path id="Path_1031" data-name="Path 1031" d="M838.806,707.257a55.42,55.42,0,0,1-16.518-15.47,43.546,43.546,0,0,0-4.97-6.515c-1.97-1.9-4.642-3.311-7.367-3.027-3.08.319-5.547,2.663-7.5,5.077-5.237,6.488-8.609,14.423-14.423,20.414-6.71,6.932-16.074,10.651-25.42,13.03s-18.994,3.63-28.154,6.639c-2.876.941-5.9,2.219-7.456,4.819-1.97,3.311-.888,7.651,1.189,10.935,3.825,6.213,10.411,10.216,17.281,12.595s14.139,3.328,21.3,4.731c12.657,2.476,25.624,6.444,38.219,3.648,5.024-1.118,9.763-3.284,14.84-4.225,11.538-2.148,23.441,2.192,35.024.453,5.6-.843,10.891-3.08,15.976-5.6a22.029,22.029,0,0,0,6.834-4.642c1.855-2.059,2.973-4.979,2.21-7.642a30.817,30.817,0,0,0-2.1-4.278,22,22,0,0,1-1.509-7.207,197.521,197.521,0,0,0-4.864-27.763c-.79-3.186-1.97-6.737-4.944-8.13a2.663,2.663,0,0,0-1.979-.222c-1.056.4-1.4,1.677-1.722,2.751a16.935,16.935,0,0,1-29.45,5.84" transform="translate(-102.868 -133.905)" fill="#f44336"/>
    <path id="Path_1032" data-name="Path 1032" d="M785.436,259.794a56.382,56.382,0,0,1-.355,6.284,17.973,17.973,0,0,1-15.444-5.139c-1.873-1.988-3.275-4.393-5.13-6.4s-4.438-3.675-7.1-3.462a9.211,9.211,0,0,0-5.8,3.275A18.884,18.884,0,0,0,747.288,262c-.595,2.015-.888,4.3-2.556,5.645s-3.719,1.251-5.7,1.18c-2.565-.089-5.228-.213-7.491-1.42-4.26-2.3-5.7-7.562-7.278-12.142-2.663-7.7-8.654-22.251-17.964-23.8-4.438-.737-9.834,1.606-13.313,4.136-5.246,3.808-9.115,6.275-15.9,6.169h0a55.722,55.722,0,0,1,108.434,18.035Z" transform="translate(-97.374 -80.15)" opacity="0.06"/>
    <path id="Path_1033" data-name="Path 1033" d="M675.537,235.942a13.392,13.392,0,0,1-4.7-.746c-4.3-1.686-6.4-6.657-6.763-11.263-.568-7.021,1.775-13.908,4.127-20.556.5-1.447,1.092-3,2.388-3.808a8.289,8.289,0,0,1,3.364-.843c6.373-.888,11.9-4.784,16.606-9.151s8.947-9.319,14.2-12.959c13.935-9.612,34.615-7.819,46.668,4.038,4.775,4.686,8.876,11.041,15.5,12.142,3.816.63,7.908-.683,11.538.737,2.663,1.038,4.562,3.391,6.089,5.8,4.953,7.775,7.278,16.988,8.05,26.174s.062,18.426-.657,27.612a7.208,7.208,0,0,1-1.021,3.914,5.966,5.966,0,0,1-2.086,1.6,17.92,17.92,0,0,1-20.671-3.479c-1.882-1.979-3.275-4.385-5.13-6.4s-4.438-3.666-7.1-3.453a9.212,9.212,0,0,0-5.8,3.275,18.886,18.886,0,0,0-4.322,7.642c-.586,2.015-.888,4.3-2.556,5.636s-3.719,1.26-5.707,1.189c-2.556-.1-5.219-.213-7.482-1.429-4.269-2.29-5.707-7.553-7.278-12.133-2.663-7.7-8.645-22.26-17.964-23.8-4.438-.746-9.834,1.607-13.314,4.136C686.187,233.59,682.353,236.058,675.537,235.942Z" transform="translate(-95.9 -76.366)" fill="#464353"/>
    <path id="Path_1034" data-name="Path 1034" d="M335.658,616.523c-.612,4.047-4.322,7.207-6.941,10.349-7.118,8.592-14.334,17.21-22.3,25.074-8.521,8.405-17.876,15.9-27.222,23.387l-12.124,9.7a15.267,15.267,0,0,1-5.157,3.106,9.417,9.417,0,0,1-6.639-.79c.178-.355.364-.683.568-1.012l14.538-24.364c2.858-4.775,4.731-9.124,7.988-13.606,4.908-6.71,9.861-13.456,15.905-19.145,7.642-7.2,17.441-12.426,26.529-17.627,1.314-3.941,6.817-5.033,10.535-3.169a13.162,13.162,0,0,1,3.666,2.814A10.491,10.491,0,0,1,335.658,616.523Z" transform="translate(-49.95 -125.51)" opacity="0.06"/>
    <path id="Path_1035" data-name="Path 1035" d="M271.47,653.675l-14.538,24.373a3.445,3.445,0,0,0,.825,5.521c5.574,4.535,11.751,9.32,13.5,16.287,1.251,4.97,0,10.3,1.118,15.284,2.05,9,11.095,14.467,19.651,17.929,19.172,7.757,40.455,10.74,60.825,7.1s39.7-14.006,52.89-29.947c4.047-4.9,7.509-10.26,11.352-15.319,10.651-13.979,24.169-25.455,37.58-36.816,17.263-14.627,27.435-36.444,42.6-53.254,2.76-3.062,5.8-6.213,9.763-7.225,2.219-.559,5.325.266,5.414,2.556.2,4.438,3.772,8.068,6.213,11.778,9.2,14.059,18.816,28.553,33.026,37.518,7.775,4.917,16.589,7.926,25.376,10.651,22.278,6.941,44.991,12.426,67.677,17.858a37.956,37.956,0,0,1,4.1-6.47c2.352-2.885,5.45-5.086,7.811-7.988,4.322-5.228,5.84-12.142,7.225-18.781-13.553-8.3-27.461-16.864-40.828-25.491-6.728-4.331-13.5-8.76-18.95-14.618-3.55-3.852-6.532-8.263-10.092-12.142a102.959,102.959,0,0,0-11.734-10.411l-31.953-25.589c-9.177-7.34-18.532-15.089-27.515-22.686-5.05-4.278-10.651-8.778-17.254-8.982-5.654-.178-10.855,2.849-15.719,5.76q-42.852,25.66-86.982,49.012c-5.956,3.142-11.938,6.266-17.618,9.879A118.755,118.755,0,0,0,356.2,615.537c-1.5,1.873-3.4,4-5.778,3.719a5.2,5.2,0,0,1-1.855-.648c-3.666-1.961-5.911-5.751-7.988-9.346s-4.393-7.376-8.112-9.24-9.213-.772-10.535,3.177c-9.133,5.352-18.9,10.535-26.547,17.733-6.044,5.689-11,12.426-15.905,19.145C276.2,644.56,274.32,648.909,271.47,653.675Z" transform="translate(-50.022 -116.208)" fill="#464353"/>
    <path id="Path_1036" data-name="Path 1036" d="M246.61,502.52s14.618,6.488,25.1,13.811" transform="translate(-48.975 -113.702)" opacity="0.06"/>
    <path id="Path_1037" data-name="Path 1037" d="M1057.139,509.619c.266,8.281.479,16.58.382,24.852-.053,4.385-.24,8.956-2.343,12.8-1.5,2.76-3.87,4.917-6.213,7.03l-14.618,13.251c-4.535,4.109-9.426,8.4-15.47,9.417-6.914,1.172-13.669-2.192-20.317-4.438a66.68,66.68,0,0,0-20.769-3.488c-4.047,0-8.13.319-12.124-.32a49.715,49.715,0,0,1-8.467-2.405l-13.2-4.58c.373-3.328,3.55-5.45,6.213-7.553,9.453-7.669,13.6-20,16.58-31.793a189.6,189.6,0,0,0,5.166-28.056,46.07,46.07,0,0,0-.328-14.059,55.922,55.922,0,0,0-3.905-10.775l-4.642-10.464c-2.663-5.911-7.988-8.538-13.411-12.027,8.183,3.106,18.16,4.322,24.382,10.482a16.149,16.149,0,0,0,4.207,3.408,19.915,19.915,0,0,0,5.476,1.189c9.24,1.385,17.094,7.189,24.728,12.559q14.015,9.87,28.811,18.541c4.438,2.609,9.018,5.175,12.754,8.734s6.666,8.3,6.905,13.456" transform="translate(-127.383 -107.461)" fill="#464353"/>
    <path id="Path_1038" data-name="Path 1038" d="M172.549,493.424c-11.636,2.3-17.689,15.976-17.006,27.808A45.266,45.266,0,0,0,167.81,549.5c4.855,5.1,10.908,9.044,15.293,14.556,6.479,8.13,8.734,18.879,14.529,27.515,4.207,6.266,10.109,11.183,15.976,15.9q20.29,16.189,41.9,30.648c5.858,3.914,12.266,7.873,19.314,7.722,6.639-.142,12.754-4.038,17.086-9.08s7.1-11.166,9.914-17.2c10.136-22.1,20.343-44.441,25.189-68.263,1.518-7.482,2.538-15.2,5.929-22.038,2.663-5.325,6.6-9.888,10.118-14.7a101.386,101.386,0,0,0,17.112-38.236c1.935-9,2.583-18.639-.595-27.248S348.688,433,339.5,432.324c-7.269-.533-14.405,3.2-19.287,8.618s-7.757,12.355-9.719,19.376a92.813,92.813,0,0,0-3.2,31.065c.568,8.441,2.29,16.961.834,25.3-1.03,5.885-3.595,11.379-6.133,16.793-6.559,13.97-13.225,28.118-23.139,39.941-3.231,3.852-7.677,7.749-12.621,6.843-6.834-1.243-8.645-9.9-12.018-15.976-4.136-7.456-11.982-11.938-18.133-17.858-8.751-8.432-14-19.74-20.219-30.177s-14.272-20.743-25.74-24.745-26.751,1.136-29.7,12.923" transform="translate(-38.73 -105.804)" opacity="0.06"/>
    <path id="Path_1039" data-name="Path 1039" d="M181.336,501.015c-11.645,2.3-26.467,3.8-25.74,15.648a45.177,45.177,0,0,0,12.266,28.269c4.855,5.112,10.908,9.053,15.293,14.565,6.479,8.13,8.734,18.87,14.53,27.515,4.207,6.275,10.109,11.192,15.976,15.9q20.29,16.2,41.9,30.648c5.858,3.923,12.266,7.882,19.314,7.731,6.639-.142,12.754-4.047,17.086-9.08s7.1-11.166,9.914-17.21c10.136-22.1,20.343-44.441,25.189-68.263,1.518-7.473,2.538-15.2,5.929-22.03,2.663-5.325,6.6-9.887,10.118-14.707a101.29,101.29,0,0,0,17.112-38.228c1.935-9.009,2.583-18.639-.595-27.257s-10.89-16.065-20.077-16.748c-7.269-.533-14.405,3.2-19.287,8.618s-7.757,12.355-9.719,19.385a92.787,92.787,0,0,0-3.2,31.065c.568,8.45,2.29,16.97.834,25.3-1.03,5.893-3.595,11.388-6.133,16.8-6.559,13.97-13.225,28.109-23.139,39.941-3.231,3.852-7.677,7.74-12.621,6.843-6.834-1.251-8.645-9.905-12.018-15.976-4.136-7.456-11.982-11.938-18.133-17.858-8.751-8.423-14-19.74-20.219-30.177s-14.272-20.734-25.74-24.745,2.893,21.683-.062,33.47" transform="translate(-38.739 -105.292)" opacity="0.06"/>
    <path id="Path_1040" data-name="Path 1040" d="M172.549,491.136c-11.636,2.3-17.689,15.976-17.006,27.808a45.266,45.266,0,0,0,12.266,28.278c4.855,5.1,10.908,9.044,15.293,14.556,6.479,8.13,8.734,18.879,14.529,27.515,4.207,6.275,10.109,11.192,15.976,15.905q20.29,16.189,41.9,30.639c5.858,3.923,12.266,7.882,19.314,7.731,6.639-.142,12.754-4.038,17.086-9.08s7.1-11.166,9.914-17.2c10.136-22.1,20.343-44.441,25.189-68.272,1.518-7.473,2.538-15.2,5.929-22.029,2.663-5.325,6.6-9.888,10.118-14.707a101.289,101.289,0,0,0,17.112-38.228c1.935-9.009,2.583-18.639-.595-27.257s-10.89-16.065-20.077-16.74c-7.269-.541-14.405,3.2-19.287,8.618s-7.757,12.355-9.719,19.376a92.813,92.813,0,0,0-3.2,31.065c.568,8.441,2.29,16.961.834,25.3C307.1,520.3,304.54,525.8,302,531.21c-6.559,13.97-13.225,28.118-23.139,39.941-3.231,3.852-7.677,7.74-12.621,6.843-6.834-1.251-8.645-9.9-12.018-15.976-4.136-7.464-11.982-11.947-18.133-17.858-8.751-8.432-14-19.74-20.219-30.177s-14.272-20.734-25.74-24.737-26.751,1.136-29.7,12.923" transform="translate(-38.73 -105.549)" fill="#fbbebe"/>
    <g id="Group_96" data-name="Group 96" transform="translate(57 216.452)" opacity="0.06">
      <path id="Path_1041" data-name="Path 1041" d="M120.5,413.852a112.132,112.132,0,0,1-9.257-19.2l-.3-.888a28.756,28.756,0,0,1-4.678-6.737,33.958,33.958,0,0,1-3.035-13.314v-.506a20.05,20.05,0,0,0-1.394,4.438c-.888,5.006.577,10.118,2.334,14.893a112.44,112.44,0,0,0,9.257,19.2c5.512,9.213,12.55,18.089,13.642,28.66,1.642,15.816-10.287,29.742-13.234,45.372-2.254,11.938.6,25.278-5.778,35.609a29.9,29.9,0,0,1-10,9.479,28.3,28.3,0,0,1-8.192,3.55,19.015,19.015,0,0,1-1.7,1.775c5.636,1.953,11.911-.151,16.988-3.275a30.018,30.018,0,0,0,10-9.488c6.382-10.331,3.55-23.671,5.769-35.609,2.956-15.621,14.885-29.556,13.243-45.373C133.062,431.807,126.033,422.941,120.5,413.852Z" transform="translate(-88.16 -315.616)"/>
      <path id="Path_1042" data-name="Path 1042" d="M229.606,328.45c-2.281-5.281-7.1-9.027-12.053-11.964a69.772,69.772,0,0,0-20.245-8.166,72.368,72.368,0,0,1,13.154,6.133c4.953,2.947,9.763,6.683,12.062,11.973s1.154,12.426-3.781,15.373c-3.479,2.086-7.82,1.713-11.876,1.624a71.449,71.449,0,0,0-10.491.533,10.091,10.091,0,0,0-3.621.958,9.008,9.008,0,0,0-3.355,3.95,27.586,27.586,0,0,0-2.84,8.725c-.5,3.408-.453,7.145-2.583,9.852-2.893,3.683-7.42,3.124-11.538,3.852a31.065,31.065,0,0,0-10.127,3.87c-6.8,4.109-11.654,11.618-11.964,19.633-.107,2.858.284,5.778-.488,8.53a14.076,14.076,0,0,1-2.308,4.438,30.265,30.265,0,0,1,4.1,5.53c2.175-2.37,4.438-4.855,5.325-7.944.781-2.752.382-5.68.5-8.538.311-7.988,5.166-15.515,11.964-19.633a30.738,30.738,0,0,1,10.127-3.861c4.1-.737,8.627-.177,11.538-3.861,2.13-2.663,2.077-6.444,2.583-9.852a27.567,27.567,0,0,1,2.831-8.725,8.955,8.955,0,0,1,3.355-3.905,9.762,9.762,0,0,1,3.621-.959,72.691,72.691,0,0,1,10.491-.541c4.056.1,8.4.462,11.876-1.624C230.76,340.876,231.887,333.776,229.606,328.45Z" transform="translate(-94.837 -308.32)"/>
    </g>
    <path id="Path_1043" data-name="Path 1043" d="M174.52,426.55s10.482,9.018,30.39,3.55C204.91,430.083,192.582,434.938,174.52,426.55Z" transform="translate(-40.87 -105.161)" opacity="0.06"/>
    <path id="Path_1044" data-name="Path 1044" d="M791.727,251.621a7.233,7.233,0,0,1-1.065,3.888,5.938,5.938,0,0,1-2.086,1.589,17.9,17.9,0,0,1-20.663-3.47c-1.882-1.988-3.275-4.438-5.13-6.4s-4.438-3.675-7.1-3.462a9.315,9.315,0,0,0-5.8,3.275,19.217,19.217,0,0,0-4.323,7.642c-.577,2.024-.888,4.3-2.547,5.645s-3.719,1.251-5.707,1.18c-2.565-.089-5.228-.2-7.482-1.42-4.269-2.29-5.707-7.562-7.287-12.133-2.663-7.7-8.645-22.26-17.956-23.813-4.438-.737-9.843,1.615-13.314,4.136-5.245,3.808-9.115,6.275-15.905,6.213a13.571,13.571,0,0,1-4.7-.746c-3.905-1.535-5.991-5.778-6.621-9.985a29.572,29.572,0,0,0-.151,5.814c.373,4.6,2.467,9.568,6.772,11.263a13.571,13.571,0,0,0,4.7.746c6.79.106,10.651-2.361,15.905-6.169,3.488-2.521,8.876-4.882,13.314-4.136,9.275,1.509,15.311,16.065,17.92,23.76,1.58,4.58,3.018,9.852,7.287,12.142,2.254,1.207,4.917,1.331,7.482,1.42,1.988.071,4.172.08,5.707-1.18s1.97-3.63,2.547-5.645a19.152,19.152,0,0,1,4.322-7.642,9.361,9.361,0,0,1,5.8-3.275c2.734-.213,5.325,1.447,7.1,3.462s3.249,4.438,5.13,6.4a17.9,17.9,0,0,0,20.663,3.47,6.045,6.045,0,0,0,2.086-1.589,7.244,7.244,0,0,0,1.065-3.9,211.65,211.65,0,0,0,.888-22.491C792.508,241.352,792.126,246.491,791.727,251.621Z" transform="translate(-95.881 -82.361)" opacity="0.06"/>
    <path id="Path_1045" data-name="Path 1045" d="M109.856,678.546s1.411-1.571-1.243-2.192v-2.583h1.6a13.624,13.624,0,0,0-10.8-13.313v-3.133h.417V653.25H89.557v4.074h.293v3.169A13.633,13.633,0,0,0,79.2,673.806h1.411v2.476s-3.364,1.589,0,4.438,2.84,4.908,2.84,4.908-1.411,5.325-4.243,6.018v49.376A10.97,10.97,0,0,0,90.179,752H98.85a10.979,10.979,0,0,0,10.979-10.979V691.646s-4.962-3.719-4.074-6.018A55.529,55.529,0,0,1,109.856,678.546Z" transform="translate(-30.143 -130.649)" fill="#464353"/>
  </g>
</svg>
