<svg xmlns="http://www.w3.org/2000/svg" width="767.912" height="510.949" viewBox="0 0 767.912 510.949">
  <g id="undraw_finish_line_katerina_limpitsouni_xy20_1_" data-name="undraw_finish_line_katerina_limpitsouni_xy20 (1)" transform="translate(-0.013 0.004)">
    <path id="Path_655" data-name="Path 655" d="M514.072,196.36c-45.177-1.605-88.2-16.187-129.262-32.11s-81.782-33.638-125.876-42.091c-28.361-5.438-60.8-6.206-83.645,9-22,14.659-29.1,39.893-32.919,63.333-2.876,17.632-4.565,36.186,3.309,52.695,5.473,11.462,15.175,21.095,21.89,32.075,23.363,38.2,6.848,85.3-18.463,122.6-11.867,17.5-25.653,34.2-34.818,52.813s-13.4,39.962-5.382,58.963c7.944,18.847,26.881,32.975,47.4,42.922,41.666,20.2,90.744,25.988,138.636,29.262,105.982,7.253,212.523,4.111,318.785.97,39.327-1.166,78.822-2.345,117.507-8.425,21.485-3.378,43.662-8.739,59.263-21.674,19.8-16.425,24.7-44.241,11.434-64.833-22.253-34.546-83.764-43.125-99.337-80.2-8.558-20.4.23-43.138,12.676-62.062,26.693-40.6,71.43-76.218,73.782-122.631,1.619-31.872-19.887-63.793-53.141-78.878-34.853-15.81-83.192-13.821-108.893,12.348C600.5,187.342,553.965,197.708,514.072,196.36Z" transform="translate(-66.462 -94.456)" fill="#f44336" opacity="0.1"/>
    <ellipse id="Ellipse_83" data-name="Ellipse 83" cx="51.103" cy="9.828" rx="51.103" ry="9.828" transform="translate(68.446 491.289)" fill="#f44336"/>
    <ellipse id="Ellipse_84" data-name="Ellipse 84" cx="5.947" cy="7.79" rx="5.947" ry="7.79" transform="translate(112.743 489.153)" fill="#3f3d56"/>
    <ellipse id="Ellipse_85" data-name="Ellipse 85" cx="5.947" cy="7.79" rx="5.947" ry="7.79" transform="translate(112.743 479.632)" fill="#3f3d56"/>
    <ellipse id="Ellipse_86" data-name="Ellipse 86" cx="5.947" cy="7.79" rx="5.947" ry="7.79" transform="translate(112.743 470.111)" fill="#3f3d56"/>
    <ellipse id="Ellipse_87" data-name="Ellipse 87" cx="5.947" cy="7.79" rx="5.947" ry="7.79" transform="translate(112.743 460.596)" fill="#3f3d56"/>
    <ellipse id="Ellipse_88" data-name="Ellipse 88" cx="5.947" cy="7.79" rx="5.947" ry="7.79" transform="translate(112.743 451.075)" fill="#3f3d56"/>
    <ellipse id="Ellipse_89" data-name="Ellipse 89" cx="5.947" cy="7.79" rx="5.947" ry="7.79" transform="translate(112.743 441.554)" fill="#3f3d56"/>
    <ellipse id="Ellipse_90" data-name="Ellipse 90" cx="5.947" cy="7.79" rx="5.947" ry="7.79" transform="translate(112.743 432.033)" fill="#3f3d56"/>
    <path id="Path_656" data-name="Path 656" d="M229.869,600.837a28.215,28.215,0,0,0,2.22-3.26l-15.636-2.569,16.906.126a28.528,28.528,0,0,0,.544-22.581l-22.679,11.769,20.941-15.357a28.5,28.5,0,1,0-47.075,31.893,28.762,28.762,0,0,0-3.253,5.2l20.3,10.54-21.639-7.26a28.487,28.487,0,0,0,4.593,26.763,28.5,28.5,0,1,0,44.8,0,28.5,28.5,0,0,0,0-35.244Z" transform="translate(-88.905 -226.162)" fill="#f44336"/>
    <path id="Path_657" data-name="Path 657" d="M179,645.819a28.382,28.382,0,0,0,6.1,17.618,28.5,28.5,0,1,0,44.8,0C233.7,658.6,179,642.629,179,645.819Z" transform="translate(-88.908 -253.533)" opacity="0.1"/>
    <path id="Path_658" data-name="Path 658" d="M575.854,622.582c.433,5.584,2.583,11.364,7.106,14.659s11.72,3.232,15.175-1.194a16.978,16.978,0,0,0,2.52-5.48c2.911-9.2,4.977-19.266,1.787-28.375-7.2-.468-15.538-3.853-20.941,2.094C577.139,609.131,575.352,616.125,575.854,622.582Z" transform="translate(-208.72 -240.068)" fill="#3f3d56"/>
    <path id="Path_659" data-name="Path 659" d="M607.765,540.119c-.956,8.118-2.583,16.2-2.415,24.375.063,3.155.4,6.282.4,9.451a46.587,46.587,0,0,1-6.282,23.433,7.863,7.863,0,0,1-1.717,2.22,5.514,5.514,0,0,1-6,.2,11.81,11.81,0,0,1-4.265-4.628c-5.2-8.907-5.347-19.733-7.406-29.834-1.578-7.727-4.342-15.217-5.34-23.035-.649-5.033-.551-10.163-1.584-15.133-.314-1.5-1.194-3.755-1.773-5.968-.531-1.975-.824-3.916-.279-5.249,1.11-2.729,4.747-1.668,7.113-1.5a163.734,163.734,0,0,0,25.031-.063,2.151,2.151,0,0,1,2.9,1.5,33.868,33.868,0,0,1,1.515,5.584C608.812,527.554,608.491,533.927,607.765,540.119Z" transform="translate(-207.222 -213.887)" fill="#fabdbd"/>
    <g id="Group_57" data-name="Group 57" transform="translate(363.605 300.224)" opacity="0.1">
      <path id="Path_660" data-name="Path 660" d="M613.407,514.5a6.154,6.154,0,0,0-1.291,0c-3.993.321-7.992.482-11.985.5Q606.768,515.012,613.407,514.5Z" transform="translate(-579.68 -514.217)"/>
      <path id="Path_661" data-name="Path 661" d="M593.168,599.8a11.811,11.811,0,0,1-4.265-4.628c-5.2-8.907-5.347-19.733-7.406-29.834-1.578-7.727-4.342-15.217-5.34-23.035-.649-5.033-.552-10.163-1.585-15.133-.314-1.5-1.194-3.755-1.773-5.968-.531-1.975-.824-3.916-.279-5.249a2.974,2.974,0,0,1,2.792-1.815c-1.766-.119-3.49.091-4.188,1.815-.544,1.333-.251,3.274.279,5.249.579,2.213,1.459,4.467,1.773,5.968,1.033,4.97.935,10.1,1.585,15.133,1,7.825,3.762,15.315,5.34,23.035,2.059,10.1,2.206,20.941,7.406,29.834a11.81,11.81,0,0,0,4.265,4.628,6.2,6.2,0,0,0,3.658.74,6.435,6.435,0,0,1-2.262-.74Z" transform="translate(-570.833 -514.111)"/>
    </g>
    <path id="Path_662" data-name="Path 662" d="M649.94,576.983c-4.188,8.376-3.49,20.243-3.49,20.243.7,27.921-10.471,86.556-10.471,86.556h-9.772s-1.4-64.917,0-70.5-.7-25.129-2.792-52.352c-1.557-20.243,2.68-38.587,4.956-46.636.782-2.792,1.326-4.321,1.326-4.321s16.055-23.733,25.129-12.565c2.094,2.6,3.2,7.839,3.588,14.456C659.657,533.7,653.151,570.554,649.94,576.983Z" transform="translate(-223.005 -207.941)" fill="#fabdbd"/>
    <path id="Path_663" data-name="Path 663" d="M663.089,511.866c-.384-6.617-1.48-11.867-3.588-14.456a7.19,7.19,0,0,0-6.855-2.911,7.441,7.441,0,0,1,4.761,2.911c2.094,2.6,3.2,7.839,3.588,14.456,1.243,21.835-5.263,58.691-8.474,65.12-4.188,8.376-3.49,20.243-3.49,20.243.7,27.921-10.471,86.556-10.471,86.556h2.094s11.169-58.635,10.47-86.556c0,0-.7-11.867,3.49-20.243C657.826,570.556,664.331,533.7,663.089,511.866Z" transform="translate(-227.68 -207.943)" opacity="0.1"/>
    <path id="Path_664" data-name="Path 664" d="M619.236,758.7a9.075,9.075,0,0,0-2,2.178c-1.249,2.359.524,5.179,2.422,7.057s4.188,3.888,4.188,6.562c0,2.15-1.626,3.993-3.448,5.138-.977.614-2.206,1.4-2,2.555a2.4,2.4,0,0,0,.37.817,10.8,10.8,0,0,0,7.141,4.328,32.214,32.214,0,0,0,8.558.07,1.724,1.724,0,0,0,1.173-.4,1.591,1.591,0,0,0,.314-.963c.14-1.48.049-3.043.7-4.377.907-1.822,2.995-2.75,4.188-4.384,1.675-2.234,1.445-5.34.81-8.055-1.4-5.912-4.5-12.655-9.165-16.753C627.082,747.765,622.844,755.3,619.236,758.7Z" transform="translate(-221.115 -285.41)" fill="#3f3d56"/>
    <path id="Path_665" data-name="Path 665" d="M557.923,242.987c3.9-5.822,2.883-13.961-1.1-19.754s-10.373-9.437-16.969-11.79c-8.893-3.169-18.7-4.251-27.838-1.871-7.273,1.892-13.807,5.85-20.662,8.907a88.853,88.853,0,0,1-38.587,7.678c-14.735-.412-30.881-4.188-43.243,3.867-22.63,14.722-12.565,54.789-33.973,71.2-5.773,4.426-13.039,6.359-19.461,9.772s-12.509,9.354-12.355,16.627c.07,3.49,1.605,6.82,3.49,9.772,8.027,12.725,23.035,20.6,38.064,20.452s29.694-8.139,38.357-20.438c2.171-3.078,4.083-6.506,7.232-8.558,6.282-4.118,14.561-1.236,22.058-.621,16.69,1.361,33.387-11.169,36.71-27.607,1.4-7.015,1.152-15.4,6.8-19.8,4.558-3.553,10.973-2.792,16.753-3.4,10.568-1.1,18.91-7.678,24.648-16.278,2.632-3.944,2.939-8.656,6.527-11.762C548.242,245.967,554.224,248.487,557.923,242.987Z" transform="translate(-138.653 -121.537)" fill="#3f3d56"/>
    <g id="Group_58" data-name="Group 58" transform="translate(243.471 86.724)" opacity="0.1">
      <path id="Path_666" data-name="Path 666" d="M470.627,234.682a88.487,88.487,0,0,0,18.268-1.4c-1.661.049-3.337.049-5,0-11.566-.321-24-2.708-34.79.168C456.22,233.523,463.584,234.487,470.627,234.682Z" transform="translate(-413.94 -215.439)"/>
      <path id="Path_667" data-name="Path 667" d="M433.513,382.058c-3.148,2.052-5.061,5.48-7.232,8.558a49.037,49.037,0,0,1-27.551,18.993c.817.035,1.633.056,2.457.049,15.043-.147,29.694-8.139,38.357-20.438,2.171-3.078,4.083-6.506,7.232-8.558l.544-.335C442.392,379.649,437.555,379.412,433.513,382.058Z" transform="translate(-398.73 -260.078)"/>
      <path id="Path_668" data-name="Path 668" d="M625.226,223.2c-3.972-5.766-10.373-9.437-16.969-11.79-8.893-3.169-18.7-4.251-27.838-1.871-.209.049-.412.112-.614.168a53.433,53.433,0,0,1,15.189,3.1c6.6,2.352,13,6.024,16.969,11.79s4.991,13.961,1.1,19.754c-3.7,5.521-9.682,3-13.6,6.4-3.588,3.106-3.9,7.818-6.527,11.762-4.935,7.378-11.8,13.263-20.355,15.5,2.939-.349,6.038-.307,8.97-.614,10.568-1.1,18.91-7.678,24.648-16.278,2.632-3.944,2.939-8.656,6.527-11.762,3.916-3.4,9.9-.88,13.6-6.4C630.224,237.135,629.212,228.968,625.226,223.2Z" transform="translate(-451.227 -208.252)"/>
      <path id="Path_669" data-name="Path 669" d="M545.773,309.274c-5.745.6-12.16-.154-16.753,3.4-5.647,4.4-5.375,12.788-6.8,19.8-2.45,12.264-12.4,22.379-24.222,26.141l.831.077c16.69,1.361,33.387-11.169,36.71-27.607,1.4-7.015,1.152-15.4,6.8-19.8a12.607,12.607,0,0,1,4.335-2.094C546.36,309.2,546.074,309.246,545.773,309.274Z" transform="translate(-428.706 -238.732)"/>
    </g>
    <path id="Path_670" data-name="Path 670" d="M697.524,199.835s-16.753,33.506-22.337,46.07-56.541,31.412-63.521,32.11a8.991,8.991,0,0,0-4.984,2.4c-3.944,3.49-6.185,9.465-6.185,9.465s2.792,18.847-.7,50.258c-.07.607-.133,1.215-.188,1.8-3.043,29.89,3.33,36.94,3.33,36.94s-67.709,25.827-65.615-7.678a151.832,151.832,0,0,0-.091-24.7,103.708,103.708,0,0,0-4.007-19.447c-1.654-5.787-3.63-12.132-5.675-20.773a91.128,91.128,0,0,0-3.881-12.669c-.049-.126-.1-.251-.14-.37-3.49-8.663-6.98-11.462-8.977-12.369a30.174,30.174,0,0,1-5.361-3.016,281.958,281.958,0,0,1-32.619-27.419C459.823,233.689,443.07,193.9,443.07,193.9s-4.886-23.035,6.282-41.882,6.282,37,6.282,37,20.243,27.223,25.129,39.788c2.513,6.464,6.506,9.772,9.772,11.49a115.872,115.872,0,0,1,15.454,9.661,90.253,90.253,0,0,0,10.394,6.785c7.8,4.188,17.151,8.914,24.941,10.156a23.527,23.527,0,0,0,3.679.314,3.811,3.811,0,0,0,3.071-1.4c2.094-2.464,2.045-7.769,1.564-12.132a61.659,61.659,0,0,0-1.145-6.722s22.686-14.31,21.988,3.141a19.506,19.506,0,0,0,.531,5.738,9.947,9.947,0,0,0,6.764,7.4,16.753,16.753,0,0,0,8.376.272,8.187,8.187,0,0,0,2.471-.845c2.094-1.4,23.035-7.678,29.317-8.376s37.694-16.055,37.694-16.055l34.2-47.466s-.7-27.921,13.263-39.09S697.524,199.835,697.524,199.835Z" transform="translate(-168.327 -103.374)" fill="#fabdbd"/>
    <g id="Group_59" data-name="Group 59" transform="translate(273.668 49.894)" opacity="0.1">
      <path id="Path_671" data-name="Path 671" d="M667.437,406.8a139.169,139.169,0,0,0-.8,16.892c.07-3.686.314-7.895.8-12.7.056-.586.119-1.194.188-1.8a273.737,273.737,0,0,0,1.745-32.382A280.388,280.388,0,0,1,667.626,405C667.584,405.611,667.493,406.218,667.437,406.8Z" transform="translate(-509.821 -222.321)"/>
      <path id="Path_672" data-name="Path 672" d="M595.3,289.07c-.468.272-.7.44-.7.44a59.777,59.777,0,0,1,1.34,9.074,42.814,42.814,0,0,0-.642-9.514Z" transform="translate(-488.073 -195.827)"/>
      <path id="Path_673" data-name="Path 673" d="M461.873,192c.342-4.886.852-13.647.754-21.437-.119,10.415-1.047,21.039-1.047,21.039Z" transform="translate(-447.905 -160.041)"/>
      <path id="Path_674" data-name="Path 674" d="M578.588,466.53a4.586,4.586,0,0,1-.049.817c-2.094,33.506,65.615,7.678,65.615,7.678a11.363,11.363,0,0,1-1.766-3.546C632.19,475.109,580.941,491.987,578.588,466.53Z" transform="translate(-483.209 -249.414)"/>
      <path id="Path_675" data-name="Path 675" d="M766.087,197.868s-16.753,33.506-22.337,46.07-56.541,31.411-63.521,32.11a8.99,8.99,0,0,0-4.984,2.4c-3.944,3.49-6.185,9.465-6.185,9.465s.168,1.138.37,3.3a25.953,25.953,0,0,1,5.815-8.579,8.991,8.991,0,0,1,4.984-2.4c6.98-.7,57.937-19.545,63.521-32.11s22.337-46.07,22.337-46.07,11.8-35.844,10.505-46.566C775.517,169.227,766.087,197.868,766.087,197.868Z" transform="translate(-510.557 -155.49)"/>
      <path id="Path_676" data-name="Path 676" d="M537.23,355.9a103.709,103.709,0,0,0-4.007-19.447c-1.654-5.787-3.63-12.132-5.675-20.773a91.129,91.129,0,0,0-3.881-12.669c-.049-.126-.1-.251-.14-.37-3.49-8.663-6.98-11.462-8.977-12.369a30.177,30.177,0,0,1-5.361-3.015,281.973,281.973,0,0,1-32.619-27.419c-16.753-16.753-33.506-56.541-33.506-56.541a63.115,63.115,0,0,1-1.033-10.177,67.289,67.289,0,0,0,1.033,14.366s16.753,39.788,33.506,56.541a281.966,281.966,0,0,0,32.619,27.419,30.173,30.173,0,0,0,5.4,3.016c1.989.907,5.473,3.707,8.977,12.369.042.119.091.244.14.37a91.105,91.105,0,0,1,3.86,12.669c2.045,8.642,4.021,14.987,5.675,20.773a103.709,103.709,0,0,1,4.007,19.447c.293,2.918.468,6.094.516,9.668A121.588,121.588,0,0,0,537.23,355.9Z" transform="translate(-441.989 -166.853)"/>
    </g>
    <path id="Path_677" data-name="Path 677" d="M641.575,361.812a41.561,41.561,0,0,0-2.792,5.5c-1.054,2.932-1.061,6.122-1.256,9.228a74.093,74.093,0,0,1-1.982,12.928,14.291,14.291,0,0,1-.7,2.29,6.046,6.046,0,0,1-.817,1.4,5.953,5.953,0,0,1-1.3,1.18,15.229,15.229,0,0,1-2.366,1.291c-9.717,4.537-20.313,8.544-30.916,6.98a44.988,44.988,0,0,1-12.865-4.328c-3.839-1.864-8.181-4.076-12.16-2.527h0a6.123,6.123,0,0,1-1.947.607,1.849,1.849,0,0,1-.391-.035c-1.312-.251-1.312-4.677-1.612-5.982-1.145-5.012-1.319-9.074-2-13.43a44.078,44.078,0,0,0-1.682-7.1c-2.792-8.446-3.637-17.451-3.637-26.3,0-.44-3.141,0-4.188-.042-.265,0-.412-.042-.349-.133a1.4,1.4,0,0,1,.209-.237,3.189,3.189,0,0,1,1.249-.621l.824-.244c4.314-1.222,9.074-1.731,12.3-4.768,3.351-3.134,4.188-8.139,4.042-12.718-.042-1.473-.761-5.047-.642-8.013a23.518,23.518,0,0,0,3.679.314,3.811,3.811,0,0,0,3.071-1.4,55.126,55.126,0,0,1,3.016,6.98c1.187,2.918,2.094,5.989,3.832,8.628a14.61,14.61,0,0,0,13.067,6.694c5.124-.433,9.891-4.37,10.806-9.423.8-4.433-1.061-10.813-1.019-15.42a16.753,16.753,0,0,0,8.376.272,7.562,7.562,0,0,1,.3.873c1.571,5.389,3.665,11.573,8.935,13.486,3.406,1.229,7.434.307,10.582,2.094a6.774,6.774,0,0,1,.7.461,7.728,7.728,0,0,1,1.85,1.961,15.768,15.768,0,0,1,2.241,7.036A39.034,39.034,0,0,1,641.575,361.812Z" transform="translate(-203.534 -153.192)" fill="#f44336"/>
    <path id="Path_678" data-name="Path 678" d="M617.079,296.19a23.789,23.789,0,0,1-21.374-2.157,61.643,61.643,0,0,0-1.145-6.722s22.686-14.31,21.988,3.141A19.5,19.5,0,0,0,617.079,296.19Z" transform="translate(-214.393 -143.734)" opacity="0.1"/>
    <circle id="Ellipse_91" data-name="Ellipse 91" cx="23.733" cy="23.733" r="23.733" transform="translate(370.388 105.186)" fill="#fabdbd"/>
    <path id="Path_679" data-name="Path 679" d="M555.06,347.822s46.07-29.317,189.167,2.094S970.39,356.2,970.39,356.2v32.808s-160.548,17.451-221.975,0-148.87-27.516-179.492-.5Z" transform="translate(-202.465 -159.92)" fill="#f86d70"/>
    <path id="Path_680" data-name="Path 680" d="M555.06,347.822s46.07-29.317,189.167,2.094S970.39,356.2,970.39,356.2v32.808s-160.548,17.451-221.975,0-148.87-27.516-179.492-.5Z" transform="translate(-202.465 -159.92)" opacity="0.1"/>
    <path id="Path_681" data-name="Path 681" d="M557.06,349.822s44.674-29.317,187.771,2.094S969.6,358.2,969.6,358.2l.7,30.015s-159.152,17.451-220.579,0-148.172-29.611-178.794-2.59Z" transform="translate(-203.069 -160.524)" fill="#f86d70"/>
    <path id="Path_682" data-name="Path 682" d="M392.26,398.629s-46.07,29.317-189.167-2.094-136.117-6.282-136.117-6.282V357.445s70.5-17.451,131.928,0,148.87,27.516,179.492.5Z" transform="translate(-55.064 -164.237)" fill="#f86d70"/>
    <path id="Path_683" data-name="Path 683" d="M392.26,398.629s-46.07,29.317-189.167-2.094-136.117-6.282-136.117-6.282V357.445s70.5-17.451,131.928,0,148.87,27.516,179.492.5Z" transform="translate(-55.064 -164.237)" opacity="0.1"/>
    <path id="Path_684" data-name="Path 684" d="M391.19,397.837s-44.674,29.317-187.771-2.094S68.7,389.46,68.7,389.46L68,359.445s69.105-17.451,130.532,0,148.172,29.611,178.794,2.59Z" transform="translate(-55.39 -164.841)" fill="#f86d70"/>
    <path id="Path_685" data-name="Path 685" d="M575.67,257.769c-.7-4.356-1.773-9.842,1.871-12.334a7.748,7.748,0,0,1,4.321-1.117c7.546-.077,14.756,5.179,22.156,3.644a12.488,12.488,0,0,0,4.886-22.246c-2.911-2.164-6.589-2.946-10.149-3.679-9.361-1.927-19.133-3.846-28.375-1.4s-17.688,10.736-16.948,20.243c.349,4.551,2.667,8.684,5.089,12.565,1.843,2.946,9.019,16.753,12.5,16.962C575.935,270.7,576.151,260.617,575.67,257.769Z" transform="translate(-201.96 -124.92)" fill="#3f3d56"/>
    <path id="Path_686" data-name="Path 686" d="M639.5,461.7s-48.164,11.867-64.219,0c0,0-6.98,27.223-4.886,41.184,0,0,34.2,2.094,37.694,4.188,0,0,.7-5.584,4.188-2.792,0,0,11.867-13.961,33.506-1.4C645.778,502.884,649.966,470.076,639.5,461.7Z" transform="translate(-206.976 -198.061)" fill="#f44336"/>
    <path id="Path_687" data-name="Path 687" d="M615.006,227.987a13.85,13.85,0,0,0-1.557-.977,12.46,12.46,0,0,1-6.834,20.431c-7.4,1.536-14.61-3.721-22.156-3.644a7.748,7.748,0,0,0-4.321,1.117c-3.644,2.492-2.576,7.979-1.878,12.334.461,2.848.272,12.928-4.628,12.655h-.084c1.347,1.64,2.6,2.75,3.574,2.792,4.886.272,5.089-9.772,4.628-12.655-.7-4.356-1.766-9.842,1.878-12.334a7.748,7.748,0,0,1,4.321-1.117c7.546-.077,14.756,5.179,22.156,3.644a12.488,12.488,0,0,0,4.886-22.246Z" transform="translate(-208.049 -127.192)" opacity="0.1"/>
    <g id="Group_60" data-name="Group 60" transform="translate(0.013 61.57)" opacity="0.1">
      <path id="Path_688" data-name="Path 688" d="M110.226,178.285s-52.192-21.946-59.033,17.632c0,0-3.567,6.164,1.4,11.259,0,0,1.068-2.729,6.115.1a26.247,26.247,0,0,0,5.7,2.31,12.816,12.816,0,0,0,8.111-.433h0s17.165-.928,31.6-23.384c0,0,6.185-3.825,6.5-5.256l-10.345.7s.789,7.574-3.49,12.118c0,0,3.8-11.748,1.975-12.083-.37-.07-5.466.607-5.466.607S94.6,195.017,87.7,201.83c0,0,6.408-13.4,3.616-19.74l-7.63,1.473s2.094,13.849-5.459,21.911c0,0,6.206-14.24,3.811-21.479l-7.315,2.457s1.766,13.556-4.551,20.243c0,0,5.514-17.179,2.918-19.545,0,0-6.575,2.666-7.986,4.188,0,0,1.047,9.772-2.974,13.263,0,0,2.471-11.867,1.249-12.355,0,0-7.643,5.752-9.968,10.715,0,0,2.9-7.581,9-11.867,0,0-5.124-.866-9.074,1.277,0,0,2.646-5.033,10.924-2.646,0,0,6.136-4.244,7.364-4.188,0,0-7.832-3.49-13.493-3.064,0,0,6.066-3.49,15.413,2.345l7.287-2.639s-10.115-5.186-15.189-5.165c0,0,6.743-2.6,17.088,4.656l7.462-1.529s-8.376-5.131-14.023-6.324c0,0,6.778-1.068,16.18,5.975l5.11-.433s-6.185-3.637-8.055-4.523-1.787-1.466-1.787-1.466a24.362,24.362,0,0,1,11.985,5.766S110.177,178.934,110.226,178.285Z" transform="translate(-49.953 -172.217)" fill="#f44336"/>
    </g>
    <g id="Group_61" data-name="Group 61" transform="translate(7.661 -0.004)" opacity="0.1">
      <path id="Path_689" data-name="Path 689" d="M111.608,112.307S93.082,69.539,66.494,89.153c0,0-5.633,1.633-5.584,7.469,0,0,2.192-1.012,3.574,3.539a21.912,21.912,0,0,0,2.094,4.621,10.471,10.471,0,0,0,5.019,4.349h0s10.722,9.228,32.11,4.111c0,0,5.856,1.256,6.862.579l-6.541-5.487s-3.839,4.949-8.991,5.193c0,0,8.956-4.816,8.055-6.059-.181-.251-3.588-2.75-3.588-2.75s-6.722,8.572-14.659,8.7c0,0,11.441-4.314,13.4-9.668l-5.368-3.49s-6.659,9.416-15.727,9.905c0,0,11.8-4.886,14.5-10.582L85.9,96.881s-6.673,9.074-14.219,9.416c0,0,13.06-7.064,12.858-9.947,0,0-5.424-2.164-7.141-2.038,0,0-4.935,6.387-9.34,6.206,0,0,8.23-5.647,7.776-6.631,0,0-7.818-.935-12.027.7,0,0,6.045-2.848,12.111-1.913,0,0-2.548-3.441-6.1-4.4,0,0,4.439-1.487,8,4.649,0,0,6.059.97,6.764,1.7,0,0-2.653-6.555-6.282-9.507,0,0,5.584,1.4,7.818,10.17l5.829,2.59s-3.05-8.844-6.115-11.713c0,0,5.494,2.29,7.5,12.495l5.3,3.344s-2.059-7.818-4.726-11.713c0,0,4.635,3.218,6.213,12.76L103.4,105.7s-1.605-5.682-2.213-7.274-.223-1.885-.223-1.885a20.11,20.11,0,0,1,3.832,10.254S111.231,112.67,111.608,112.307Z" transform="translate(-60.91 -84.006)" fill="#f44336"/>
    </g>
  </g>
</svg>
