<svg xmlns="http://www.w3.org/2000/svg" xmlns:xlink="http://www.w3.org/1999/xlink" width="1054.088" height="762.412" viewBox="0 0 1054.088 762.412">
  <defs>
    <linearGradient id="linear-gradient" x1="0.5" y1="1.001" x2="0.5" gradientUnits="objectBoundingBox">
      <stop offset="0" stop-color="gray" stop-opacity="0.251"/>
      <stop offset="0.54" stop-color="gray" stop-opacity="0.122"/>
      <stop offset="1" stop-color="gray" stop-opacity="0.102"/>
    </linearGradient>
    <linearGradient id="linear-gradient-2" x1="0.502" y1="1" x2="0.502" y2="0.001" xlink:href="#linear-gradient"/>
  </defs>
  <g id="undraw_grand_slam_0q5r_1_" data-name="undraw_grand_slam_0q5r (1)" transform="translate(0.009 0.005)">
    <path id="Path_823" data-name="Path 823" d="M1101.442,116.58c-3.55,30.167-28.449,54.054-34.356,83.848a81.285,81.285,0,0,0-1.393,11.843c-.849,17.111,2.539,34.576.792,51.716-3.254,32.142-22.79,57.26-47.593,79.029-18.762,16.424-40.54,30.873-60.572,44.854-51,35.625-98.831,80.6-119.779,139.181-13.962,39.061-15.031,81.51-25.28,121.707s-33.593,81.329-73.045,94.145c-42.344,13.761-89-9.181-132.577-.115-46.763,9.734-79.926,53.93-126.068,66.412-58.625,15.861-117.049-23.114-177.23-31.235-28.9-3.9-58.31-.592-87.36-3.092a219.573,219.573,0,0,1-91.616-29.117c-9.543-5.6-19.192-12.483-23.629-22.656-3.817-8.789-3.235-18.81-2.061-28.325,4.39-35.31,15.5-73.694-1.976-104.729-16.119-28.63-55.18-49.11-49.387-81.434,3.493-19.449,22.58-31.6,40.349-40.311,36.57-17.97,75.526-32.037,108.212-56.306,23.381-17.388,43.518-41.647,52.107-68.932a91.912,91.912,0,0,0,4.247-33.8c-1.2-18.037-7.444-38.288,3.436-52.727,4.714-6.26,11.939-10.106,19.2-13.046,27.39-11.07,57.814-11.71,86.291-19.573a119.033,119.033,0,0,0,27.914-11.652c17.369-10.059,31.35-24.88,34.728-44.224,1.976-11.338.22-23.715,5.879-33.736,9.543-16.987,28.411-24.087,49.482-26.4,26.082-2.863,55.619,1.613,75.393,3.817l1.975.21c25.395,2.644,50.58-2.978,75.326-11.452,26.721-9.076,52.842-21.425,78.256-30.2q3.579-1.241,7.138-2.376a365.514,365.514,0,0,1,56.8-13.218,371.351,371.351,0,0,1,82.073-3.168,364.1,364.1,0,0,1,41.4,5.382q6.031,1.145,12.044,2.453c23.3,4.991,46.486,11.089,70.258,11.452h5.134c28.353-.487,57.346-7.692,84.249,1.012,12.282,3.98,23.963,11.805,28.888,23.677C1101.834,102.1,1102.273,109.48,1101.442,116.58Z" transform="translate(-47.74 -50.55)" fill="#f44336"/>
    <path id="Path_824" data-name="Path 824" d="M1075.36,214.748h-24.5a32.447,32.447,0,0,0-21.32-28.63,22.9,22.9,0,1,0-22.093,0,32.447,32.447,0,0,0-21.32,28.63h-.21a32.447,32.447,0,0,0-21.262-27.676,22.9,22.9,0,1,0-33.564-24.25,32.38,32.38,0,0,0-9.381-5.335,22.9,22.9,0,1,0-22.093,0,32.448,32.448,0,0,0-21.4,30.539v26.721h-10.5v-21a32.447,32.447,0,0,0-21.4-30.539,22.9,22.9,0,1,0-22.093,0,32.543,32.543,0,0,0-18.7,17.6A32.534,32.534,0,0,0,790,168.939a22.9,22.9,0,1,0-22.093,0,32.553,32.553,0,0,0-16.625,13.58v-4.037a32.448,32.448,0,0,0-21.4-30.539,22.9,22.9,0,1,0-22.093,0,32.448,32.448,0,0,0-21.4,30.539v36.265H674.949a32.534,32.534,0,0,0-18.5-17.178,22.9,22.9,0,1,0-22.093,0,32.326,32.326,0,0,0-6.451,3.2,32.447,32.447,0,0,0-21.129-26.1,22.9,22.9,0,1,0-22.093,0,32.515,32.515,0,0,0-20.041,21.377,32.447,32.447,0,0,0-13.189-8.971,22.9,22.9,0,1,0-22.093,0,32.382,32.382,0,0,0-9.62,5.535,32.543,32.543,0,0,0-18.9-17.942,22.9,22.9,0,1,0-22.093,0,32.448,32.448,0,0,0-21.4,30.539v9.543H399.709a119.033,119.033,0,0,1-27.914,11.6c-28.477,7.864-58.9,8.5-86.291,19.573-7.262,2.939-14.487,6.785-19.2,13.046-10.879,14.439-4.638,34.69-3.436,52.727a91.913,91.913,0,0,1-4.256,33.8h769.95c24.813-21.721,44.339-46.887,47.593-79.029C1077.9,249.333,1074.511,231.868,1075.36,214.748Z" transform="translate(-57.369 -53.035)" opacity="0.2"/>
    <path id="Path_825" data-name="Path 825" d="M819.323,568.364s.334,12.072-10.4,14.42,4.361,9.391,10.4,7.711,30.863-23.477,30.863-23.477-8.723-13.418-14.42-13.418C835.728,553.609,825.335,571.045,819.323,568.364Z" transform="translate(-82.327 -73.521)" opacity="0.05"/>
    <path id="Path_826" data-name="Path 826" d="M767.792,561.69s.668,11.07-15.766,17.445c0,0-17.111,1.68-5.363,10.059s47.3-2.348,47.3-2.348-.668-10.736-4.7-19.459C789.265,567.4,769.815,566.051,767.792,561.69Z" transform="translate(-79.467 -73.89)" opacity="0.05"/>
    <path id="Path_827" data-name="Path 827" d="M891.949,317.425c-5.182-6.117-16.224,16.663-16.224,16.663l-40.206,9.219a13.447,13.447,0,0,1-6.547-4.447A18.572,18.572,0,0,0,845.74,329.6l-10.364-.582a8.446,8.446,0,0,1-3.073-.553c-1.985-.907-2.863-3.111-3.932-5.01a24.258,24.258,0,0,0-13.141-11.166c-3.712-1.317-7.854-1.775-11.042-4.066-2.3-1.651-3.865-4.084-5.726-6.213C789.635,291.82,775.014,289,761.52,287.24c-2.386-.315-5.106-.515-6.9,1.069-1.231,1.078-1.718,2.768-2.787,4.008-1.823,2.128-4.905,2.558-7.682,3.083a25.128,25.128,0,0,0-9.81,3.731,12.407,12.407,0,0,0-5.468,8.589c-.534,5.3,3.331,10.364,2.615,15.642-.22,1.622-.868,3.168-.954,4.772a14.984,14.984,0,0,0,.725,4.543c1.164,4.476,2.061,9.133,1.269,13.685s-3.579,8.99-7.94,10.679a24.021,24.021,0,0,0,16.52-2.281c4.905-2.806,8.513-7.988,8.684-13.571v-.4l.582.229c.086.315.172.649.248,1l.869.248a18.467,18.467,0,0,1,0,6.022l-6.041,4.829a8.4,8.4,0,0,0,.077.954l-.077.057a6.716,6.716,0,0,0,.067.792L733.7,362.289a47.212,47.212,0,0,0-16.224,23.124L706.76,402.094s-6.91,6.461-10.708,7.482L663.92,437.462s-11.128,6.06-11.08,12.111h0v.372h0v.363h0a.84.84,0,0,0,.076.344h0a1.13,1.13,0,0,0,.1.334v.057a.866.866,0,0,0,.124.315v.067l.153.305v.076l.172.286.057.086.191.277.076.1.219.267.1.1.239.248.115.114.258.239.134.124.286.238.153.124.315.229.162.124.363.248.153.105.572.344c12.407,7.138,15.546-11.223,15.546-11.223l37.314-24.488s30.749-27.886,30.749-34l6.68,2.863-.115,1.2v1.021s-.344,14.315,17.617,18.027c0,0,16.424,16.481,16.92,21.721v.382c-.286,4.008,3.579,11.862,4.772,14.258l-6.537,5.468.067.954-.067.057.248,3.4c-7.4,7.969-18.132,19.793-19.249,22.446-1.727,4.085-1.727,12.922,2.414,22.1l4.495,40.464V551.5l-2.071-.954v2.672a4.945,4.945,0,0,1-2.414-1.995v.343h0c-.057,1.975-1.117,11.547-16.224,17.321,0,0-10.021.954-9.763,5.1-.1,1.393,1,3.178,4.228,5.449,12.091,8.5,48.671-2.376,48.671-2.376v-.334h0s-.687-10.88-4.838-19.726c0,0-.954-.067-2.414-.21v-2.51l-1.508-.258a66.222,66.222,0,0,1,1.4-14.191,111,111,0,0,0,1.976-32.925,41.593,41.593,0,0,0,5.726,5.888l21.806,34.585,2.577,5.3c-.954.687-1.909,1.288-2.691,1.775l4.381,4.056a4.085,4.085,0,0,1-3.054,0s.343,12.244-10.707,14.62c-4.409.954-4.581,2.653-2.815,4.256,2.348,2.548,9.954,4.972,13.867,3.9,6.222-1.7,31.789-23.8,31.789-23.8a65.846,65.846,0,0,0-7.683-9.4c-2.5-2.5-5.239-4.533-7.52-4.533,0,0-.525.868-1.413,2.195l-2.729-2.529-.276.258c-.229-.754-.439-1.517-.62-2.271,0,0-5.3-24.269-21.52-42.649,0,0-3.2-2.644,1.746-11.376,0,0,8-9.486,14.974-19.774,10.145,1.976,20.585,1.164,28.506-6.146l-.1-.63.448-.391-3.455-21.425s1.556-20.232-23.668-36.561c0,0-13.647-16.835-18.486-38.259h-.277l.277-3.712c3.111,2.376,36.265-2.042,36.265-2.042L884,339.871c2.491-1.365,9.429-10.822,9.4-17.674A6.861,6.861,0,0,0,891.949,317.425Z" transform="translate(-75.371 -61.348)" fill="url(#linear-gradient)"/>
    <path id="Path_828" data-name="Path 828" d="M830.841,339.621a13.046,13.046,0,0,0,9.41,4.953A30.206,30.206,0,0,1,830.6,350.6c-10.326,4.056-22.828,2.863-31.722-3.894-2.09-1.594-4.094-3.493-6.68-4.113-2.214-.544-4.543,0-6.833-.124a13.561,13.561,0,0,1-12.33-10.135c-.658-2.8-.391-5.726-.868-8.589a13.323,13.323,0,0,0-.315-1.441c-1.336-4.772-7.578-9.906-12.836-8.513-4.963,1.307-7.511,9.114-7.406,13.58.105,4.915,2.481,9.61,2.328,14.525-.172,5.507-3.674,10.622-8.436,13.361a23,23,0,0,1-16,2.233c4.237-1.67,6.938-6.051,7.711-10.5s-.1-9.085-1.231-13.494a15,15,0,0,1-.706-4.485c.086-1.613.716-3.14.954-4.772.7-5.2-3.054-10.2-2.538-15.422A12.206,12.206,0,0,1,739,300.378a24.161,24.161,0,0,1,9.543-3.684c2.691-.515,5.726-.954,7.463-3.044,1.04-1.222,1.508-2.863,2.7-3.96,1.737-1.556,4.38-1.355,6.68-1.05,13.1,1.737,27.284,4.514,35.864,14.573,1.794,2.1,3.312,4.5,5.545,6.127,3.092,2.262,7.11,2.71,10.717,4.008a23.658,23.658,0,0,1,12.74,11.042c.955,1.909,1.909,4.046,3.818,4.943a8.081,8.081,0,0,0,2.987.553l10.059.573A17.97,17.97,0,0,1,830.841,339.621Z" transform="translate(-78.871 -61.412)" fill="#f55f44"/>
    <path id="Path_829" data-name="Path 829" d="M782.54,341.132s4.867.506,14.592-1.842,19.459,5.029,19.459,5.029L837.052,346l41.59-9.725s10.737-22.475,15.766-16.434-4.7,20.127-7.711,21.807l-42.64,18.094s-32.2,4.361-35.215,2.014l-.668,9.057-16.1-7.711-7.014-16.434Z" transform="translate(-81.293 -62.8)" fill="#fdb797"/>
    <path id="Path_830" data-name="Path 830" d="M886.687,341.554l-42.6,18.132s-32.2,4.361-35.215,2.014l-.668,9.057-16.1-7.711-7.043-16.434-2.2-4.838h-.315l2.52,5.535,7.043,16.434,16.1,7.711.668-9.057c3.016,2.348,35.215-2.014,35.215-2.014l42.6-18.132c2.462-1.365,9.362-10.965,9.123-17.741C895.591,331.209,889.072,340.247,886.687,341.554Z" transform="translate(-81.293 -63.06)" opacity="0.05"/>
    <path id="Path_831" data-name="Path 831" d="M748.775,357.13l-13.752,8.723a46.485,46.485,0,0,0-15.766,22.809l-10.4,16.434s-6.68,6.375-10.4,7.377l-31.2,27.5s-18.781,10.4-6.68,17.445,15.1-11.07,15.1-11.07L711.938,422.2s29.851-27.5,29.851-33.545l10.736,4.7Z" transform="translate(-75.539 -64.549)" fill="#fdb797"/>
    <path id="Path_832" data-name="Path 832" d="M741.73,389.47c0,6.041-29.852,33.545-29.852,33.545l-36.265,24.154s-3.016,18.132-15.1,11.07c-2.767-1.613-3.913-3.407-4.037-5.2-.134,2.023.954,4.056,4.037,5.879,12.073,7.043,15.1-11.07,15.1-11.07l36.265-24.154s29.852-27.5,29.852-33.545l10.736,4.7-.067-.706Z" transform="translate(-75.537 -66.026)" opacity="0.05"/>
    <path id="Path_833" data-name="Path 833" d="M794.71,462.4s-10.5,33.278-10.24,37.63,3.989,12.215,11.538,18.648L817.185,552.8l6.518,13.609,12.817-3.531s-4.772-8.484-6.623-16.167c0,0-5.144-23.944-20.891-42.067,0,0-3.1-2.605,1.689-11.223,0,0,23.591-28.4,24.383-39.939Z" transform="translate(-81.381 -68.949)" fill="#fdb797"/>
    <path id="Path_834" data-name="Path 834" d="M794.71,462.4s-10.5,33.278-10.24,37.63,3.989,12.215,11.538,18.648L817.185,552.8l6.518,13.609,12.817-3.531s-4.772-8.484-6.623-16.167c0,0-5.144-23.944-20.891-42.067,0,0-3.1-2.605,1.689-11.223,0,0,23.591-28.4,24.383-39.939Z" transform="translate(-81.381 -68.949)" opacity="0.05"/>
    <path id="Path_835" data-name="Path 835" d="M792.341,454.14s-23.858,25.49-25.49,29.518-1.68,12.75,2.348,21.807l4.361,39.92v15.1l13.084,2.319s-.668-9.725,1-17.445c0,0,5.726-23.859-.668-46.963,0,0-1.68-3.693,6.375-9.391,0,0,33.545-15.432,39.242-25.49Z" transform="translate(-80.529 -68.979)" opacity="0.1"/>
    <path id="Path_836" data-name="Path 836" d="M791.991,454.14s-23.858,25.49-25.49,29.518-1.68,12.75,2.348,21.807l4.361,39.92v15.1l13.084,2.319s-.668-9.725,1-17.445c0,0,5.726-23.859-.668-46.963,0,0-1.68-3.693,6.375-9.391,0,0,33.545-15.432,39.242-25.49Z" transform="translate(-80.513 -68.979)" fill="#fdb797"/>
    <path id="Path_837" data-name="Path 837" d="M793.112,454.14l-.182.191,39.424,9.219c-5.726,10.059-39.242,25.49-39.242,25.49-8.055,5.726-6.375,9.391-6.375,9.391,6.375,23.143.668,46.963.668,46.963-1.546,7.11-1.1,15.909-1.021,17.264l1.021.181s-.668-9.725,1-17.445c0,0,5.726-23.858-.668-46.963,0,0-1.68-3.693,6.375-9.391,0,0,33.545-15.432,39.243-25.49Z" transform="translate(-81.464 -68.979)" opacity="0.05"/>
    <path id="Path_838" data-name="Path 838" d="M755,339.331s4.7,7.377,0,17.111l4.7,24.154,19.459-2.682,9.391-10.736-7.425-25.853s-6.041,2.348-6.68-14.086Z" transform="translate(-80.036 -63.185)" fill="#fdb797"/>
    <path id="Path_839" data-name="Path 839" d="M750.73,357.087s1.346,17.779,3.016,21.807L752.4,392.98s-.334,14.086,17.111,17.779c0,0,16.768,17.111,16.434,21.807s5.029,14.754,5.029,14.754l-6.68,5.726.334,4.7,4.7-4.7s40.588,29.852,62.032,9.725l-3.35-21.129s2.863-17.942-21.635-34.041c0,0-14.592-18.619-19.287-39.748,0,0-13.418-1.346-16.768-6.375l-6.68-20.127-5.535,1.174,5.2,22.3s-6.041,20.127-22.809,11.452l-3.817-23.858Z" transform="translate(-79.841 -63.829)" opacity="0.1"/>
    <path id="Path_840" data-name="Path 840" d="M750.73,356.027s1.346,17.779,3.016,21.807L752.4,391.92s-.334,14.086,17.111,17.779c0,0,16.768,17.111,16.434,21.807s5.029,14.754,5.029,14.754l-6.68,5.726.334,4.7,4.7-4.7s40.588,29.852,62.032,9.725l-3.35-21.129s1.508-19.955-22.981-36.055c0,0-13.246-16.605-17.941-37.734,0,0-13.418-1.346-16.768-6.375l-6.68-20.127-5.535,1.174,5.2,22.3s-6.041,20.127-22.809,11.452l-3.817-23.858Z" transform="translate(-79.841 -63.781)" fill="#252a62"/>
    <path id="Path_841" data-name="Path 841" d="M566.48,440.67" transform="translate(-71.427 -68.364)" fill="#b4abab"/>
    <rect id="Rectangle_94" data-name="Rectangle 94" width="53.758" height="0.334" transform="translate(492.753 376.61)" fill="#b4abab"/>
    <rect id="Rectangle_95" data-name="Rectangle 95" width="51.076" height="0.334" transform="translate(494.098 374.262)" fill="#b4abab"/>
    <rect id="Rectangle_96" data-name="Rectangle 96" width="46.715" height="0.334" transform="translate(495.1 371.915)" fill="#b4abab"/>
    <rect id="Rectangle_97" data-name="Rectangle 97" width="41.342" height="0.334" transform="translate(496.78 369.567)" fill="#b4abab"/>
    <rect id="Rectangle_98" data-name="Rectangle 98" width="35.31" height="0.334" transform="translate(499.128 367.219)" fill="#b4abab"/>
    <rect id="Rectangle_99" data-name="Rectangle 99" width="28.267" height="0.334" transform="translate(502.143 364.872)" fill="#b4abab"/>
    <rect id="Rectangle_100" data-name="Rectangle 100" width="17.531" height="0.334" transform="translate(506.839 362.524)" fill="#b4abab"/>
    <rect id="Rectangle_101" data-name="Rectangle 101" width="56.774" height="0.334" transform="translate(491.741 379.292)" fill="#b4abab"/>
    <rect id="Rectangle_102" data-name="Rectangle 102" width="57.785" height="0.334" transform="translate(491.741 381.973)" fill="#b4abab"/>
    <rect id="Rectangle_103" data-name="Rectangle 103" width="59.455" height="0.334" transform="translate(490.739 384.655)" fill="#b4abab"/>
    <rect id="Rectangle_104" data-name="Rectangle 104" width="60.238" height="0.334" transform="translate(490.739 387.337)" fill="#b4abab"/>
    <rect id="Rectangle_105" data-name="Rectangle 105" width="59.904" height="0.334" transform="translate(490.739 390.028)" fill="#b4abab"/>
    <rect id="Rectangle_106" data-name="Rectangle 106" width="58.224" height="0.334" transform="translate(491.407 392.71)" fill="#b4abab"/>
    <rect id="Rectangle_107" data-name="Rectangle 107" width="55.199" height="0.334" transform="translate(492.753 395.391)" fill="#b4abab"/>
    <rect id="Rectangle_108" data-name="Rectangle 108" width="52.851" height="0.334" transform="translate(492.753 398.073)" fill="#b4abab"/>
    <rect id="Rectangle_109" data-name="Rectangle 109" width="47.488" height="0.334" transform="translate(495.1 400.755)" fill="#b4abab"/>
    <rect id="Rectangle_110" data-name="Rectangle 110" width="41.447" height="0.334" transform="translate(497.448 403.436)" fill="#b4abab"/>
    <rect id="Rectangle_111" data-name="Rectangle 111" width="34.747" height="0.334" transform="translate(500.13 406.128)" fill="#b4abab"/>
    <rect id="Rectangle_112" data-name="Rectangle 112" width="24.679" height="0.334" transform="translate(505.502 408.809)" fill="#b4abab"/>
    <rect id="Rectangle_113" data-name="Rectangle 113" width="0.334" height="35.587" transform="translate(497.753 368.613)" fill="#b4abab"/>
    <rect id="Rectangle_114" data-name="Rectangle 114" width="0.334" height="30.558" transform="translate(495.74 371.294)" fill="#b4abab"/>
    <rect id="Rectangle_115" data-name="Rectangle 115" width="0.334" height="24.86" transform="translate(493.726 374.31)" fill="#b4abab"/>
    <rect id="Rectangle_116" data-name="Rectangle 116" width="0.334" height="15.804" transform="translate(491.712 379.005)" fill="#b4abab"/>
    <rect id="Rectangle_117" data-name="Rectangle 117" width="0.334" height="40.283" transform="translate(500.435 366.265)" fill="#b4abab"/>
    <rect id="Rectangle_118" data-name="Rectangle 118" width="0.334" height="43.308" transform="translate(503.117 364.585)" fill="#b4abab"/>
    <rect id="Rectangle_119" data-name="Rectangle 119" width="0.334" height="45.655" transform="translate(505.798 363.24)" fill="#b4abab"/>
    <rect id="Rectangle_120" data-name="Rectangle 120" width="0.334" height="47.669" transform="translate(508.49 362.238)" fill="#b4abab"/>
    <rect id="Rectangle_121" data-name="Rectangle 121" width="0.334" height="49.683" transform="translate(511.171 361.236)" fill="#b4abab"/>
    <rect id="Rectangle_122" data-name="Rectangle 122" width="0.334" height="49.683" transform="translate(513.853 361.236)" fill="#b4abab"/>
    <rect id="Rectangle_123" data-name="Rectangle 123" width="0.334" height="49.683" transform="translate(516.535 361.236)" fill="#b4abab"/>
    <rect id="Rectangle_124" data-name="Rectangle 124" width="0.334" height="49.683" transform="translate(519.216 361.236)" fill="#b4abab"/>
    <rect id="Rectangle_125" data-name="Rectangle 125" width="0.334" height="48.671" transform="translate(521.908 362.238)" fill="#b4abab"/>
    <rect id="Rectangle_126" data-name="Rectangle 126" width="0.334" height="47.669" transform="translate(524.589 362.906)" fill="#b4abab"/>
    <rect id="Rectangle_127" data-name="Rectangle 127" width="0.334" height="46.324" transform="translate(527.271 363.583)" fill="#b4abab"/>
    <rect id="Rectangle_128" data-name="Rectangle 128" width="0.334" height="43.642" transform="translate(529.953 364.919)" fill="#b4abab"/>
    <rect id="Rectangle_129" data-name="Rectangle 129" width="0.334" height="41.294" transform="translate(532.634 366.265)" fill="#b4abab"/>
    <rect id="Rectangle_130" data-name="Rectangle 130" width="0.334" height="37.601" transform="translate(535.316 368.613)" fill="#b4abab"/>
    <rect id="Rectangle_131" data-name="Rectangle 131" width="0.334" height="34.585" transform="translate(538.007 369.615)" fill="#b4abab"/>
    <rect id="Rectangle_132" data-name="Rectangle 132" width="0.334" height="30.892" transform="translate(540.689 371.628)" fill="#b4abab"/>
    <rect id="Rectangle_133" data-name="Rectangle 133" width="0.334" height="26.531" transform="translate(543.371 373.976)" fill="#b4abab"/>
    <rect id="Rectangle_134" data-name="Rectangle 134" width="0.334" height="21.501" transform="translate(546.052 375.99)" fill="#b4abab"/>
    <rect id="Rectangle_135" data-name="Rectangle 135" width="0.334" height="14.124" transform="translate(548.734 380.351)" fill="#b4abab"/>
    <path id="Path_842" data-name="Path 842" d="M588.345,479.724a31.492,31.492,0,0,1-8.837-1.212c-7.119-2.071-12.492-6.308-15.537-12.263a26.12,26.12,0,0,1-1.909-17.846c2.691-11.452,13.065-22.475,29.489-19.526l.554.105a40.922,40.922,0,0,1,15.947,6.814c27.256,19.182,33.4,16.615,33.4,16.586l1.011-.582v4.256l-.735-.076c-8.952-.954-22.9,9.3-30.481,15.46a35.969,35.969,0,0,1-19.907,8.16Q589.815,479.724,588.345,479.724Zm-2.052-49.988c-12.674,0-20.69,9.314-22.952,18.972-2.5,10.679,1.6,24.164,16.539,28.506a31.41,31.41,0,0,0,11.337,1.04,34.642,34.642,0,0,0,19.163-7.864c7.5-6.137,21.31-16.224,30.73-15.8v-.8c-2.644.305-11.032-.859-33.86-16.93a39.584,39.584,0,0,0-15.432-6.594l-.544-.1a28.269,28.269,0,0,0-4.982-.41Z" transform="translate(-71.19 -67.804)" fill="#535461"/>
    <path id="Path_843" data-name="Path 843" d="M595.79,401.13h28.83a3.35,3.35,0,0,1,3.35,3.35h0a3.35,3.35,0,0,1-3.35,3.35H595.79v-6.7Z" transform="translate(-27.206 -18.317)" fill="#535461"/>
    <rect id="Rectangle_136" data-name="Rectangle 136" width="4.027" height="6.709" transform="translate(568.584 382.813)" fill="#f0e4e4"/>
    <path id="Path_844" data-name="Path 844" d="M615.962,470.142l-.782-1.088c5.726-4.113,8.589-8.589,8.589-13.361,0-8.141-8.513-14.468-8.589-14.525l.792-1.088c.372.277,9.171,6.776,9.152,15.613C625.124,460.913,622.051,465.771,615.962,470.142Z" transform="translate(-73.651 -68.337)" fill="#535461"/>
    <path id="Path_845" data-name="Path 845" d="M775.77,338.973c-1-2.08-1.842-5.487-2.061-11.013L754.25,340.032a15.007,15.007,0,0,1,1.67,4.485A18.782,18.782,0,0,0,775.77,338.973Z" transform="translate(-80.002 -63.217)" opacity="0.1"/>
    <circle id="Ellipse_97" data-name="Ellipse 97" cx="18.781" cy="18.781" r="18.781" transform="translate(663.512 243.947)" fill="#fdb797"/>
    <path id="Path_846" data-name="Path 846" d="M760.885,320.133c1.909.764,3.178,2.558,4.991,3.483,2.605,1.327,5.726.639,8.646,1.183,3.273.62,6.27,2.863,9.543,2.558,3.932-.344,6.8-4.466,6.68-8.408s-2.72-7.472-5.926-9.763-7.024-3.55-10.775-4.772c-4.772-1.574-9.925-3.159-14.859-2.023-4.6,1.059-16.987,7.148-16.348,12.912C743.879,324.57,756.094,318.224,760.885,320.133Z" transform="translate(-79.479 -62.032)" opacity="0.1"/>
    <path id="Path_847" data-name="Path 847" d="M760.885,319.443c1.909.764,3.178,2.558,4.991,3.483,2.605,1.327,5.726.639,8.646,1.183,3.273.62,6.27,2.863,9.543,2.558,3.932-.344,6.8-4.466,6.68-8.408s-2.72-7.472-5.926-9.763-7.024-3.55-10.775-4.772c-4.772-1.575-9.925-3.159-14.859-2.023-4.6,1.059-16.987,7.148-16.348,12.912C743.879,323.871,756.094,317.515,760.885,319.443Z" transform="translate(-79.479 -62.001)" fill="#f55f44"/>
    <path id="Path_848" data-name="Path 848" d="M791,437.09s1,8.389,3.693,11.07" transform="translate(-81.68 -68.201)" opacity="0.1"/>
    <path id="Path_849" data-name="Path 849" d="M826.75,408.62A10.986,10.986,0,0,1,825.07,416" transform="translate(-83.235 -66.901)" opacity="0.1"/>
    <path id="Path_850" data-name="Path 850" d="M809.47,386.13s-3.015,6.041-11.07,10.059" transform="translate(-82.017 -65.874)" opacity="0.1"/>
    <g id="Group_65" data-name="Group 65" transform="translate(674.917 276.481)" opacity="0.05">
      <path id="Path_851" data-name="Path 851" d="M758.643,376.68c5.869,3.054,10.421,2.567,13.867.658-3.092.954-6.89.744-11.519-1.661l-3.818-23.858-2.224,1.8Z" transform="translate(-754.95 -340.788)"/>
      <path id="Path_852" data-name="Path 852" d="M782.918,341.272,789.6,361.4c3.35,5.029,16.768,6.375,16.768,6.375,4.7,21.129,17.941,37.735,17.941,37.735,24.488,16.1,22.981,36.055,22.981,36.055l3.35,21.129a24.812,24.812,0,0,1-6.079,4.2,24.737,24.737,0,0,0,8.427-5.211l-3.331-21.129s1.508-19.955-22.98-36.055c0,0-13.246-16.605-17.941-37.734,0,0-13.418-1.346-16.768-6.375l-6.68-20.127-5.535,1.174.115.487Z" transform="translate(-756.082 -340.26)"/>
      <path id="Path_853" data-name="Path 853" d="M788.884,458.36l-2.434,2.434.086,1.25,3.13-3.13Z" transform="translate(-756.388 -345.653)"/>
    </g>
    <path id="Path_854" data-name="Path 854" d="M803.63,446.825s14.086-9.725,25.491-9.725" transform="translate(-82.256 -68.201)" opacity="0.1"/>
    <path id="Path_855" data-name="Path 855" d="M773.4,409.947s8.055-5.029,10.4-9.057" transform="translate(-80.876 -66.548)" opacity="0.1"/>
    <path id="Path_856" data-name="Path 856" d="M666.427,448s-4.027,5.029-2.014,6.68,7.043-5.726,7.043-5.726Z" transform="translate(-75.874 -68.699)" fill="#fdb797"/>
    <path id="Path_857" data-name="Path 857" d="M513.943,454.489a8.5,8.5,0,0,0-8.5,8.5,7.665,7.665,0,0,0,0,.84,1.881,1.881,0,0,0,.057.458v.124h0a8.427,8.427,0,0,0,2.863,5.029l.277.229a8.5,8.5,0,1,0,5.23-15.193Z" transform="translate(-68.64 -68.995)" fill="url(#linear-gradient-2)"/>
    <path id="Path_858" data-name="Path 858" d="M509.093,469.261a7.93,7.93,0,1,0-3.054-6.241,7.136,7.136,0,0,0,0,.783,2.019,2.019,0,0,0,.048.43v.114h0a7.873,7.873,0,0,0,2.682,4.7Z" transform="translate(-68.667 -69.022)" fill="#3ad29f"/>
    <path id="Path_859" data-name="Path 859" d="M509.1,469.4h.277c.1-1.107,3.187-2.863,5.726-4.285,2.663-1.517,4.314-2.491,4.581-3.312.353-1.05-.7-2.281-1.823-2.968-1.336-.83-3.245-1.222-4.6.134a41.681,41.681,0,0,1-7.129,4.944l.048.429v.114h0c.21-.114,5.163-2.863,7.434-5.153a3.054,3.054,0,0,1,3.9,0c1.145.763,1.785,1.689,1.584,2.309s-2.4,1.909-4.333,3c-2.739,1.575-5.573,3.178-5.926,4.543Z" transform="translate(-68.672 -69.159)" fill="#f0e4e4"/>
    <path id="Path_860" data-name="Path 860" d="M832.345,553.26s-8.589,8.055-13.695,11.07l4.638,4.361,14.783-2.023v-8.055Z" transform="translate(-82.942 -73.505)" fill="#f0e4e4"/>
    <path id="Path_861" data-name="Path 861" d="M726.746,511.786l-3.016-1.346v8.723l16.768,2.682v-7.711Z" transform="translate(-33.048 -23.308)" fill="#f0e4e4"/>
    <path id="Path_862" data-name="Path 862" d="M767.792,561s.668,11.07-15.766,17.445c0,0-17.111,1.68-5.363,10.059s47.3-2.348,47.3-2.348-.668-10.736-4.7-19.459C789.265,566.726,769.815,565.4,767.792,561Z" transform="translate(-79.467 -73.859)" opacity="0.05"/>
    <path id="Path_863" data-name="Path 863" d="M767.792,562s.668,11.07-15.766,17.445c0,0-17.111,1.68-5.363,10.059s47.3-2.348,47.3-2.348-.668-10.736-4.7-19.459C789.265,567.726,769.815,566.4,767.792,562Z" transform="translate(-79.467 -73.904)" fill="#f0e4e4"/>
    <path id="Path_864" data-name="Path 864" d="M819.643,567.716s.334,12.072-10.4,14.42,4.361,9.391,10.4,7.711,30.863-23.486,30.863-23.486S841.783,553,836.086,553C836.086,553,825.684,570.407,819.643,567.716Z" transform="translate(-82.341 -73.493)" opacity="0.05"/>
    <path id="Path_865" data-name="Path 865" d="M819.643,568.716s.334,12.072-10.4,14.42,4.361,9.391,10.4,7.711,30.863-23.486,30.863-23.486S841.783,554,836.086,554C836.086,554,825.684,571.407,819.643,568.716Z" transform="translate(-82.341 -73.539)" fill="#f0e4e4"/>
    <path id="Path_866" data-name="Path 866" d="M251.545,453.46l47.7,96.875L346.95,647.2H156.14l47.7-96.865Z" transform="translate(-7.13 -20.706)" fill="none" stroke="#f0e4e4" stroke-miterlimit="10" stroke-width="1"/>
    <path id="Path_867" data-name="Path 867" d="M98.11,453.46l47.7,96.875L193.515,647.2H98.11Z" transform="translate(-4.48 -20.706)" fill="none" stroke="#f0e4e4" stroke-miterlimit="10" stroke-width="1"/>
    <path id="Path_868" data-name="Path 868" d="M183.457,453.46l47.7,96.875L278.862,647.2H183.457l-76.347-6.68,5.268-42.716,23.372-47.469Z" transform="translate(-4.891 -20.706)" fill="none" stroke="#f0e4e4" stroke-miterlimit="10" stroke-width="1"/>
    <path id="Path_869" data-name="Path 869" d="M299.545,453.46l47.7,96.875L394.95,647.2H204.14l47.7-96.865Z" transform="translate(-9.322 -20.706)" fill="none" stroke="#f0e4e4" stroke-miterlimit="10" stroke-width="1"/>
    <path id="Path_870" data-name="Path 870" d="M392.545,453.46l47.7,96.875L487.95,647.2H297.14l47.7-96.865Z" transform="translate(-13.569 -20.706)" fill="none" stroke="#f0e4e4" stroke-miterlimit="10" stroke-width="1"/>
    <path id="Path_871" data-name="Path 871" d="M492.545,453.46l47.7,96.875L587.95,647.2H397.14l47.7-96.865Z" transform="translate(-18.135 -20.706)" fill="none" stroke="#f0e4e4" stroke-miterlimit="10" stroke-width="1"/>
    <path id="Path_872" data-name="Path 872" d="M592.545,453.46l47.7,96.875L687.95,647.2H497.14l47.7-96.865Z" transform="translate(-22.701 -20.706)" fill="none" stroke="#f0e4e4" stroke-miterlimit="10" stroke-width="1"/>
    <path id="Path_873" data-name="Path 873" d="M694.545,453.46l47.7,96.875L789.95,647.2H599.14l47.7-96.865Z" transform="translate(-27.359 -20.706)" fill="none" stroke="#f0e4e4" stroke-miterlimit="10" stroke-width="1"/>
    <path id="Path_874" data-name="Path 874" d="M795.545,453.46l47.7,96.875L890.95,647.2H700.14l47.7-96.865Z" transform="translate(-31.971 -20.706)" fill="none" stroke="#f0e4e4" stroke-miterlimit="10" stroke-width="1"/>
    <path id="Path_875" data-name="Path 875" d="M889.545,453.46l47.7,96.875L984.95,647.2H794.14l47.7-96.865Z" transform="translate(-36.263 -20.706)" fill="none" stroke="#f0e4e4" stroke-miterlimit="10" stroke-width="1"/>
    <path id="Path_876" data-name="Path 876" d="M1032.24,651.651h-53.1l47.7-96.865,1.9-3.846Z" transform="translate(-44.711 -25.158)" fill="none" stroke="#f0e4e4" stroke-miterlimit="10" stroke-width="1"/>
    <path id="Path_877" data-name="Path 877" d="M949.545,453.46l47.7,96.875L1044.95,647.2H854.14l47.7-96.865Z" transform="translate(-39.003 -20.706)" fill="none" stroke="#f0e4e4" stroke-miterlimit="10" stroke-width="1"/>
    <path id="Path_878" data-name="Path 878" d="M978.545,453.46l47.7,96.875,10.517,21.339V647.2H883.14l47.7-96.865Z" transform="translate(-40.327 -20.706)" fill="none" stroke="#f0e4e4" stroke-miterlimit="10" stroke-width="1"/>
    <path id="Path_879" data-name="Path 879" d="M1011.545,453.46V647.2H916.14l47.7-96.865Z" transform="translate(-41.834 -20.706)" fill="none" stroke="#f0e4e4" stroke-miterlimit="10" stroke-width="1"/>
    <path id="Path_880" data-name="Path 880" d="M448.545,453.46l47.7,96.875L543.95,647.2H353.14l47.7-96.865Z" transform="translate(-16.126 -20.706)" fill="none" stroke="#f0e4e4" stroke-miterlimit="10" stroke-width="1"/>
    <path id="Path_881" data-name="Path 881" d="M645.545,453.46l47.7,96.875L740.95,647.2H550.14l47.7-96.865Z" transform="translate(-25.121 -20.706)" fill="none" stroke="#f0e4e4" stroke-miterlimit="10" stroke-width="1"/>
    <path id="Path_882" data-name="Path 882" d="M842.545,453.46l47.7,96.875L937.95,647.2H747.14l47.7-96.865Z" transform="translate(-34.117 -20.706)" fill="none" stroke="#f0e4e4" stroke-miterlimit="10" stroke-width="1"/>
    <path id="Path_883" data-name="Path 883" d="M1039.545,453.46l4.228,8.6-6.136,88.753,1.909,96.388H944.14l47.7-96.865Z" transform="translate(-43.112 -20.706)" fill="none" stroke="#f0e4e4" stroke-miterlimit="10" stroke-width="1"/>
    <path id="Path_884" data-name="Path 884" d="M849.545,648.2l-47.707-96.865-47.7-96.875H944.95l-47.707,96.875Z" transform="translate(-34.437 -20.752)" fill="none" stroke="#f0e4e4" stroke-miterlimit="10" stroke-width="1"/>
    <path id="Path_885" data-name="Path 885" d="M644.545,648.2l-47.707-96.865-47.7-96.875H739.95l-47.707,96.875Z" transform="translate(-25.076 -20.752)" fill="none" stroke="#f0e4e4" stroke-miterlimit="10" stroke-width="1"/>
    <path id="Path_886" data-name="Path 886" d="M439.545,648.2l-47.707-96.865-47.7-96.875H534.95l-47.707,96.875Z" transform="translate(-15.715 -20.752)" fill="none" stroke="#f0e4e4" stroke-miterlimit="10" stroke-width="1"/>
    <path id="Path_887" data-name="Path 887" d="M234.545,648.2l-47.707-96.865-47.7-96.875H329.95l-47.707,96.875Z" transform="translate(-6.354 -20.752)" fill="none" stroke="#f0e4e4" stroke-miterlimit="10" stroke-width="1"/>
    <rect id="Rectangle_137" data-name="Rectangle 137" width="868.447" height="17.178" transform="translate(119.397 424.174)" fill="#f0e4e4"/>
    <rect id="Rectangle_138" data-name="Rectangle 138" width="868.447" height="17.178" transform="translate(119.397 619.813)" fill="#f0e4e4"/>
    <rect id="Rectangle_139" data-name="Rectangle 139" width="34.356" height="241.447" transform="translate(91.721 409.859)" fill="#535461"/>
    <rect id="Rectangle_140" data-name="Rectangle 140" width="34.356" height="241.447" transform="translate(970.666 409.859)" fill="#535461"/>
  </g>
</svg>
